G04 #@! TF.GenerationSoftware,KiCad,Pcbnew,(5.0.1-3-g963ef8bb5)*
G04 #@! TF.CreationDate,2018-11-12T17:33:24-05:00*
G04 #@! TF.ProjectId,Noise Source,4E6F69736520536F757263652E6B6963,rev?*
G04 #@! TF.SameCoordinates,Original*
G04 #@! TF.FileFunction,Legend,Top*
G04 #@! TF.FilePolarity,Positive*
%FSLAX46Y46*%
G04 Gerber Fmt 4.6, Leading zero omitted, Abs format (unit mm)*
G04 Created by KiCad (PCBNEW (5.0.1-3-g963ef8bb5)) date Monday, November 12, 2018 at 05:33:24 PM*
%MOMM*%
%LPD*%
G01*
G04 APERTURE LIST*
%ADD10C,0.150000*%
%ADD11C,0.120000*%
G04 APERTURE END LIST*
D10*
G04 #@! TO.C,REF\002A\002A*
X144680000Y-95050000D02*
X146510000Y-95050000D01*
X144680000Y-116450000D02*
X146510000Y-116450000D01*
X166080000Y-95050000D02*
X164250000Y-95050000D01*
X166080000Y-116450000D02*
X164250000Y-116450000D01*
X144680000Y-96880000D02*
X144680000Y-95050000D01*
X144680000Y-114620000D02*
X144680000Y-116450000D01*
X166080000Y-96880000D02*
X166080000Y-95050000D01*
X166080000Y-114620000D02*
X166080000Y-116450000D01*
X151590000Y-95050000D02*
X149010000Y-95050000D01*
X151590000Y-116450000D02*
X149010000Y-116450000D01*
X159170000Y-95050000D02*
X161750000Y-95050000D01*
X159170000Y-116450000D02*
X161750000Y-116450000D01*
X144680000Y-101960000D02*
X144680000Y-99380000D01*
X144680000Y-109540000D02*
X144680000Y-112120000D01*
X166080000Y-101960000D02*
X166080000Y-99380000D01*
X166080000Y-109540000D02*
X166080000Y-112120000D01*
X156670000Y-95050000D02*
X154090000Y-95050000D01*
X156670000Y-116450000D02*
X154090000Y-116450000D01*
X144680000Y-104460000D02*
X144680000Y-107040000D01*
X166080000Y-107040000D02*
X166080000Y-104460000D01*
D11*
G04 #@! TO.C,C4*
X150767491Y-126089287D02*
X150767491Y-125566783D01*
X152187491Y-126089287D02*
X152187491Y-125566783D01*
G04 #@! TO.C,C1*
X144195557Y-136288779D02*
X143673053Y-136288779D01*
X144195557Y-134868779D02*
X143673053Y-134868779D01*
G04 #@! TO.C,C2*
X141173053Y-143288779D02*
X141695557Y-143288779D01*
X141173053Y-141868779D02*
X141695557Y-141868779D01*
G04 #@! TO.C,C3*
X156463748Y-111290000D02*
X156986252Y-111290000D01*
X156463748Y-112710000D02*
X156986252Y-112710000D01*
G04 #@! TO.C,C5*
X143767491Y-123066783D02*
X143767491Y-123589287D01*
X145187491Y-123066783D02*
X145187491Y-123589287D01*
G04 #@! TO.C,C6*
X161631221Y-126195557D02*
X161631221Y-125673053D01*
X160211221Y-126195557D02*
X160211221Y-125673053D01*
G04 #@! TO.C,C7*
X154631221Y-123173053D02*
X154631221Y-123695557D01*
X153211221Y-123173053D02*
X153211221Y-123695557D01*
G04 #@! TO.C,C8*
X156640000Y-99702064D02*
X156640000Y-98497936D01*
X159360000Y-99702064D02*
X159360000Y-98497936D01*
G04 #@! TO.C,C9*
X171131221Y-126195557D02*
X171131221Y-125673053D01*
X169711221Y-126195557D02*
X169711221Y-125673053D01*
G04 #@! TO.C,C10*
X164131221Y-123123053D02*
X164131221Y-123645557D01*
X162711221Y-123123053D02*
X162711221Y-123645557D01*
G04 #@! TO.C,C11*
X161640000Y-102746936D02*
X161640000Y-103951064D01*
X164360000Y-102746936D02*
X164360000Y-103951064D01*
G04 #@! TO.C,D1*
X163150000Y-148500000D02*
X164850000Y-148500000D01*
X164850000Y-148500000D02*
X164850000Y-145950000D01*
X163150000Y-148500000D02*
X163150000Y-145950000D01*
G04 #@! TO.C,D2*
X147680000Y-112560000D02*
X149680000Y-112560000D01*
X149680000Y-112560000D02*
X149680000Y-108660000D01*
X147680000Y-112560000D02*
X147680000Y-108660000D01*
G04 #@! TO.C,J1*
X169840000Y-139710000D02*
X167740000Y-139710000D01*
X167740000Y-139710000D02*
X167740000Y-137260000D01*
X167740000Y-137260000D02*
X165850000Y-137260000D01*
X169840000Y-130490000D02*
X167740000Y-130490000D01*
X167740000Y-130490000D02*
X167740000Y-132940000D01*
X174160000Y-139710000D02*
X175460000Y-139710000D01*
X175460000Y-139710000D02*
X175460000Y-130490000D01*
X175460000Y-130490000D02*
X174160000Y-130490000D01*
G04 #@! TO.C,J2*
X143410000Y-104850000D02*
X142910000Y-105100000D01*
X143410000Y-105350000D02*
X143410000Y-104850000D01*
X142910000Y-105100000D02*
X143410000Y-105350000D01*
G04 #@! TO.C,J3*
X139170000Y-131370000D02*
X141830000Y-131370000D01*
X139170000Y-128770000D02*
X139170000Y-131370000D01*
X141830000Y-128770000D02*
X141830000Y-131370000D01*
X139170000Y-128770000D02*
X141830000Y-128770000D01*
X139170000Y-127500000D02*
X139170000Y-126170000D01*
X139170000Y-126170000D02*
X140500000Y-126170000D01*
G04 #@! TO.C,J4*
X168290000Y-105100000D02*
X167790000Y-104850000D01*
X167790000Y-104850000D02*
X167790000Y-105350000D01*
X167790000Y-105350000D02*
X168290000Y-105100000D01*
G04 #@! TO.C,K1*
X155700000Y-148900000D02*
X162300000Y-148900000D01*
X146700000Y-148900000D02*
X153300000Y-148900000D01*
X146700000Y-148900000D02*
X146700000Y-129100000D01*
X146700000Y-129100000D02*
X162300000Y-129100000D01*
X162300000Y-129100000D02*
X162300000Y-148900000D01*
X158700000Y-133350000D02*
X156250000Y-133350000D01*
X150300000Y-133350000D02*
X152800000Y-133350000D01*
X160550000Y-143950000D02*
X160550000Y-141450000D01*
X154550000Y-144850000D02*
X154550000Y-145650000D01*
X148550000Y-141450000D02*
X148550000Y-143950000D01*
X154550000Y-138050000D02*
X154550000Y-136550000D01*
X154550000Y-136550000D02*
X152050000Y-131950000D01*
X158150000Y-138050000D02*
X158150000Y-144850000D01*
X154550000Y-138050000D02*
X158150000Y-138050000D01*
X154550000Y-144850000D02*
X158150000Y-144850000D01*
X148550000Y-141450000D02*
X152750000Y-141450000D01*
X156350000Y-141450000D02*
X160550000Y-141450000D01*
X156350000Y-139450000D02*
X152750000Y-143450000D01*
X156350000Y-143450000D02*
X152750000Y-143450000D01*
X152750000Y-143450000D02*
X152750000Y-139450000D01*
X152750000Y-139450000D02*
X156350000Y-139450000D01*
X156350000Y-139450000D02*
X156350000Y-143450000D01*
G04 #@! TO.C,L1*
X141248053Y-137368779D02*
X144020557Y-137368779D01*
X141248053Y-140788779D02*
X144020557Y-140788779D01*
G04 #@! TO.C,L2*
X146267491Y-123191783D02*
X146267491Y-125964287D01*
X149687491Y-123191783D02*
X149687491Y-125964287D01*
G04 #@! TO.C,L3*
X155711221Y-126020557D02*
X155711221Y-123248053D01*
X159131221Y-126020557D02*
X159131221Y-123248053D01*
G04 #@! TO.C,L4*
X168631221Y-126070557D02*
X168631221Y-123298053D01*
X165211221Y-126070557D02*
X165211221Y-123298053D01*
G04 #@! TO.C,Q1*
X167650000Y-140050000D02*
X167650000Y-142450000D01*
X167650000Y-142450000D02*
X166600000Y-142450000D01*
X164350000Y-140650000D02*
X164350000Y-142450000D01*
X164350000Y-142450000D02*
X165400000Y-142450000D01*
G04 #@! TO.C,Q2*
X151400000Y-111270000D02*
X152450000Y-111270000D01*
X151400000Y-109470000D02*
X151400000Y-111270000D01*
X154700000Y-111270000D02*
X153650000Y-111270000D01*
X154700000Y-108870000D02*
X154700000Y-111270000D01*
G04 #@! TO.C,R1*
X139790000Y-122286252D02*
X139790000Y-121763748D01*
X141210000Y-122286252D02*
X141210000Y-121763748D01*
G04 #@! TO.C,R2*
X154973748Y-114760000D02*
X155496252Y-114760000D01*
X154973748Y-113340000D02*
X155496252Y-113340000D01*
G04 #@! TO.C,U1*
X158160000Y-108700000D02*
X158160000Y-106800000D01*
X155840000Y-107300000D02*
X155840000Y-108700000D01*
G04 #@! TO.C,U2*
X157750000Y-102990000D02*
X156350000Y-102990000D01*
X156350000Y-105310000D02*
X158250000Y-105310000D01*
G04 #@! TO.C,U3*
X161015000Y-97700000D02*
X161015000Y-99600000D01*
X163335000Y-99100000D02*
X163335000Y-97700000D01*
G04 #@! TO.C,REF\002A\002A*
D10*
X154046666Y-93852380D02*
X153713333Y-93376190D01*
X153475238Y-93852380D02*
X153475238Y-92852380D01*
X153856190Y-92852380D01*
X153951428Y-92900000D01*
X153999047Y-92947619D01*
X154046666Y-93042857D01*
X154046666Y-93185714D01*
X153999047Y-93280952D01*
X153951428Y-93328571D01*
X153856190Y-93376190D01*
X153475238Y-93376190D01*
X154475238Y-93328571D02*
X154808571Y-93328571D01*
X154951428Y-93852380D02*
X154475238Y-93852380D01*
X154475238Y-92852380D01*
X154951428Y-92852380D01*
X155713333Y-93328571D02*
X155380000Y-93328571D01*
X155380000Y-93852380D02*
X155380000Y-92852380D01*
X155856190Y-92852380D01*
X156380000Y-92852380D02*
X156380000Y-93090476D01*
X156141904Y-92995238D02*
X156380000Y-93090476D01*
X156618095Y-92995238D01*
X156237142Y-93280952D02*
X156380000Y-93090476D01*
X156522857Y-93280952D01*
X157141904Y-92852380D02*
X157141904Y-93090476D01*
X156903809Y-92995238D02*
X157141904Y-93090476D01*
X157380000Y-92995238D01*
X156999047Y-93280952D02*
X157141904Y-93090476D01*
X157284761Y-93280952D01*
G04 #@! TO.C,C4*
X151857142Y-123166666D02*
X151904761Y-123214285D01*
X151952380Y-123357142D01*
X151952380Y-123452380D01*
X151904761Y-123595238D01*
X151809523Y-123690476D01*
X151714285Y-123738095D01*
X151523809Y-123785714D01*
X151380952Y-123785714D01*
X151190476Y-123738095D01*
X151095238Y-123690476D01*
X151000000Y-123595238D01*
X150952380Y-123452380D01*
X150952380Y-123357142D01*
X151000000Y-123214285D01*
X151047619Y-123166666D01*
X151285714Y-122309523D02*
X151952380Y-122309523D01*
X150904761Y-122547619D02*
X151619047Y-122785714D01*
X151619047Y-122166666D01*
G04 #@! TO.C,C1*
X140833333Y-135857142D02*
X140785714Y-135904761D01*
X140642857Y-135952380D01*
X140547619Y-135952380D01*
X140404761Y-135904761D01*
X140309523Y-135809523D01*
X140261904Y-135714285D01*
X140214285Y-135523809D01*
X140214285Y-135380952D01*
X140261904Y-135190476D01*
X140309523Y-135095238D01*
X140404761Y-135000000D01*
X140547619Y-134952380D01*
X140642857Y-134952380D01*
X140785714Y-135000000D01*
X140833333Y-135047619D01*
X141785714Y-135952380D02*
X141214285Y-135952380D01*
X141500000Y-135952380D02*
X141500000Y-134952380D01*
X141404761Y-135095238D01*
X141309523Y-135190476D01*
X141214285Y-135238095D01*
G04 #@! TO.C,C2*
X144333333Y-142857142D02*
X144285714Y-142904761D01*
X144142857Y-142952380D01*
X144047619Y-142952380D01*
X143904761Y-142904761D01*
X143809523Y-142809523D01*
X143761904Y-142714285D01*
X143714285Y-142523809D01*
X143714285Y-142380952D01*
X143761904Y-142190476D01*
X143809523Y-142095238D01*
X143904761Y-142000000D01*
X144047619Y-141952380D01*
X144142857Y-141952380D01*
X144285714Y-142000000D01*
X144333333Y-142047619D01*
X144714285Y-142047619D02*
X144761904Y-142000000D01*
X144857142Y-141952380D01*
X145095238Y-141952380D01*
X145190476Y-142000000D01*
X145238095Y-142047619D01*
X145285714Y-142142857D01*
X145285714Y-142238095D01*
X145238095Y-142380952D01*
X144666666Y-142952380D01*
X145285714Y-142952380D01*
G04 #@! TO.C,C3*
X159333333Y-112357142D02*
X159285714Y-112404761D01*
X159142857Y-112452380D01*
X159047619Y-112452380D01*
X158904761Y-112404761D01*
X158809523Y-112309523D01*
X158761904Y-112214285D01*
X158714285Y-112023809D01*
X158714285Y-111880952D01*
X158761904Y-111690476D01*
X158809523Y-111595238D01*
X158904761Y-111500000D01*
X159047619Y-111452380D01*
X159142857Y-111452380D01*
X159285714Y-111500000D01*
X159333333Y-111547619D01*
X159666666Y-111452380D02*
X160285714Y-111452380D01*
X159952380Y-111833333D01*
X160095238Y-111833333D01*
X160190476Y-111880952D01*
X160238095Y-111928571D01*
X160285714Y-112023809D01*
X160285714Y-112261904D01*
X160238095Y-112357142D01*
X160190476Y-112404761D01*
X160095238Y-112452380D01*
X159809523Y-112452380D01*
X159714285Y-112404761D01*
X159666666Y-112357142D01*
G04 #@! TO.C,C5*
X144857142Y-126666666D02*
X144904761Y-126714285D01*
X144952380Y-126857142D01*
X144952380Y-126952380D01*
X144904761Y-127095238D01*
X144809523Y-127190476D01*
X144714285Y-127238095D01*
X144523809Y-127285714D01*
X144380952Y-127285714D01*
X144190476Y-127238095D01*
X144095238Y-127190476D01*
X144000000Y-127095238D01*
X143952380Y-126952380D01*
X143952380Y-126857142D01*
X144000000Y-126714285D01*
X144047619Y-126666666D01*
X143952380Y-125761904D02*
X143952380Y-126238095D01*
X144428571Y-126285714D01*
X144380952Y-126238095D01*
X144333333Y-126142857D01*
X144333333Y-125904761D01*
X144380952Y-125809523D01*
X144428571Y-125761904D01*
X144523809Y-125714285D01*
X144761904Y-125714285D01*
X144857142Y-125761904D01*
X144904761Y-125809523D01*
X144952380Y-125904761D01*
X144952380Y-126142857D01*
X144904761Y-126238095D01*
X144857142Y-126285714D01*
G04 #@! TO.C,C6*
X161278363Y-123075971D02*
X161325982Y-123123590D01*
X161373601Y-123266447D01*
X161373601Y-123361685D01*
X161325982Y-123504543D01*
X161230744Y-123599781D01*
X161135506Y-123647400D01*
X160945030Y-123695019D01*
X160802173Y-123695019D01*
X160611697Y-123647400D01*
X160516459Y-123599781D01*
X160421221Y-123504543D01*
X160373601Y-123361685D01*
X160373601Y-123266447D01*
X160421221Y-123123590D01*
X160468840Y-123075971D01*
X160373601Y-122218828D02*
X160373601Y-122409305D01*
X160421221Y-122504543D01*
X160468840Y-122552162D01*
X160611697Y-122647400D01*
X160802173Y-122695019D01*
X161183125Y-122695019D01*
X161278363Y-122647400D01*
X161325982Y-122599781D01*
X161373601Y-122504543D01*
X161373601Y-122314066D01*
X161325982Y-122218828D01*
X161278363Y-122171209D01*
X161183125Y-122123590D01*
X160945030Y-122123590D01*
X160849792Y-122171209D01*
X160802173Y-122218828D01*
X160754554Y-122314066D01*
X160754554Y-122504543D01*
X160802173Y-122599781D01*
X160849792Y-122647400D01*
X160945030Y-122695019D01*
G04 #@! TO.C,C7*
X154278363Y-120625971D02*
X154325982Y-120673590D01*
X154373601Y-120816447D01*
X154373601Y-120911685D01*
X154325982Y-121054543D01*
X154230744Y-121149781D01*
X154135506Y-121197400D01*
X153945030Y-121245019D01*
X153802173Y-121245019D01*
X153611697Y-121197400D01*
X153516459Y-121149781D01*
X153421221Y-121054543D01*
X153373601Y-120911685D01*
X153373601Y-120816447D01*
X153421221Y-120673590D01*
X153468840Y-120625971D01*
X153373601Y-120292638D02*
X153373601Y-119625971D01*
X154373601Y-120054543D01*
G04 #@! TO.C,C8*
X156077142Y-99266666D02*
X156124761Y-99314285D01*
X156172380Y-99457142D01*
X156172380Y-99552380D01*
X156124761Y-99695238D01*
X156029523Y-99790476D01*
X155934285Y-99838095D01*
X155743809Y-99885714D01*
X155600952Y-99885714D01*
X155410476Y-99838095D01*
X155315238Y-99790476D01*
X155220000Y-99695238D01*
X155172380Y-99552380D01*
X155172380Y-99457142D01*
X155220000Y-99314285D01*
X155267619Y-99266666D01*
X155600952Y-98695238D02*
X155553333Y-98790476D01*
X155505714Y-98838095D01*
X155410476Y-98885714D01*
X155362857Y-98885714D01*
X155267619Y-98838095D01*
X155220000Y-98790476D01*
X155172380Y-98695238D01*
X155172380Y-98504761D01*
X155220000Y-98409523D01*
X155267619Y-98361904D01*
X155362857Y-98314285D01*
X155410476Y-98314285D01*
X155505714Y-98361904D01*
X155553333Y-98409523D01*
X155600952Y-98504761D01*
X155600952Y-98695238D01*
X155648571Y-98790476D01*
X155696190Y-98838095D01*
X155791428Y-98885714D01*
X155981904Y-98885714D01*
X156077142Y-98838095D01*
X156124761Y-98790476D01*
X156172380Y-98695238D01*
X156172380Y-98504761D01*
X156124761Y-98409523D01*
X156077142Y-98361904D01*
X155981904Y-98314285D01*
X155791428Y-98314285D01*
X155696190Y-98361904D01*
X155648571Y-98409523D01*
X155600952Y-98504761D01*
G04 #@! TO.C,C9*
X170778363Y-123075971D02*
X170825982Y-123123590D01*
X170873601Y-123266447D01*
X170873601Y-123361685D01*
X170825982Y-123504543D01*
X170730744Y-123599781D01*
X170635506Y-123647400D01*
X170445030Y-123695019D01*
X170302173Y-123695019D01*
X170111697Y-123647400D01*
X170016459Y-123599781D01*
X169921221Y-123504543D01*
X169873601Y-123361685D01*
X169873601Y-123266447D01*
X169921221Y-123123590D01*
X169968840Y-123075971D01*
X170873601Y-122599781D02*
X170873601Y-122409305D01*
X170825982Y-122314066D01*
X170778363Y-122266447D01*
X170635506Y-122171209D01*
X170445030Y-122123590D01*
X170064078Y-122123590D01*
X169968840Y-122171209D01*
X169921221Y-122218828D01*
X169873601Y-122314066D01*
X169873601Y-122504543D01*
X169921221Y-122599781D01*
X169968840Y-122647400D01*
X170064078Y-122695019D01*
X170302173Y-122695019D01*
X170397411Y-122647400D01*
X170445030Y-122599781D01*
X170492649Y-122504543D01*
X170492649Y-122314066D01*
X170445030Y-122218828D01*
X170397411Y-122171209D01*
X170302173Y-122123590D01*
G04 #@! TO.C,C10*
X163778363Y-127552162D02*
X163825982Y-127599781D01*
X163873601Y-127742638D01*
X163873601Y-127837876D01*
X163825982Y-127980733D01*
X163730744Y-128075971D01*
X163635506Y-128123590D01*
X163445030Y-128171209D01*
X163302173Y-128171209D01*
X163111697Y-128123590D01*
X163016459Y-128075971D01*
X162921221Y-127980733D01*
X162873601Y-127837876D01*
X162873601Y-127742638D01*
X162921221Y-127599781D01*
X162968840Y-127552162D01*
X163873601Y-126599781D02*
X163873601Y-127171209D01*
X163873601Y-126885495D02*
X162873601Y-126885495D01*
X163016459Y-126980733D01*
X163111697Y-127075971D01*
X163159316Y-127171209D01*
X162873601Y-125980733D02*
X162873601Y-125885495D01*
X162921221Y-125790257D01*
X162968840Y-125742638D01*
X163064078Y-125695019D01*
X163254554Y-125647400D01*
X163492649Y-125647400D01*
X163683125Y-125695019D01*
X163778363Y-125742638D01*
X163825982Y-125790257D01*
X163873601Y-125885495D01*
X163873601Y-125980733D01*
X163825982Y-126075971D01*
X163778363Y-126123590D01*
X163683125Y-126171209D01*
X163492649Y-126218828D01*
X163254554Y-126218828D01*
X163064078Y-126171209D01*
X162968840Y-126123590D01*
X162921221Y-126075971D01*
X162873601Y-125980733D01*
G04 #@! TO.C,C11*
X163357142Y-107642857D02*
X163404761Y-107690476D01*
X163452380Y-107833333D01*
X163452380Y-107928571D01*
X163404761Y-108071428D01*
X163309523Y-108166666D01*
X163214285Y-108214285D01*
X163023809Y-108261904D01*
X162880952Y-108261904D01*
X162690476Y-108214285D01*
X162595238Y-108166666D01*
X162500000Y-108071428D01*
X162452380Y-107928571D01*
X162452380Y-107833333D01*
X162500000Y-107690476D01*
X162547619Y-107642857D01*
X163452380Y-106690476D02*
X163452380Y-107261904D01*
X163452380Y-106976190D02*
X162452380Y-106976190D01*
X162595238Y-107071428D01*
X162690476Y-107166666D01*
X162738095Y-107261904D01*
X163452380Y-105738095D02*
X163452380Y-106309523D01*
X163452380Y-106023809D02*
X162452380Y-106023809D01*
X162595238Y-106119047D01*
X162690476Y-106214285D01*
X162738095Y-106309523D01*
G04 #@! TO.C,D1*
X162602380Y-147738095D02*
X161602380Y-147738095D01*
X161602380Y-147500000D01*
X161650000Y-147357142D01*
X161745238Y-147261904D01*
X161840476Y-147214285D01*
X162030952Y-147166666D01*
X162173809Y-147166666D01*
X162364285Y-147214285D01*
X162459523Y-147261904D01*
X162554761Y-147357142D01*
X162602380Y-147500000D01*
X162602380Y-147738095D01*
X162602380Y-146214285D02*
X162602380Y-146785714D01*
X162602380Y-146500000D02*
X161602380Y-146500000D01*
X161745238Y-146595238D01*
X161840476Y-146690476D01*
X161888095Y-146785714D01*
G04 #@! TO.C,D2*
X147132380Y-111048095D02*
X146132380Y-111048095D01*
X146132380Y-110810000D01*
X146180000Y-110667142D01*
X146275238Y-110571904D01*
X146370476Y-110524285D01*
X146560952Y-110476666D01*
X146703809Y-110476666D01*
X146894285Y-110524285D01*
X146989523Y-110571904D01*
X147084761Y-110667142D01*
X147132380Y-110810000D01*
X147132380Y-111048095D01*
X146227619Y-110095714D02*
X146180000Y-110048095D01*
X146132380Y-109952857D01*
X146132380Y-109714761D01*
X146180000Y-109619523D01*
X146227619Y-109571904D01*
X146322857Y-109524285D01*
X146418095Y-109524285D01*
X146560952Y-109571904D01*
X147132380Y-110143333D01*
X147132380Y-109524285D01*
G04 #@! TO.C,J1*
X164107380Y-135433333D02*
X164821666Y-135433333D01*
X164964523Y-135480952D01*
X165059761Y-135576190D01*
X165107380Y-135719047D01*
X165107380Y-135814285D01*
X165107380Y-134433333D02*
X165107380Y-135004761D01*
X165107380Y-134719047D02*
X164107380Y-134719047D01*
X164250238Y-134814285D01*
X164345476Y-134909523D01*
X164393095Y-135004761D01*
G04 #@! TO.C,J2*
X143112380Y-108433333D02*
X143826666Y-108433333D01*
X143969523Y-108480952D01*
X144064761Y-108576190D01*
X144112380Y-108719047D01*
X144112380Y-108814285D01*
X143207619Y-108004761D02*
X143160000Y-107957142D01*
X143112380Y-107861904D01*
X143112380Y-107623809D01*
X143160000Y-107528571D01*
X143207619Y-107480952D01*
X143302857Y-107433333D01*
X143398095Y-107433333D01*
X143540952Y-107480952D01*
X144112380Y-108052380D01*
X144112380Y-107433333D01*
G04 #@! TO.C,J3*
X140166666Y-124622380D02*
X140166666Y-125336666D01*
X140119047Y-125479523D01*
X140023809Y-125574761D01*
X139880952Y-125622380D01*
X139785714Y-125622380D01*
X140547619Y-124622380D02*
X141166666Y-124622380D01*
X140833333Y-125003333D01*
X140976190Y-125003333D01*
X141071428Y-125050952D01*
X141119047Y-125098571D01*
X141166666Y-125193809D01*
X141166666Y-125431904D01*
X141119047Y-125527142D01*
X141071428Y-125574761D01*
X140976190Y-125622380D01*
X140690476Y-125622380D01*
X140595238Y-125574761D01*
X140547619Y-125527142D01*
G04 #@! TO.C,J4*
X166992380Y-102433333D02*
X167706666Y-102433333D01*
X167849523Y-102480952D01*
X167944761Y-102576190D01*
X167992380Y-102719047D01*
X167992380Y-102814285D01*
X167325714Y-101528571D02*
X167992380Y-101528571D01*
X166944761Y-101766666D02*
X167659047Y-102004761D01*
X167659047Y-101385714D01*
G04 #@! TO.C,K1*
X164152380Y-140138095D02*
X163152380Y-140138095D01*
X164152380Y-139566666D02*
X163580952Y-139995238D01*
X163152380Y-139566666D02*
X163723809Y-140138095D01*
X164152380Y-138614285D02*
X164152380Y-139185714D01*
X164152380Y-138900000D02*
X163152380Y-138900000D01*
X163295238Y-138995238D01*
X163390476Y-139090476D01*
X163438095Y-139185714D01*
G04 #@! TO.C,L1*
X138333333Y-139452380D02*
X137857142Y-139452380D01*
X137857142Y-138452380D01*
X139190476Y-139452380D02*
X138619047Y-139452380D01*
X138904761Y-139452380D02*
X138904761Y-138452380D01*
X138809523Y-138595238D01*
X138714285Y-138690476D01*
X138619047Y-138738095D01*
G04 #@! TO.C,L2*
X148452380Y-129166666D02*
X148452380Y-129642857D01*
X147452380Y-129642857D01*
X147547619Y-128880952D02*
X147500000Y-128833333D01*
X147452380Y-128738095D01*
X147452380Y-128500000D01*
X147500000Y-128404761D01*
X147547619Y-128357142D01*
X147642857Y-128309523D01*
X147738095Y-128309523D01*
X147880952Y-128357142D01*
X148452380Y-128928571D01*
X148452380Y-128309523D01*
G04 #@! TO.C,L3*
X157873601Y-129075971D02*
X157873601Y-129552162D01*
X156873601Y-129552162D01*
X156873601Y-128837876D02*
X156873601Y-128218828D01*
X157254554Y-128552162D01*
X157254554Y-128409305D01*
X157302173Y-128314066D01*
X157349792Y-128266447D01*
X157445030Y-128218828D01*
X157683125Y-128218828D01*
X157778363Y-128266447D01*
X157825982Y-128314066D01*
X157873601Y-128409305D01*
X157873601Y-128695019D01*
X157825982Y-128790257D01*
X157778363Y-128837876D01*
G04 #@! TO.C,L4*
X167373601Y-129075971D02*
X167373601Y-129552162D01*
X166373601Y-129552162D01*
X166706935Y-128314066D02*
X167373601Y-128314066D01*
X166325982Y-128552162D02*
X167040268Y-128790257D01*
X167040268Y-128171209D01*
G04 #@! TO.C,Q1*
X169047619Y-141595238D02*
X169000000Y-141690476D01*
X168904761Y-141785714D01*
X168761904Y-141928571D01*
X168714285Y-142023809D01*
X168714285Y-142119047D01*
X168952380Y-142071428D02*
X168904761Y-142166666D01*
X168809523Y-142261904D01*
X168619047Y-142309523D01*
X168285714Y-142309523D01*
X168095238Y-142261904D01*
X168000000Y-142166666D01*
X167952380Y-142071428D01*
X167952380Y-141880952D01*
X168000000Y-141785714D01*
X168095238Y-141690476D01*
X168285714Y-141642857D01*
X168619047Y-141642857D01*
X168809523Y-141690476D01*
X168904761Y-141785714D01*
X168952380Y-141880952D01*
X168952380Y-142071428D01*
X168952380Y-140690476D02*
X168952380Y-141261904D01*
X168952380Y-140976190D02*
X167952380Y-140976190D01*
X168095238Y-141071428D01*
X168190476Y-141166666D01*
X168238095Y-141261904D01*
G04 #@! TO.C,Q2*
X156097619Y-110415238D02*
X156050000Y-110510476D01*
X155954761Y-110605714D01*
X155811904Y-110748571D01*
X155764285Y-110843809D01*
X155764285Y-110939047D01*
X156002380Y-110891428D02*
X155954761Y-110986666D01*
X155859523Y-111081904D01*
X155669047Y-111129523D01*
X155335714Y-111129523D01*
X155145238Y-111081904D01*
X155050000Y-110986666D01*
X155002380Y-110891428D01*
X155002380Y-110700952D01*
X155050000Y-110605714D01*
X155145238Y-110510476D01*
X155335714Y-110462857D01*
X155669047Y-110462857D01*
X155859523Y-110510476D01*
X155954761Y-110605714D01*
X156002380Y-110700952D01*
X156002380Y-110891428D01*
X155097619Y-110081904D02*
X155050000Y-110034285D01*
X155002380Y-109939047D01*
X155002380Y-109700952D01*
X155050000Y-109605714D01*
X155097619Y-109558095D01*
X155192857Y-109510476D01*
X155288095Y-109510476D01*
X155430952Y-109558095D01*
X156002380Y-110129523D01*
X156002380Y-109510476D01*
G04 #@! TO.C,R1*
X139302380Y-122191666D02*
X138826190Y-122525000D01*
X139302380Y-122763095D02*
X138302380Y-122763095D01*
X138302380Y-122382142D01*
X138350000Y-122286904D01*
X138397619Y-122239285D01*
X138492857Y-122191666D01*
X138635714Y-122191666D01*
X138730952Y-122239285D01*
X138778571Y-122286904D01*
X138826190Y-122382142D01*
X138826190Y-122763095D01*
X139302380Y-121239285D02*
X139302380Y-121810714D01*
X139302380Y-121525000D02*
X138302380Y-121525000D01*
X138445238Y-121620238D01*
X138540476Y-121715476D01*
X138588095Y-121810714D01*
G04 #@! TO.C,R2*
X152333333Y-114452380D02*
X152000000Y-113976190D01*
X151761904Y-114452380D02*
X151761904Y-113452380D01*
X152142857Y-113452380D01*
X152238095Y-113500000D01*
X152285714Y-113547619D01*
X152333333Y-113642857D01*
X152333333Y-113785714D01*
X152285714Y-113880952D01*
X152238095Y-113928571D01*
X152142857Y-113976190D01*
X151761904Y-113976190D01*
X152714285Y-113547619D02*
X152761904Y-113500000D01*
X152857142Y-113452380D01*
X153095238Y-113452380D01*
X153190476Y-113500000D01*
X153238095Y-113547619D01*
X153285714Y-113642857D01*
X153285714Y-113738095D01*
X153238095Y-113880952D01*
X152666666Y-114452380D01*
X153285714Y-114452380D01*
G04 #@! TO.C,U1*
X158738095Y-107452380D02*
X158738095Y-108261904D01*
X158785714Y-108357142D01*
X158833333Y-108404761D01*
X158928571Y-108452380D01*
X159119047Y-108452380D01*
X159214285Y-108404761D01*
X159261904Y-108357142D01*
X159309523Y-108261904D01*
X159309523Y-107452380D01*
X160309523Y-108452380D02*
X159738095Y-108452380D01*
X160023809Y-108452380D02*
X160023809Y-107452380D01*
X159928571Y-107595238D01*
X159833333Y-107690476D01*
X159738095Y-107738095D01*
G04 #@! TO.C,U2*
X153738095Y-103452380D02*
X153738095Y-104261904D01*
X153785714Y-104357142D01*
X153833333Y-104404761D01*
X153928571Y-104452380D01*
X154119047Y-104452380D01*
X154214285Y-104404761D01*
X154261904Y-104357142D01*
X154309523Y-104261904D01*
X154309523Y-103452380D01*
X154738095Y-103547619D02*
X154785714Y-103500000D01*
X154880952Y-103452380D01*
X155119047Y-103452380D01*
X155214285Y-103500000D01*
X155261904Y-103547619D01*
X155309523Y-103642857D01*
X155309523Y-103738095D01*
X155261904Y-103880952D01*
X154690476Y-104452380D01*
X155309523Y-104452380D01*
G04 #@! TO.C,U3*
X159627380Y-99161904D02*
X160436904Y-99161904D01*
X160532142Y-99114285D01*
X160579761Y-99066666D01*
X160627380Y-98971428D01*
X160627380Y-98780952D01*
X160579761Y-98685714D01*
X160532142Y-98638095D01*
X160436904Y-98590476D01*
X159627380Y-98590476D01*
X159627380Y-98209523D02*
X159627380Y-97590476D01*
X160008333Y-97923809D01*
X160008333Y-97780952D01*
X160055952Y-97685714D01*
X160103571Y-97638095D01*
X160198809Y-97590476D01*
X160436904Y-97590476D01*
X160532142Y-97638095D01*
X160579761Y-97685714D01*
X160627380Y-97780952D01*
X160627380Y-98066666D01*
X160579761Y-98161904D01*
X160532142Y-98209523D01*
G04 #@! TD*
M02*
