G04 #@! TF.GenerationSoftware,KiCad,Pcbnew,(5.0.1-3-g963ef8bb5)*
G04 #@! TF.CreationDate,2018-11-12T17:33:24-05:00*
G04 #@! TF.ProjectId,Noise Source,4E6F69736520536F757263652E6B6963,rev?*
G04 #@! TF.SameCoordinates,Original*
G04 #@! TF.FileFunction,Soldermask,Bot*
G04 #@! TF.FilePolarity,Negative*
%FSLAX46Y46*%
G04 Gerber Fmt 4.6, Leading zero omitted, Abs format (unit mm)*
G04 Created by KiCad (PCBNEW (5.0.1-3-g963ef8bb5)) date Monday, November 12, 2018 at 05:33:24 PM*
%MOMM*%
%LPD*%
G01*
G04 APERTURE LIST*
%ADD10C,0.100000*%
G04 APERTURE END LIST*
D10*
G36*
X154852527Y-145988736D02*
X154952410Y-146008604D01*
X155234674Y-146125521D01*
X155488705Y-146295259D01*
X155704741Y-146511295D01*
X155874479Y-146765326D01*
X155991396Y-147047590D01*
X156051000Y-147347240D01*
X156051000Y-147652760D01*
X155991396Y-147952410D01*
X155874479Y-148234674D01*
X155704741Y-148488705D01*
X155488705Y-148704741D01*
X155234674Y-148874479D01*
X154952410Y-148991396D01*
X154852527Y-149011264D01*
X154652762Y-149051000D01*
X154347238Y-149051000D01*
X154147473Y-149011264D01*
X154047590Y-148991396D01*
X153765326Y-148874479D01*
X153511295Y-148704741D01*
X153295259Y-148488705D01*
X153125521Y-148234674D01*
X153008604Y-147952410D01*
X152949000Y-147652760D01*
X152949000Y-147347240D01*
X153008604Y-147047590D01*
X153125521Y-146765326D01*
X153295259Y-146511295D01*
X153511295Y-146295259D01*
X153765326Y-146125521D01*
X154047590Y-146008604D01*
X154147473Y-145988736D01*
X154347238Y-145949000D01*
X154652762Y-145949000D01*
X154852527Y-145988736D01*
X154852527Y-145988736D01*
G37*
G36*
X148929485Y-144298996D02*
X148929487Y-144298997D01*
X148929488Y-144298997D01*
X149166255Y-144397069D01*
X149379342Y-144539449D01*
X149560551Y-144720658D01*
X149702931Y-144933745D01*
X149801004Y-145170515D01*
X149851000Y-145421861D01*
X149851000Y-145678139D01*
X149801004Y-145929485D01*
X149702931Y-146166255D01*
X149560551Y-146379342D01*
X149379342Y-146560551D01*
X149379339Y-146560553D01*
X149166255Y-146702931D01*
X148929488Y-146801003D01*
X148929487Y-146801003D01*
X148929485Y-146801004D01*
X148678139Y-146851000D01*
X148421861Y-146851000D01*
X148170515Y-146801004D01*
X148170513Y-146801003D01*
X148170512Y-146801003D01*
X147933745Y-146702931D01*
X147720661Y-146560553D01*
X147720658Y-146560551D01*
X147539449Y-146379342D01*
X147397069Y-146166255D01*
X147298996Y-145929485D01*
X147249000Y-145678139D01*
X147249000Y-145421861D01*
X147298996Y-145170515D01*
X147397069Y-144933745D01*
X147539449Y-144720658D01*
X147720658Y-144539449D01*
X147933745Y-144397069D01*
X148170512Y-144298997D01*
X148170513Y-144298997D01*
X148170515Y-144298996D01*
X148421861Y-144249000D01*
X148678139Y-144249000D01*
X148929485Y-144298996D01*
X148929485Y-144298996D01*
G37*
G36*
X160929485Y-144298996D02*
X160929487Y-144298997D01*
X160929488Y-144298997D01*
X161166255Y-144397069D01*
X161379342Y-144539449D01*
X161560551Y-144720658D01*
X161702931Y-144933745D01*
X161801004Y-145170515D01*
X161851000Y-145421861D01*
X161851000Y-145678139D01*
X161801004Y-145929485D01*
X161702931Y-146166255D01*
X161560551Y-146379342D01*
X161379342Y-146560551D01*
X161379339Y-146560553D01*
X161166255Y-146702931D01*
X160929488Y-146801003D01*
X160929487Y-146801003D01*
X160929485Y-146801004D01*
X160678139Y-146851000D01*
X160421861Y-146851000D01*
X160170515Y-146801004D01*
X160170513Y-146801003D01*
X160170512Y-146801003D01*
X159933745Y-146702931D01*
X159720661Y-146560553D01*
X159720658Y-146560551D01*
X159539449Y-146379342D01*
X159397069Y-146166255D01*
X159298996Y-145929485D01*
X159249000Y-145678139D01*
X159249000Y-145421861D01*
X159298996Y-145170515D01*
X159397069Y-144933745D01*
X159539449Y-144720658D01*
X159720658Y-144539449D01*
X159933745Y-144397069D01*
X160170512Y-144298997D01*
X160170513Y-144298997D01*
X160170515Y-144298996D01*
X160421861Y-144249000D01*
X160678139Y-144249000D01*
X160929485Y-144298996D01*
X160929485Y-144298996D01*
G37*
G36*
X160902527Y-131838736D02*
X161002410Y-131858604D01*
X161284674Y-131975521D01*
X161538705Y-132145259D01*
X161754741Y-132361295D01*
X161924479Y-132615326D01*
X162041396Y-132897590D01*
X162041396Y-132897591D01*
X162091055Y-133147240D01*
X162101000Y-133197240D01*
X162101000Y-133502760D01*
X162041396Y-133802410D01*
X161924479Y-134084674D01*
X161754741Y-134338705D01*
X161538705Y-134554741D01*
X161284674Y-134724479D01*
X161002410Y-134841396D01*
X160954127Y-134851000D01*
X160702762Y-134901000D01*
X160397238Y-134901000D01*
X160145873Y-134851000D01*
X160097590Y-134841396D01*
X159815326Y-134724479D01*
X159561295Y-134554741D01*
X159345259Y-134338705D01*
X159175521Y-134084674D01*
X159058604Y-133802410D01*
X158999000Y-133502760D01*
X158999000Y-133197240D01*
X159008946Y-133147240D01*
X159058604Y-132897591D01*
X159058604Y-132897590D01*
X159175521Y-132615326D01*
X159345259Y-132361295D01*
X159561295Y-132145259D01*
X159815326Y-131975521D01*
X160097590Y-131858604D01*
X160197473Y-131838736D01*
X160397238Y-131799000D01*
X160702762Y-131799000D01*
X160902527Y-131838736D01*
X160902527Y-131838736D01*
G37*
G36*
X148852527Y-131788736D02*
X148952410Y-131808604D01*
X149234674Y-131925521D01*
X149488705Y-132095259D01*
X149704741Y-132311295D01*
X149874479Y-132565326D01*
X149895190Y-132615328D01*
X149991396Y-132847591D01*
X150051000Y-133147238D01*
X150051000Y-133452762D01*
X150041054Y-133502762D01*
X149991396Y-133752410D01*
X149874479Y-134034674D01*
X149704741Y-134288705D01*
X149488705Y-134504741D01*
X149234674Y-134674479D01*
X148952410Y-134791396D01*
X148852527Y-134811264D01*
X148652762Y-134851000D01*
X148347238Y-134851000D01*
X148147473Y-134811264D01*
X148047590Y-134791396D01*
X147765326Y-134674479D01*
X147511295Y-134504741D01*
X147295259Y-134288705D01*
X147125521Y-134034674D01*
X147008604Y-133752410D01*
X146958946Y-133502762D01*
X146949000Y-133452762D01*
X146949000Y-133147238D01*
X147008604Y-132847591D01*
X147104810Y-132615328D01*
X147125521Y-132565326D01*
X147295259Y-132311295D01*
X147511295Y-132095259D01*
X147765326Y-131925521D01*
X148047590Y-131808604D01*
X148147473Y-131788736D01*
X148347238Y-131749000D01*
X148652762Y-131749000D01*
X148852527Y-131788736D01*
X148852527Y-131788736D01*
G37*
G36*
X140610442Y-129145518D02*
X140676627Y-129152037D01*
X140789853Y-129186384D01*
X140846467Y-129203557D01*
X140985087Y-129277652D01*
X141002991Y-129287222D01*
X141038729Y-129316552D01*
X141140186Y-129399814D01*
X141223448Y-129501271D01*
X141252778Y-129537009D01*
X141252779Y-129537011D01*
X141336443Y-129693533D01*
X141336443Y-129693534D01*
X141387963Y-129863373D01*
X141405359Y-130040000D01*
X141387963Y-130216627D01*
X141353616Y-130329853D01*
X141336443Y-130386467D01*
X141262348Y-130525087D01*
X141252778Y-130542991D01*
X141223448Y-130578729D01*
X141140186Y-130680186D01*
X141038729Y-130763448D01*
X141002991Y-130792778D01*
X141002989Y-130792779D01*
X140846467Y-130876443D01*
X140789853Y-130893616D01*
X140676627Y-130927963D01*
X140610442Y-130934482D01*
X140544260Y-130941000D01*
X140455740Y-130941000D01*
X140389558Y-130934482D01*
X140323373Y-130927963D01*
X140210147Y-130893616D01*
X140153533Y-130876443D01*
X139997011Y-130792779D01*
X139997009Y-130792778D01*
X139961271Y-130763448D01*
X139859814Y-130680186D01*
X139776552Y-130578729D01*
X139747222Y-130542991D01*
X139737652Y-130525087D01*
X139663557Y-130386467D01*
X139646384Y-130329853D01*
X139612037Y-130216627D01*
X139594641Y-130040000D01*
X139612037Y-129863373D01*
X139663557Y-129693534D01*
X139663557Y-129693533D01*
X139747221Y-129537011D01*
X139747222Y-129537009D01*
X139776552Y-129501271D01*
X139859814Y-129399814D01*
X139961271Y-129316552D01*
X139997009Y-129287222D01*
X140014913Y-129277652D01*
X140153533Y-129203557D01*
X140210147Y-129186384D01*
X140323373Y-129152037D01*
X140389558Y-129145518D01*
X140455740Y-129139000D01*
X140544260Y-129139000D01*
X140610442Y-129145518D01*
X140610442Y-129145518D01*
G37*
G36*
X141401000Y-128401000D02*
X139599000Y-128401000D01*
X139599000Y-126599000D01*
X141401000Y-126599000D01*
X141401000Y-128401000D01*
X141401000Y-128401000D01*
G37*
G36*
X148022812Y-115133624D02*
X148186784Y-115201544D01*
X148334354Y-115300147D01*
X148459853Y-115425646D01*
X148558456Y-115573216D01*
X148626376Y-115737188D01*
X148661000Y-115911259D01*
X148661000Y-116088741D01*
X148626376Y-116262812D01*
X148558456Y-116426784D01*
X148459853Y-116574354D01*
X148334354Y-116699853D01*
X148186784Y-116798456D01*
X148022812Y-116866376D01*
X147848741Y-116901000D01*
X147671259Y-116901000D01*
X147497188Y-116866376D01*
X147333216Y-116798456D01*
X147185646Y-116699853D01*
X147060147Y-116574354D01*
X146961544Y-116426784D01*
X146893624Y-116262812D01*
X146859000Y-116088741D01*
X146859000Y-115911259D01*
X146893624Y-115737188D01*
X146961544Y-115573216D01*
X147060147Y-115425646D01*
X147185646Y-115300147D01*
X147333216Y-115201544D01*
X147497188Y-115133624D01*
X147671259Y-115099000D01*
X147848741Y-115099000D01*
X148022812Y-115133624D01*
X148022812Y-115133624D01*
G37*
G36*
X163262812Y-115133624D02*
X163426784Y-115201544D01*
X163574354Y-115300147D01*
X163699853Y-115425646D01*
X163798456Y-115573216D01*
X163866376Y-115737188D01*
X163901000Y-115911259D01*
X163901000Y-116088741D01*
X163866376Y-116262812D01*
X163798456Y-116426784D01*
X163699853Y-116574354D01*
X163574354Y-116699853D01*
X163426784Y-116798456D01*
X163262812Y-116866376D01*
X163088741Y-116901000D01*
X162911259Y-116901000D01*
X162737188Y-116866376D01*
X162573216Y-116798456D01*
X162425646Y-116699853D01*
X162300147Y-116574354D01*
X162201544Y-116426784D01*
X162133624Y-116262812D01*
X162099000Y-116088741D01*
X162099000Y-115911259D01*
X162133624Y-115737188D01*
X162201544Y-115573216D01*
X162300147Y-115425646D01*
X162425646Y-115300147D01*
X162573216Y-115201544D01*
X162737188Y-115133624D01*
X162911259Y-115099000D01*
X163088741Y-115099000D01*
X163262812Y-115133624D01*
X163262812Y-115133624D01*
G37*
G36*
X158182812Y-115133624D02*
X158346784Y-115201544D01*
X158494354Y-115300147D01*
X158619853Y-115425646D01*
X158718456Y-115573216D01*
X158786376Y-115737188D01*
X158821000Y-115911259D01*
X158821000Y-116088741D01*
X158786376Y-116262812D01*
X158718456Y-116426784D01*
X158619853Y-116574354D01*
X158494354Y-116699853D01*
X158346784Y-116798456D01*
X158182812Y-116866376D01*
X158008741Y-116901000D01*
X157831259Y-116901000D01*
X157657188Y-116866376D01*
X157493216Y-116798456D01*
X157345646Y-116699853D01*
X157220147Y-116574354D01*
X157121544Y-116426784D01*
X157053624Y-116262812D01*
X157019000Y-116088741D01*
X157019000Y-115911259D01*
X157053624Y-115737188D01*
X157121544Y-115573216D01*
X157220147Y-115425646D01*
X157345646Y-115300147D01*
X157493216Y-115201544D01*
X157657188Y-115133624D01*
X157831259Y-115099000D01*
X158008741Y-115099000D01*
X158182812Y-115133624D01*
X158182812Y-115133624D01*
G37*
G36*
X153102812Y-115133624D02*
X153266784Y-115201544D01*
X153414354Y-115300147D01*
X153539853Y-115425646D01*
X153638456Y-115573216D01*
X153706376Y-115737188D01*
X153741000Y-115911259D01*
X153741000Y-116088741D01*
X153706376Y-116262812D01*
X153638456Y-116426784D01*
X153539853Y-116574354D01*
X153414354Y-116699853D01*
X153266784Y-116798456D01*
X153102812Y-116866376D01*
X152928741Y-116901000D01*
X152751259Y-116901000D01*
X152577188Y-116866376D01*
X152413216Y-116798456D01*
X152265646Y-116699853D01*
X152140147Y-116574354D01*
X152041544Y-116426784D01*
X151973624Y-116262812D01*
X151939000Y-116088741D01*
X151939000Y-115911259D01*
X151973624Y-115737188D01*
X152041544Y-115573216D01*
X152140147Y-115425646D01*
X152265646Y-115300147D01*
X152413216Y-115201544D01*
X152577188Y-115133624D01*
X152751259Y-115099000D01*
X152928741Y-115099000D01*
X153102812Y-115133624D01*
X153102812Y-115133624D01*
G37*
G36*
X165892812Y-112503624D02*
X166056784Y-112571544D01*
X166204354Y-112670147D01*
X166329853Y-112795646D01*
X166428456Y-112943216D01*
X166496376Y-113107188D01*
X166531000Y-113281259D01*
X166531000Y-113458741D01*
X166496376Y-113632812D01*
X166428456Y-113796784D01*
X166329853Y-113944354D01*
X166204354Y-114069853D01*
X166056784Y-114168456D01*
X165892812Y-114236376D01*
X165718741Y-114271000D01*
X165541259Y-114271000D01*
X165367188Y-114236376D01*
X165203216Y-114168456D01*
X165055646Y-114069853D01*
X164930147Y-113944354D01*
X164831544Y-113796784D01*
X164763624Y-113632812D01*
X164729000Y-113458741D01*
X164729000Y-113281259D01*
X164763624Y-113107188D01*
X164831544Y-112943216D01*
X164930147Y-112795646D01*
X165055646Y-112670147D01*
X165203216Y-112571544D01*
X165367188Y-112503624D01*
X165541259Y-112469000D01*
X165718741Y-112469000D01*
X165892812Y-112503624D01*
X165892812Y-112503624D01*
G37*
G36*
X145392812Y-112503624D02*
X145556784Y-112571544D01*
X145704354Y-112670147D01*
X145829853Y-112795646D01*
X145928456Y-112943216D01*
X145996376Y-113107188D01*
X146031000Y-113281259D01*
X146031000Y-113458741D01*
X145996376Y-113632812D01*
X145928456Y-113796784D01*
X145829853Y-113944354D01*
X145704354Y-114069853D01*
X145556784Y-114168456D01*
X145392812Y-114236376D01*
X145218741Y-114271000D01*
X145041259Y-114271000D01*
X144867188Y-114236376D01*
X144703216Y-114168456D01*
X144555646Y-114069853D01*
X144430147Y-113944354D01*
X144331544Y-113796784D01*
X144263624Y-113632812D01*
X144229000Y-113458741D01*
X144229000Y-113281259D01*
X144263624Y-113107188D01*
X144331544Y-112943216D01*
X144430147Y-112795646D01*
X144555646Y-112670147D01*
X144703216Y-112571544D01*
X144867188Y-112503624D01*
X145041259Y-112469000D01*
X145218741Y-112469000D01*
X145392812Y-112503624D01*
X145392812Y-112503624D01*
G37*
G36*
X174091000Y-110151000D02*
X168909000Y-110151000D01*
X168909000Y-108549000D01*
X174091000Y-108549000D01*
X174091000Y-110151000D01*
X174091000Y-110151000D01*
G37*
G36*
X142291000Y-110151000D02*
X137109000Y-110151000D01*
X137109000Y-108549000D01*
X142291000Y-108549000D01*
X142291000Y-110151000D01*
X142291000Y-110151000D01*
G37*
G36*
X165892812Y-107423624D02*
X166056784Y-107491544D01*
X166204354Y-107590147D01*
X166329853Y-107715646D01*
X166428456Y-107863216D01*
X166496376Y-108027188D01*
X166531000Y-108201259D01*
X166531000Y-108378741D01*
X166496376Y-108552812D01*
X166428456Y-108716784D01*
X166329853Y-108864354D01*
X166204354Y-108989853D01*
X166056784Y-109088456D01*
X165892812Y-109156376D01*
X165718741Y-109191000D01*
X165541259Y-109191000D01*
X165367188Y-109156376D01*
X165203216Y-109088456D01*
X165055646Y-108989853D01*
X164930147Y-108864354D01*
X164831544Y-108716784D01*
X164763624Y-108552812D01*
X164729000Y-108378741D01*
X164729000Y-108201259D01*
X164763624Y-108027188D01*
X164831544Y-107863216D01*
X164930147Y-107715646D01*
X165055646Y-107590147D01*
X165203216Y-107491544D01*
X165367188Y-107423624D01*
X165541259Y-107389000D01*
X165718741Y-107389000D01*
X165892812Y-107423624D01*
X165892812Y-107423624D01*
G37*
G36*
X145392812Y-107423624D02*
X145556784Y-107491544D01*
X145704354Y-107590147D01*
X145829853Y-107715646D01*
X145928456Y-107863216D01*
X145996376Y-108027188D01*
X146031000Y-108201259D01*
X146031000Y-108378741D01*
X145996376Y-108552812D01*
X145928456Y-108716784D01*
X145829853Y-108864354D01*
X145704354Y-108989853D01*
X145556784Y-109088456D01*
X145392812Y-109156376D01*
X145218741Y-109191000D01*
X145041259Y-109191000D01*
X144867188Y-109156376D01*
X144703216Y-109088456D01*
X144555646Y-108989853D01*
X144430147Y-108864354D01*
X144331544Y-108716784D01*
X144263624Y-108552812D01*
X144229000Y-108378741D01*
X144229000Y-108201259D01*
X144263624Y-108027188D01*
X144331544Y-107863216D01*
X144430147Y-107715646D01*
X144555646Y-107590147D01*
X144703216Y-107491544D01*
X144867188Y-107423624D01*
X145041259Y-107389000D01*
X145218741Y-107389000D01*
X145392812Y-107423624D01*
X145392812Y-107423624D01*
G37*
G36*
X145392812Y-102343624D02*
X145556784Y-102411544D01*
X145704354Y-102510147D01*
X145829853Y-102635646D01*
X145928456Y-102783216D01*
X145996376Y-102947188D01*
X146031000Y-103121259D01*
X146031000Y-103298741D01*
X145996376Y-103472812D01*
X145928456Y-103636784D01*
X145829853Y-103784354D01*
X145704354Y-103909853D01*
X145556784Y-104008456D01*
X145392812Y-104076376D01*
X145218741Y-104111000D01*
X145041259Y-104111000D01*
X144867188Y-104076376D01*
X144703216Y-104008456D01*
X144555646Y-103909853D01*
X144430147Y-103784354D01*
X144331544Y-103636784D01*
X144263624Y-103472812D01*
X144229000Y-103298741D01*
X144229000Y-103121259D01*
X144263624Y-102947188D01*
X144331544Y-102783216D01*
X144430147Y-102635646D01*
X144555646Y-102510147D01*
X144703216Y-102411544D01*
X144867188Y-102343624D01*
X145041259Y-102309000D01*
X145218741Y-102309000D01*
X145392812Y-102343624D01*
X145392812Y-102343624D01*
G37*
G36*
X165892812Y-102343624D02*
X166056784Y-102411544D01*
X166204354Y-102510147D01*
X166329853Y-102635646D01*
X166428456Y-102783216D01*
X166496376Y-102947188D01*
X166531000Y-103121259D01*
X166531000Y-103298741D01*
X166496376Y-103472812D01*
X166428456Y-103636784D01*
X166329853Y-103784354D01*
X166204354Y-103909853D01*
X166056784Y-104008456D01*
X165892812Y-104076376D01*
X165718741Y-104111000D01*
X165541259Y-104111000D01*
X165367188Y-104076376D01*
X165203216Y-104008456D01*
X165055646Y-103909853D01*
X164930147Y-103784354D01*
X164831544Y-103636784D01*
X164763624Y-103472812D01*
X164729000Y-103298741D01*
X164729000Y-103121259D01*
X164763624Y-102947188D01*
X164831544Y-102783216D01*
X164930147Y-102635646D01*
X165055646Y-102510147D01*
X165203216Y-102411544D01*
X165367188Y-102343624D01*
X165541259Y-102309000D01*
X165718741Y-102309000D01*
X165892812Y-102343624D01*
X165892812Y-102343624D01*
G37*
G36*
X142291000Y-101651000D02*
X137109000Y-101651000D01*
X137109000Y-100049000D01*
X142291000Y-100049000D01*
X142291000Y-101651000D01*
X142291000Y-101651000D01*
G37*
G36*
X174091000Y-101651000D02*
X168909000Y-101651000D01*
X168909000Y-100049000D01*
X174091000Y-100049000D01*
X174091000Y-101651000D01*
X174091000Y-101651000D01*
G37*
G36*
X145392812Y-97263624D02*
X145556784Y-97331544D01*
X145704354Y-97430147D01*
X145829853Y-97555646D01*
X145928456Y-97703216D01*
X145996376Y-97867188D01*
X146031000Y-98041259D01*
X146031000Y-98218741D01*
X145996376Y-98392812D01*
X145928456Y-98556784D01*
X145829853Y-98704354D01*
X145704354Y-98829853D01*
X145556784Y-98928456D01*
X145392812Y-98996376D01*
X145218741Y-99031000D01*
X145041259Y-99031000D01*
X144867188Y-98996376D01*
X144703216Y-98928456D01*
X144555646Y-98829853D01*
X144430147Y-98704354D01*
X144331544Y-98556784D01*
X144263624Y-98392812D01*
X144229000Y-98218741D01*
X144229000Y-98041259D01*
X144263624Y-97867188D01*
X144331544Y-97703216D01*
X144430147Y-97555646D01*
X144555646Y-97430147D01*
X144703216Y-97331544D01*
X144867188Y-97263624D01*
X145041259Y-97229000D01*
X145218741Y-97229000D01*
X145392812Y-97263624D01*
X145392812Y-97263624D01*
G37*
G36*
X165892812Y-97263624D02*
X166056784Y-97331544D01*
X166204354Y-97430147D01*
X166329853Y-97555646D01*
X166428456Y-97703216D01*
X166496376Y-97867188D01*
X166531000Y-98041259D01*
X166531000Y-98218741D01*
X166496376Y-98392812D01*
X166428456Y-98556784D01*
X166329853Y-98704354D01*
X166204354Y-98829853D01*
X166056784Y-98928456D01*
X165892812Y-98996376D01*
X165718741Y-99031000D01*
X165541259Y-99031000D01*
X165367188Y-98996376D01*
X165203216Y-98928456D01*
X165055646Y-98829853D01*
X164930147Y-98704354D01*
X164831544Y-98556784D01*
X164763624Y-98392812D01*
X164729000Y-98218741D01*
X164729000Y-98041259D01*
X164763624Y-97867188D01*
X164831544Y-97703216D01*
X164930147Y-97555646D01*
X165055646Y-97430147D01*
X165203216Y-97331544D01*
X165367188Y-97263624D01*
X165541259Y-97229000D01*
X165718741Y-97229000D01*
X165892812Y-97263624D01*
X165892812Y-97263624D01*
G37*
G36*
X163262812Y-94633624D02*
X163426784Y-94701544D01*
X163574354Y-94800147D01*
X163699853Y-94925646D01*
X163798456Y-95073216D01*
X163866376Y-95237188D01*
X163901000Y-95411259D01*
X163901000Y-95588741D01*
X163866376Y-95762812D01*
X163798456Y-95926784D01*
X163699853Y-96074354D01*
X163574354Y-96199853D01*
X163426784Y-96298456D01*
X163262812Y-96366376D01*
X163088741Y-96401000D01*
X162911259Y-96401000D01*
X162737188Y-96366376D01*
X162573216Y-96298456D01*
X162425646Y-96199853D01*
X162300147Y-96074354D01*
X162201544Y-95926784D01*
X162133624Y-95762812D01*
X162099000Y-95588741D01*
X162099000Y-95411259D01*
X162133624Y-95237188D01*
X162201544Y-95073216D01*
X162300147Y-94925646D01*
X162425646Y-94800147D01*
X162573216Y-94701544D01*
X162737188Y-94633624D01*
X162911259Y-94599000D01*
X163088741Y-94599000D01*
X163262812Y-94633624D01*
X163262812Y-94633624D01*
G37*
G36*
X148022812Y-94633624D02*
X148186784Y-94701544D01*
X148334354Y-94800147D01*
X148459853Y-94925646D01*
X148558456Y-95073216D01*
X148626376Y-95237188D01*
X148661000Y-95411259D01*
X148661000Y-95588741D01*
X148626376Y-95762812D01*
X148558456Y-95926784D01*
X148459853Y-96074354D01*
X148334354Y-96199853D01*
X148186784Y-96298456D01*
X148022812Y-96366376D01*
X147848741Y-96401000D01*
X147671259Y-96401000D01*
X147497188Y-96366376D01*
X147333216Y-96298456D01*
X147185646Y-96199853D01*
X147060147Y-96074354D01*
X146961544Y-95926784D01*
X146893624Y-95762812D01*
X146859000Y-95588741D01*
X146859000Y-95411259D01*
X146893624Y-95237188D01*
X146961544Y-95073216D01*
X147060147Y-94925646D01*
X147185646Y-94800147D01*
X147333216Y-94701544D01*
X147497188Y-94633624D01*
X147671259Y-94599000D01*
X147848741Y-94599000D01*
X148022812Y-94633624D01*
X148022812Y-94633624D01*
G37*
G36*
X153102812Y-94633624D02*
X153266784Y-94701544D01*
X153414354Y-94800147D01*
X153539853Y-94925646D01*
X153638456Y-95073216D01*
X153706376Y-95237188D01*
X153741000Y-95411259D01*
X153741000Y-95588741D01*
X153706376Y-95762812D01*
X153638456Y-95926784D01*
X153539853Y-96074354D01*
X153414354Y-96199853D01*
X153266784Y-96298456D01*
X153102812Y-96366376D01*
X152928741Y-96401000D01*
X152751259Y-96401000D01*
X152577188Y-96366376D01*
X152413216Y-96298456D01*
X152265646Y-96199853D01*
X152140147Y-96074354D01*
X152041544Y-95926784D01*
X151973624Y-95762812D01*
X151939000Y-95588741D01*
X151939000Y-95411259D01*
X151973624Y-95237188D01*
X152041544Y-95073216D01*
X152140147Y-94925646D01*
X152265646Y-94800147D01*
X152413216Y-94701544D01*
X152577188Y-94633624D01*
X152751259Y-94599000D01*
X152928741Y-94599000D01*
X153102812Y-94633624D01*
X153102812Y-94633624D01*
G37*
G36*
X158182812Y-94633624D02*
X158346784Y-94701544D01*
X158494354Y-94800147D01*
X158619853Y-94925646D01*
X158718456Y-95073216D01*
X158786376Y-95237188D01*
X158821000Y-95411259D01*
X158821000Y-95588741D01*
X158786376Y-95762812D01*
X158718456Y-95926784D01*
X158619853Y-96074354D01*
X158494354Y-96199853D01*
X158346784Y-96298456D01*
X158182812Y-96366376D01*
X158008741Y-96401000D01*
X157831259Y-96401000D01*
X157657188Y-96366376D01*
X157493216Y-96298456D01*
X157345646Y-96199853D01*
X157220147Y-96074354D01*
X157121544Y-95926784D01*
X157053624Y-95762812D01*
X157019000Y-95588741D01*
X157019000Y-95411259D01*
X157053624Y-95237188D01*
X157121544Y-95073216D01*
X157220147Y-94925646D01*
X157345646Y-94800147D01*
X157493216Y-94701544D01*
X157657188Y-94633624D01*
X157831259Y-94599000D01*
X158008741Y-94599000D01*
X158182812Y-94633624D01*
X158182812Y-94633624D01*
G37*
M02*
