M48
;DRILL file {KiCad (5.0.1-3-g963ef8bb5)} date Monday, November 12, 2018 at 05:34:02 PM
;FORMAT={2:4/ absolute / inch / suppress leading zeros}
FMAT,2
INCH,TZ
T1C0.0157
T2C0.0394
T3C0.0433
T4C0.0512
%
G90
G05
M72
T1
X54134Y-40748
X54134Y-41929
X54528Y-40748
X54528Y-41929
X54921Y-40748
X54921Y-41929
X55315Y-40748
X55315Y-41929
X55709Y-40748
X55709Y-41929
X56102Y-40748
X56102Y-41929
X56496Y-40748
X56496Y-41929
X56890Y-41929
X57283Y-41929
X57677Y-41929
X57874Y-40748
X57874Y-42323
X57874Y-42717
X57874Y-43110
X57874Y-43504
X57874Y-43898
X57874Y-44291
X58071Y-41929
X58268Y-40748
X58465Y-41929
X58465Y-45079
X58661Y-40748
X58858Y-41929
X58858Y-44685
X58858Y-45079
X59055Y-40748
X59252Y-41929
X59252Y-42323
X59252Y-43504
X59252Y-43898
X59252Y-44291
X59252Y-44685
X59449Y-40748
X59646Y-42126
X59646Y-44094
X59843Y-40748
X59843Y-44488
X60039Y-42126
X60236Y-40748
X60236Y-44685
X60236Y-45079
X60433Y-42126
X60630Y-40748
X60827Y-42126
X60827Y-45472
X61024Y-40551
X61024Y-42520
X61024Y-42913
X61024Y-43307
X61417Y-37598
X61417Y-37992
X61417Y-38386
X61417Y-38780
X61417Y-39173
X61417Y-39567
X61417Y-40354
X61417Y-43504
X61614Y-39961
X61811Y-37992
X62205Y-44882
X62598Y-42126
X62598Y-42520
X62598Y-42913
X62598Y-43307
X62598Y-43701
X62598Y-44094
X62598Y-44488
X62598Y-44882
X62598Y-45276
X62795Y-37795
X62992Y-45276
X62992Y-45669
X63189Y-37795
X63189Y-38780
X63189Y-39173
X63189Y-39567
X63189Y-39961
X63189Y-40354
X63189Y-40748
X63189Y-41142
X63386Y-45276
X63583Y-37795
X63780Y-44882
X63780Y-45276
X64173Y-42126
X64173Y-42520
X64173Y-42913
X64173Y-44882
X64567Y-37992
X64567Y-38386
X64567Y-38780
X64567Y-42126
X64567Y-42913
X64567Y-44882
X64961Y-39173
X64961Y-39567
X64961Y-41929
X65157Y-39961
X65354Y-41929
X65748Y-40945
X65748Y-41929
X66142Y-40551
X66142Y-40945
X66142Y-41929
X66535Y-40551
X66535Y-42126
X66929Y-40551
X66929Y-42126
X67323Y-40551
X67323Y-42126
X67717Y-40551
X67717Y-42126
X68110Y-40551
X68110Y-42126
T2
X55315Y-50197
X55315Y-51197
X58484Y-57303
X63209Y-57303
T3
X57138Y-38634
X57138Y-40634
X57138Y-42634
X57138Y-44634
X58173Y-37598
X58173Y-45669
X60173Y-37598
X60173Y-45669
X62173Y-37598
X62173Y-45669
X64173Y-37598
X64173Y-45669
X65209Y-38634
X65209Y-40634
X65209Y-42634
X65209Y-44634
T4
X58465Y-52480
X60827Y-58071
X63209Y-52500
T0
M30
