G04 #@! TF.GenerationSoftware,KiCad,Pcbnew,(5.0.1-3-g963ef8bb5)*
G04 #@! TF.CreationDate,2018-11-12T17:33:24-05:00*
G04 #@! TF.ProjectId,Noise Source,4E6F69736520536F757263652E6B6963,rev?*
G04 #@! TF.SameCoordinates,Original*
G04 #@! TF.FileFunction,Copper,L2,Bot,Signal*
G04 #@! TF.FilePolarity,Positive*
%FSLAX46Y46*%
G04 Gerber Fmt 4.6, Leading zero omitted, Abs format (unit mm)*
G04 Created by KiCad (PCBNEW (5.0.1-3-g963ef8bb5)) date Monday, November 12, 2018 at 05:33:24 PM*
%MOMM*%
%LPD*%
G01*
G04 APERTURE LIST*
G04 #@! TA.AperFunction,ComponentPad*
%ADD10C,1.700000*%
G04 #@! TD*
G04 #@! TA.AperFunction,SMDPad,CuDef*
%ADD11R,5.080000X1.500000*%
G04 #@! TD*
G04 #@! TA.AperFunction,ComponentPad*
%ADD12R,1.700000X1.700000*%
G04 #@! TD*
G04 #@! TA.AperFunction,ComponentPad*
%ADD13O,1.700000X1.700000*%
G04 #@! TD*
G04 #@! TA.AperFunction,ComponentPad*
%ADD14C,2.500000*%
G04 #@! TD*
G04 #@! TA.AperFunction,ComponentPad*
%ADD15C,3.000000*%
G04 #@! TD*
G04 #@! TA.AperFunction,ViaPad*
%ADD16C,0.800000*%
G04 #@! TD*
G04 #@! TA.AperFunction,Conductor*
%ADD17C,0.254000*%
G04 #@! TD*
G04 APERTURE END LIST*
D10*
G04 #@! TO.P,REF\002A\002A,1*
G04 #@! TO.N,GND*
X147760000Y-95500000D03*
X147760000Y-116000000D03*
G04 #@! TO.P,REF\002A\002A,*
X145130000Y-98130000D03*
G04 #@! TO.P,REF\002A\002A,1*
X165630000Y-98130000D03*
X163000000Y-95500000D03*
X163000000Y-116000000D03*
X145130000Y-113370000D03*
X165630000Y-113370000D03*
X152840000Y-95500000D03*
X152840000Y-116000000D03*
X145130000Y-103210000D03*
X165630000Y-103210000D03*
X157920000Y-95500000D03*
X157920000Y-116000000D03*
X145130000Y-108290000D03*
X165630000Y-108290000D03*
G04 #@! TD*
D11*
G04 #@! TO.P,J2,2*
G04 #@! TO.N,GND*
X139700000Y-100850000D03*
X139700000Y-109350000D03*
G04 #@! TD*
D12*
G04 #@! TO.P,J3,1*
G04 #@! TO.N,Net-(D2-Pad1)*
X140500000Y-127500000D03*
D13*
G04 #@! TO.P,J3,2*
G04 #@! TO.N,Net-(C2-Pad1)*
X140500000Y-130040000D03*
G04 #@! TD*
D11*
G04 #@! TO.P,J4,2*
G04 #@! TO.N,GND*
X171500000Y-100850000D03*
X171500000Y-109350000D03*
G04 #@! TD*
D14*
G04 #@! TO.P,K1,2*
G04 #@! TO.N,Net-(D1-Pad2)*
X160550000Y-145550000D03*
D15*
G04 #@! TO.P,K1,3*
G04 #@! TO.N,/5V*
X160550000Y-133350000D03*
G04 #@! TO.P,K1,4*
G04 #@! TO.N,Net-(K1-Pad4)*
X148500000Y-133300000D03*
D14*
G04 #@! TO.P,K1,5*
G04 #@! TO.N,/5V*
X148550000Y-145550000D03*
D15*
G04 #@! TO.P,K1,1*
G04 #@! TO.N,Net-(C1-Pad1)*
X154500000Y-147500000D03*
G04 #@! TD*
D16*
G04 #@! TO.N,GND*
X172000000Y-103000000D03*
X173000000Y-103000000D03*
X171000000Y-103000000D03*
X170000000Y-103000000D03*
X169000000Y-103000000D03*
X168000000Y-104000000D03*
X168000000Y-103000000D03*
X167000000Y-104000000D03*
X173000000Y-107000000D03*
X172000000Y-107000000D03*
X171000000Y-107000000D03*
X170000000Y-107000000D03*
X169000000Y-107000000D03*
X168000000Y-106500000D03*
X167000000Y-106500000D03*
X164000000Y-107000000D03*
X163000000Y-107000000D03*
X159000000Y-107000000D03*
X159000000Y-108000000D03*
X159000000Y-109000000D03*
X159000000Y-110000000D03*
X159000000Y-111000000D03*
X159000000Y-112000000D03*
X159000000Y-113000000D03*
X159000000Y-114000000D03*
X158000000Y-114000000D03*
X159000000Y-115000000D03*
X160000000Y-115000000D03*
X160000000Y-116000000D03*
X163000000Y-109000000D03*
X164000000Y-109000000D03*
X161000000Y-115000000D03*
X162000000Y-115000000D03*
X162000000Y-114000000D03*
X163000000Y-114000000D03*
X163000000Y-108000000D03*
X164000000Y-114000000D03*
X165000000Y-106500000D03*
X166000000Y-106500000D03*
X150500000Y-110500000D03*
X150500000Y-111500000D03*
X150500000Y-112500000D03*
X150500000Y-113500000D03*
X150500000Y-107500000D03*
X150500000Y-106500000D03*
X151500000Y-107000000D03*
X152500000Y-107000000D03*
X153500000Y-107000000D03*
X154500000Y-107000000D03*
X155000000Y-108000000D03*
X155000000Y-109000000D03*
X155000000Y-110000000D03*
X156000000Y-110500000D03*
X142500000Y-106500000D03*
X141500000Y-106500000D03*
X140500000Y-106500000D03*
X139500000Y-106500000D03*
X138500000Y-106500000D03*
X137500000Y-106500000D03*
X137500000Y-103500000D03*
X138500000Y-103500000D03*
X139500000Y-103500000D03*
X140500000Y-103500000D03*
X141500000Y-103500000D03*
X142500000Y-103500000D03*
X155000000Y-103000000D03*
X156000000Y-102500000D03*
X156500000Y-101500000D03*
X156000000Y-100500000D03*
X156000000Y-99500000D03*
X156000000Y-98500000D03*
X156000000Y-97500000D03*
X156000000Y-96500000D03*
X156000000Y-95500000D03*
X157000000Y-96500000D03*
X164000000Y-96500000D03*
X164000000Y-97500000D03*
X164000000Y-98500000D03*
X165000000Y-100500000D03*
X165500000Y-101500000D03*
X160500000Y-98500000D03*
X160500000Y-99500000D03*
X160500000Y-100500000D03*
X160500000Y-101500000D03*
X160500000Y-102500000D03*
X160500000Y-103500000D03*
X160500000Y-104500000D03*
X143500000Y-103500000D03*
X147000000Y-103500000D03*
X148000000Y-103500000D03*
X149000000Y-103500000D03*
X150000000Y-103500000D03*
X151000000Y-103500000D03*
X152000000Y-103500000D03*
X153000000Y-103500000D03*
X154000000Y-103500000D03*
X149500000Y-106500000D03*
X148500000Y-106500000D03*
X147500000Y-106500000D03*
X146500000Y-106500000D03*
X145500000Y-106500000D03*
X144500000Y-106500000D03*
X143500000Y-106500000D03*
X159500000Y-96000000D03*
X160500000Y-96000000D03*
X161500000Y-96000000D03*
X165000000Y-99500000D03*
X149500000Y-113500000D03*
X147000000Y-112500000D03*
X147000000Y-111500000D03*
X147000000Y-110500000D03*
X147000000Y-109500000D03*
X147000000Y-108500000D03*
X147000000Y-107500000D03*
X149500000Y-114500000D03*
X148500000Y-114500000D03*
X151500000Y-112000000D03*
X152000000Y-113000000D03*
X153000000Y-113500000D03*
X153000000Y-114500000D03*
X154500000Y-115500000D03*
G04 #@! TD*
D17*
G04 #@! TO.N,GND*
G36*
X173290000Y-99465000D02*
X171785750Y-99465000D01*
X171627000Y-99623750D01*
X171627000Y-100723000D01*
X171647000Y-100723000D01*
X171647000Y-100977000D01*
X171627000Y-100977000D01*
X171627000Y-102076250D01*
X171785750Y-102235000D01*
X173290000Y-102235000D01*
X173290000Y-107965000D01*
X171785750Y-107965000D01*
X171627000Y-108123750D01*
X171627000Y-109223000D01*
X171647000Y-109223000D01*
X171647000Y-109477000D01*
X171627000Y-109477000D01*
X171627000Y-110576250D01*
X171785750Y-110735000D01*
X173290000Y-110735000D01*
X173290001Y-149790000D01*
X137710000Y-149790000D01*
X137710000Y-145175050D01*
X146665000Y-145175050D01*
X146665000Y-145924950D01*
X146951974Y-146617767D01*
X147482233Y-147148026D01*
X148175050Y-147435000D01*
X148924950Y-147435000D01*
X149617767Y-147148026D01*
X149690471Y-147075322D01*
X152365000Y-147075322D01*
X152365000Y-147924678D01*
X152690034Y-148709380D01*
X153290620Y-149309966D01*
X154075322Y-149635000D01*
X154924678Y-149635000D01*
X155709380Y-149309966D01*
X156309966Y-148709380D01*
X156635000Y-147924678D01*
X156635000Y-147075322D01*
X156309966Y-146290620D01*
X155709380Y-145690034D01*
X154924678Y-145365000D01*
X154075322Y-145365000D01*
X153290620Y-145690034D01*
X152690034Y-146290620D01*
X152365000Y-147075322D01*
X149690471Y-147075322D01*
X150148026Y-146617767D01*
X150435000Y-145924950D01*
X150435000Y-145175050D01*
X158665000Y-145175050D01*
X158665000Y-145924950D01*
X158951974Y-146617767D01*
X159482233Y-147148026D01*
X160175050Y-147435000D01*
X160924950Y-147435000D01*
X161617767Y-147148026D01*
X162148026Y-146617767D01*
X162435000Y-145924950D01*
X162435000Y-145175050D01*
X162148026Y-144482233D01*
X161617767Y-143951974D01*
X160924950Y-143665000D01*
X160175050Y-143665000D01*
X159482233Y-143951974D01*
X158951974Y-144482233D01*
X158665000Y-145175050D01*
X150435000Y-145175050D01*
X150148026Y-144482233D01*
X149617767Y-143951974D01*
X148924950Y-143665000D01*
X148175050Y-143665000D01*
X147482233Y-143951974D01*
X146951974Y-144482233D01*
X146665000Y-145175050D01*
X137710000Y-145175050D01*
X137710000Y-132875322D01*
X146365000Y-132875322D01*
X146365000Y-133724678D01*
X146690034Y-134509380D01*
X147290620Y-135109966D01*
X148075322Y-135435000D01*
X148924678Y-135435000D01*
X149709380Y-135109966D01*
X150309966Y-134509380D01*
X150635000Y-133724678D01*
X150635000Y-132925322D01*
X158415000Y-132925322D01*
X158415000Y-133774678D01*
X158740034Y-134559380D01*
X159340620Y-135159966D01*
X160125322Y-135485000D01*
X160974678Y-135485000D01*
X161759380Y-135159966D01*
X162359966Y-134559380D01*
X162685000Y-133774678D01*
X162685000Y-132925322D01*
X162359966Y-132140620D01*
X161759380Y-131540034D01*
X160974678Y-131215000D01*
X160125322Y-131215000D01*
X159340620Y-131540034D01*
X158740034Y-132140620D01*
X158415000Y-132925322D01*
X150635000Y-132925322D01*
X150635000Y-132875322D01*
X150309966Y-132090620D01*
X149709380Y-131490034D01*
X148924678Y-131165000D01*
X148075322Y-131165000D01*
X147290620Y-131490034D01*
X146690034Y-132090620D01*
X146365000Y-132875322D01*
X137710000Y-132875322D01*
X137710000Y-130040000D01*
X138985908Y-130040000D01*
X139101161Y-130619418D01*
X139429375Y-131110625D01*
X139920582Y-131438839D01*
X140353744Y-131525000D01*
X140646256Y-131525000D01*
X141079418Y-131438839D01*
X141570625Y-131110625D01*
X141898839Y-130619418D01*
X142014092Y-130040000D01*
X141898839Y-129460582D01*
X141570625Y-128969375D01*
X141552381Y-128957184D01*
X141597765Y-128948157D01*
X141807809Y-128807809D01*
X141948157Y-128597765D01*
X141997440Y-128350000D01*
X141997440Y-126650000D01*
X141948157Y-126402235D01*
X141807809Y-126192191D01*
X141597765Y-126051843D01*
X141350000Y-126002560D01*
X139650000Y-126002560D01*
X139402235Y-126051843D01*
X139192191Y-126192191D01*
X139051843Y-126402235D01*
X139002560Y-126650000D01*
X139002560Y-128350000D01*
X139051843Y-128597765D01*
X139192191Y-128807809D01*
X139402235Y-128948157D01*
X139447619Y-128957184D01*
X139429375Y-128969375D01*
X139101161Y-129460582D01*
X138985908Y-130040000D01*
X137710000Y-130040000D01*
X137710000Y-117043958D01*
X146895647Y-117043958D01*
X146975920Y-117295259D01*
X147531279Y-117496718D01*
X148121458Y-117470315D01*
X148544080Y-117295259D01*
X148624353Y-117043958D01*
X151975647Y-117043958D01*
X152055920Y-117295259D01*
X152611279Y-117496718D01*
X153201458Y-117470315D01*
X153624080Y-117295259D01*
X153704353Y-117043958D01*
X157055647Y-117043958D01*
X157135920Y-117295259D01*
X157691279Y-117496718D01*
X158281458Y-117470315D01*
X158704080Y-117295259D01*
X158784353Y-117043958D01*
X162135647Y-117043958D01*
X162215920Y-117295259D01*
X162771279Y-117496718D01*
X163361458Y-117470315D01*
X163784080Y-117295259D01*
X163864353Y-117043958D01*
X163000000Y-116179605D01*
X162135647Y-117043958D01*
X158784353Y-117043958D01*
X157920000Y-116179605D01*
X157055647Y-117043958D01*
X153704353Y-117043958D01*
X152840000Y-116179605D01*
X151975647Y-117043958D01*
X148624353Y-117043958D01*
X147760000Y-116179605D01*
X146895647Y-117043958D01*
X137710000Y-117043958D01*
X137710000Y-115771279D01*
X146263282Y-115771279D01*
X146289685Y-116361458D01*
X146464741Y-116784080D01*
X146716042Y-116864353D01*
X147580395Y-116000000D01*
X147939605Y-116000000D01*
X148803958Y-116864353D01*
X149055259Y-116784080D01*
X149256718Y-116228721D01*
X149236254Y-115771279D01*
X151343282Y-115771279D01*
X151369685Y-116361458D01*
X151544741Y-116784080D01*
X151796042Y-116864353D01*
X152660395Y-116000000D01*
X153019605Y-116000000D01*
X153883958Y-116864353D01*
X154135259Y-116784080D01*
X154336718Y-116228721D01*
X154316254Y-115771279D01*
X156423282Y-115771279D01*
X156449685Y-116361458D01*
X156624741Y-116784080D01*
X156876042Y-116864353D01*
X157740395Y-116000000D01*
X158099605Y-116000000D01*
X158963958Y-116864353D01*
X159215259Y-116784080D01*
X159416718Y-116228721D01*
X159396254Y-115771279D01*
X161503282Y-115771279D01*
X161529685Y-116361458D01*
X161704741Y-116784080D01*
X161956042Y-116864353D01*
X162820395Y-116000000D01*
X163179605Y-116000000D01*
X164043958Y-116864353D01*
X164295259Y-116784080D01*
X164496718Y-116228721D01*
X164470315Y-115638542D01*
X164295259Y-115215920D01*
X164043958Y-115135647D01*
X163179605Y-116000000D01*
X162820395Y-116000000D01*
X161956042Y-115135647D01*
X161704741Y-115215920D01*
X161503282Y-115771279D01*
X159396254Y-115771279D01*
X159390315Y-115638542D01*
X159215259Y-115215920D01*
X158963958Y-115135647D01*
X158099605Y-116000000D01*
X157740395Y-116000000D01*
X156876042Y-115135647D01*
X156624741Y-115215920D01*
X156423282Y-115771279D01*
X154316254Y-115771279D01*
X154310315Y-115638542D01*
X154135259Y-115215920D01*
X153883958Y-115135647D01*
X153019605Y-116000000D01*
X152660395Y-116000000D01*
X151796042Y-115135647D01*
X151544741Y-115215920D01*
X151343282Y-115771279D01*
X149236254Y-115771279D01*
X149230315Y-115638542D01*
X149055259Y-115215920D01*
X148803958Y-115135647D01*
X147939605Y-116000000D01*
X147580395Y-116000000D01*
X146716042Y-115135647D01*
X146464741Y-115215920D01*
X146263282Y-115771279D01*
X137710000Y-115771279D01*
X137710000Y-114956042D01*
X146895647Y-114956042D01*
X147760000Y-115820395D01*
X148624353Y-114956042D01*
X151975647Y-114956042D01*
X152840000Y-115820395D01*
X153704353Y-114956042D01*
X157055647Y-114956042D01*
X157920000Y-115820395D01*
X158784353Y-114956042D01*
X162135647Y-114956042D01*
X163000000Y-115820395D01*
X163864353Y-114956042D01*
X163784080Y-114704741D01*
X163228721Y-114503282D01*
X162638542Y-114529685D01*
X162215920Y-114704741D01*
X162135647Y-114956042D01*
X158784353Y-114956042D01*
X158704080Y-114704741D01*
X158148721Y-114503282D01*
X157558542Y-114529685D01*
X157135920Y-114704741D01*
X157055647Y-114956042D01*
X153704353Y-114956042D01*
X153624080Y-114704741D01*
X153068721Y-114503282D01*
X152478542Y-114529685D01*
X152055920Y-114704741D01*
X151975647Y-114956042D01*
X148624353Y-114956042D01*
X148544080Y-114704741D01*
X147988721Y-114503282D01*
X147398542Y-114529685D01*
X146975920Y-114704741D01*
X146895647Y-114956042D01*
X137710000Y-114956042D01*
X137710000Y-114413958D01*
X144265647Y-114413958D01*
X144345920Y-114665259D01*
X144901279Y-114866718D01*
X145491458Y-114840315D01*
X145914080Y-114665259D01*
X145994353Y-114413958D01*
X164765647Y-114413958D01*
X164845920Y-114665259D01*
X165401279Y-114866718D01*
X165991458Y-114840315D01*
X166414080Y-114665259D01*
X166494353Y-114413958D01*
X165630000Y-113549605D01*
X164765647Y-114413958D01*
X145994353Y-114413958D01*
X145130000Y-113549605D01*
X144265647Y-114413958D01*
X137710000Y-114413958D01*
X137710000Y-113141279D01*
X143633282Y-113141279D01*
X143659685Y-113731458D01*
X143834741Y-114154080D01*
X144086042Y-114234353D01*
X144950395Y-113370000D01*
X145309605Y-113370000D01*
X146173958Y-114234353D01*
X146425259Y-114154080D01*
X146626718Y-113598721D01*
X146606254Y-113141279D01*
X164133282Y-113141279D01*
X164159685Y-113731458D01*
X164334741Y-114154080D01*
X164586042Y-114234353D01*
X165450395Y-113370000D01*
X165809605Y-113370000D01*
X166673958Y-114234353D01*
X166925259Y-114154080D01*
X167126718Y-113598721D01*
X167100315Y-113008542D01*
X166925259Y-112585920D01*
X166673958Y-112505647D01*
X165809605Y-113370000D01*
X165450395Y-113370000D01*
X164586042Y-112505647D01*
X164334741Y-112585920D01*
X164133282Y-113141279D01*
X146606254Y-113141279D01*
X146600315Y-113008542D01*
X146425259Y-112585920D01*
X146173958Y-112505647D01*
X145309605Y-113370000D01*
X144950395Y-113370000D01*
X144086042Y-112505647D01*
X143834741Y-112585920D01*
X143633282Y-113141279D01*
X137710000Y-113141279D01*
X137710000Y-112326042D01*
X144265647Y-112326042D01*
X145130000Y-113190395D01*
X145994353Y-112326042D01*
X164765647Y-112326042D01*
X165630000Y-113190395D01*
X166494353Y-112326042D01*
X166414080Y-112074741D01*
X165858721Y-111873282D01*
X165268542Y-111899685D01*
X164845920Y-112074741D01*
X164765647Y-112326042D01*
X145994353Y-112326042D01*
X145914080Y-112074741D01*
X145358721Y-111873282D01*
X144768542Y-111899685D01*
X144345920Y-112074741D01*
X144265647Y-112326042D01*
X137710000Y-112326042D01*
X137710000Y-110735000D01*
X139414250Y-110735000D01*
X139573000Y-110576250D01*
X139573000Y-109477000D01*
X139827000Y-109477000D01*
X139827000Y-110576250D01*
X139985750Y-110735000D01*
X142366310Y-110735000D01*
X142599699Y-110638327D01*
X142778327Y-110459698D01*
X142875000Y-110226309D01*
X142875000Y-109635750D01*
X142716250Y-109477000D01*
X139827000Y-109477000D01*
X139573000Y-109477000D01*
X139553000Y-109477000D01*
X139553000Y-109333958D01*
X144265647Y-109333958D01*
X144345920Y-109585259D01*
X144901279Y-109786718D01*
X145491458Y-109760315D01*
X145914080Y-109585259D01*
X145994353Y-109333958D01*
X164765647Y-109333958D01*
X164845920Y-109585259D01*
X165401279Y-109786718D01*
X165991458Y-109760315D01*
X166292184Y-109635750D01*
X168325000Y-109635750D01*
X168325000Y-110226309D01*
X168421673Y-110459698D01*
X168600301Y-110638327D01*
X168833690Y-110735000D01*
X171214250Y-110735000D01*
X171373000Y-110576250D01*
X171373000Y-109477000D01*
X168483750Y-109477000D01*
X168325000Y-109635750D01*
X166292184Y-109635750D01*
X166414080Y-109585259D01*
X166494353Y-109333958D01*
X165630000Y-108469605D01*
X164765647Y-109333958D01*
X145994353Y-109333958D01*
X145130000Y-108469605D01*
X144265647Y-109333958D01*
X139553000Y-109333958D01*
X139553000Y-109223000D01*
X139573000Y-109223000D01*
X139573000Y-108123750D01*
X139827000Y-108123750D01*
X139827000Y-109223000D01*
X142716250Y-109223000D01*
X142875000Y-109064250D01*
X142875000Y-108473691D01*
X142778327Y-108240302D01*
X142599699Y-108061673D01*
X142598748Y-108061279D01*
X143633282Y-108061279D01*
X143659685Y-108651458D01*
X143834741Y-109074080D01*
X144086042Y-109154353D01*
X144950395Y-108290000D01*
X145309605Y-108290000D01*
X146173958Y-109154353D01*
X146425259Y-109074080D01*
X146626718Y-108518721D01*
X146606254Y-108061279D01*
X164133282Y-108061279D01*
X164159685Y-108651458D01*
X164334741Y-109074080D01*
X164586042Y-109154353D01*
X165450395Y-108290000D01*
X165809605Y-108290000D01*
X166673958Y-109154353D01*
X166925259Y-109074080D01*
X167126718Y-108518721D01*
X167124704Y-108473691D01*
X168325000Y-108473691D01*
X168325000Y-109064250D01*
X168483750Y-109223000D01*
X171373000Y-109223000D01*
X171373000Y-108123750D01*
X171214250Y-107965000D01*
X168833690Y-107965000D01*
X168600301Y-108061673D01*
X168421673Y-108240302D01*
X168325000Y-108473691D01*
X167124704Y-108473691D01*
X167100315Y-107928542D01*
X166925259Y-107505920D01*
X166673958Y-107425647D01*
X165809605Y-108290000D01*
X165450395Y-108290000D01*
X164586042Y-107425647D01*
X164334741Y-107505920D01*
X164133282Y-108061279D01*
X146606254Y-108061279D01*
X146600315Y-107928542D01*
X146425259Y-107505920D01*
X146173958Y-107425647D01*
X145309605Y-108290000D01*
X144950395Y-108290000D01*
X144086042Y-107425647D01*
X143834741Y-107505920D01*
X143633282Y-108061279D01*
X142598748Y-108061279D01*
X142366310Y-107965000D01*
X139985750Y-107965000D01*
X139827000Y-108123750D01*
X139573000Y-108123750D01*
X139414250Y-107965000D01*
X137710000Y-107965000D01*
X137710000Y-107246042D01*
X144265647Y-107246042D01*
X145130000Y-108110395D01*
X145994353Y-107246042D01*
X164765647Y-107246042D01*
X165630000Y-108110395D01*
X166494353Y-107246042D01*
X166414080Y-106994741D01*
X165858721Y-106793282D01*
X165268542Y-106819685D01*
X164845920Y-106994741D01*
X164765647Y-107246042D01*
X145994353Y-107246042D01*
X145914080Y-106994741D01*
X145358721Y-106793282D01*
X144768542Y-106819685D01*
X144345920Y-106994741D01*
X144265647Y-107246042D01*
X137710000Y-107246042D01*
X137710000Y-104253958D01*
X144265647Y-104253958D01*
X144345920Y-104505259D01*
X144901279Y-104706718D01*
X145491458Y-104680315D01*
X145914080Y-104505259D01*
X145994353Y-104253958D01*
X164765647Y-104253958D01*
X164845920Y-104505259D01*
X165401279Y-104706718D01*
X165991458Y-104680315D01*
X166414080Y-104505259D01*
X166494353Y-104253958D01*
X165630000Y-103389605D01*
X164765647Y-104253958D01*
X145994353Y-104253958D01*
X145130000Y-103389605D01*
X144265647Y-104253958D01*
X137710000Y-104253958D01*
X137710000Y-102981279D01*
X143633282Y-102981279D01*
X143659685Y-103571458D01*
X143834741Y-103994080D01*
X144086042Y-104074353D01*
X144950395Y-103210000D01*
X145309605Y-103210000D01*
X146173958Y-104074353D01*
X146425259Y-103994080D01*
X146626718Y-103438721D01*
X146606254Y-102981279D01*
X164133282Y-102981279D01*
X164159685Y-103571458D01*
X164334741Y-103994080D01*
X164586042Y-104074353D01*
X165450395Y-103210000D01*
X165809605Y-103210000D01*
X166673958Y-104074353D01*
X166925259Y-103994080D01*
X167126718Y-103438721D01*
X167100315Y-102848542D01*
X166925259Y-102425920D01*
X166673958Y-102345647D01*
X165809605Y-103210000D01*
X165450395Y-103210000D01*
X164586042Y-102345647D01*
X164334741Y-102425920D01*
X164133282Y-102981279D01*
X146606254Y-102981279D01*
X146600315Y-102848542D01*
X146425259Y-102425920D01*
X146173958Y-102345647D01*
X145309605Y-103210000D01*
X144950395Y-103210000D01*
X144086042Y-102345647D01*
X143834741Y-102425920D01*
X143633282Y-102981279D01*
X137710000Y-102981279D01*
X137710000Y-102235000D01*
X139414250Y-102235000D01*
X139573000Y-102076250D01*
X139573000Y-100977000D01*
X139827000Y-100977000D01*
X139827000Y-102076250D01*
X139985750Y-102235000D01*
X142366310Y-102235000D01*
X142532789Y-102166042D01*
X144265647Y-102166042D01*
X145130000Y-103030395D01*
X145994353Y-102166042D01*
X164765647Y-102166042D01*
X165630000Y-103030395D01*
X166494353Y-102166042D01*
X166414080Y-101914741D01*
X165858721Y-101713282D01*
X165268542Y-101739685D01*
X164845920Y-101914741D01*
X164765647Y-102166042D01*
X145994353Y-102166042D01*
X145914080Y-101914741D01*
X145358721Y-101713282D01*
X144768542Y-101739685D01*
X144345920Y-101914741D01*
X144265647Y-102166042D01*
X142532789Y-102166042D01*
X142599699Y-102138327D01*
X142778327Y-101959698D01*
X142875000Y-101726309D01*
X142875000Y-101135750D01*
X168325000Y-101135750D01*
X168325000Y-101726309D01*
X168421673Y-101959698D01*
X168600301Y-102138327D01*
X168833690Y-102235000D01*
X171214250Y-102235000D01*
X171373000Y-102076250D01*
X171373000Y-100977000D01*
X168483750Y-100977000D01*
X168325000Y-101135750D01*
X142875000Y-101135750D01*
X142716250Y-100977000D01*
X139827000Y-100977000D01*
X139573000Y-100977000D01*
X139553000Y-100977000D01*
X139553000Y-100723000D01*
X139573000Y-100723000D01*
X139573000Y-99623750D01*
X139827000Y-99623750D01*
X139827000Y-100723000D01*
X142716250Y-100723000D01*
X142875000Y-100564250D01*
X142875000Y-99973691D01*
X168325000Y-99973691D01*
X168325000Y-100564250D01*
X168483750Y-100723000D01*
X171373000Y-100723000D01*
X171373000Y-99623750D01*
X171214250Y-99465000D01*
X168833690Y-99465000D01*
X168600301Y-99561673D01*
X168421673Y-99740302D01*
X168325000Y-99973691D01*
X142875000Y-99973691D01*
X142778327Y-99740302D01*
X142599699Y-99561673D01*
X142366310Y-99465000D01*
X139985750Y-99465000D01*
X139827000Y-99623750D01*
X139573000Y-99623750D01*
X139414250Y-99465000D01*
X137710000Y-99465000D01*
X137710000Y-99173958D01*
X144265647Y-99173958D01*
X144345920Y-99425259D01*
X144901279Y-99626718D01*
X145491458Y-99600315D01*
X145914080Y-99425259D01*
X145994353Y-99173958D01*
X164765647Y-99173958D01*
X164845920Y-99425259D01*
X165401279Y-99626718D01*
X165991458Y-99600315D01*
X166414080Y-99425259D01*
X166494353Y-99173958D01*
X165630000Y-98309605D01*
X164765647Y-99173958D01*
X145994353Y-99173958D01*
X145130000Y-98309605D01*
X144265647Y-99173958D01*
X137710000Y-99173958D01*
X137710000Y-97901279D01*
X143633282Y-97901279D01*
X143659685Y-98491458D01*
X143834741Y-98914080D01*
X144086042Y-98994353D01*
X144950395Y-98130000D01*
X145309605Y-98130000D01*
X146173958Y-98994353D01*
X146425259Y-98914080D01*
X146626718Y-98358721D01*
X146606254Y-97901279D01*
X164133282Y-97901279D01*
X164159685Y-98491458D01*
X164334741Y-98914080D01*
X164586042Y-98994353D01*
X165450395Y-98130000D01*
X165809605Y-98130000D01*
X166673958Y-98994353D01*
X166925259Y-98914080D01*
X167126718Y-98358721D01*
X167100315Y-97768542D01*
X166925259Y-97345920D01*
X166673958Y-97265647D01*
X165809605Y-98130000D01*
X165450395Y-98130000D01*
X164586042Y-97265647D01*
X164334741Y-97345920D01*
X164133282Y-97901279D01*
X146606254Y-97901279D01*
X146600315Y-97768542D01*
X146425259Y-97345920D01*
X146173958Y-97265647D01*
X145309605Y-98130000D01*
X144950395Y-98130000D01*
X144086042Y-97265647D01*
X143834741Y-97345920D01*
X143633282Y-97901279D01*
X137710000Y-97901279D01*
X137710000Y-97086042D01*
X144265647Y-97086042D01*
X145130000Y-97950395D01*
X145994353Y-97086042D01*
X164765647Y-97086042D01*
X165630000Y-97950395D01*
X166494353Y-97086042D01*
X166414080Y-96834741D01*
X165858721Y-96633282D01*
X165268542Y-96659685D01*
X164845920Y-96834741D01*
X164765647Y-97086042D01*
X145994353Y-97086042D01*
X145914080Y-96834741D01*
X145358721Y-96633282D01*
X144768542Y-96659685D01*
X144345920Y-96834741D01*
X144265647Y-97086042D01*
X137710000Y-97086042D01*
X137710000Y-96543958D01*
X146895647Y-96543958D01*
X146975920Y-96795259D01*
X147531279Y-96996718D01*
X148121458Y-96970315D01*
X148544080Y-96795259D01*
X148624353Y-96543958D01*
X151975647Y-96543958D01*
X152055920Y-96795259D01*
X152611279Y-96996718D01*
X153201458Y-96970315D01*
X153624080Y-96795259D01*
X153704353Y-96543958D01*
X157055647Y-96543958D01*
X157135920Y-96795259D01*
X157691279Y-96996718D01*
X158281458Y-96970315D01*
X158704080Y-96795259D01*
X158784353Y-96543958D01*
X162135647Y-96543958D01*
X162215920Y-96795259D01*
X162771279Y-96996718D01*
X163361458Y-96970315D01*
X163784080Y-96795259D01*
X163864353Y-96543958D01*
X163000000Y-95679605D01*
X162135647Y-96543958D01*
X158784353Y-96543958D01*
X157920000Y-95679605D01*
X157055647Y-96543958D01*
X153704353Y-96543958D01*
X152840000Y-95679605D01*
X151975647Y-96543958D01*
X148624353Y-96543958D01*
X147760000Y-95679605D01*
X146895647Y-96543958D01*
X137710000Y-96543958D01*
X137710000Y-95271279D01*
X146263282Y-95271279D01*
X146289685Y-95861458D01*
X146464741Y-96284080D01*
X146716042Y-96364353D01*
X147580395Y-95500000D01*
X147939605Y-95500000D01*
X148803958Y-96364353D01*
X149055259Y-96284080D01*
X149256718Y-95728721D01*
X149236254Y-95271279D01*
X151343282Y-95271279D01*
X151369685Y-95861458D01*
X151544741Y-96284080D01*
X151796042Y-96364353D01*
X152660395Y-95500000D01*
X153019605Y-95500000D01*
X153883958Y-96364353D01*
X154135259Y-96284080D01*
X154336718Y-95728721D01*
X154316254Y-95271279D01*
X156423282Y-95271279D01*
X156449685Y-95861458D01*
X156624741Y-96284080D01*
X156876042Y-96364353D01*
X157740395Y-95500000D01*
X158099605Y-95500000D01*
X158963958Y-96364353D01*
X159215259Y-96284080D01*
X159416718Y-95728721D01*
X159396254Y-95271279D01*
X161503282Y-95271279D01*
X161529685Y-95861458D01*
X161704741Y-96284080D01*
X161956042Y-96364353D01*
X162820395Y-95500000D01*
X163179605Y-95500000D01*
X164043958Y-96364353D01*
X164295259Y-96284080D01*
X164496718Y-95728721D01*
X164470315Y-95138542D01*
X164295259Y-94715920D01*
X164043958Y-94635647D01*
X163179605Y-95500000D01*
X162820395Y-95500000D01*
X161956042Y-94635647D01*
X161704741Y-94715920D01*
X161503282Y-95271279D01*
X159396254Y-95271279D01*
X159390315Y-95138542D01*
X159215259Y-94715920D01*
X158963958Y-94635647D01*
X158099605Y-95500000D01*
X157740395Y-95500000D01*
X156876042Y-94635647D01*
X156624741Y-94715920D01*
X156423282Y-95271279D01*
X154316254Y-95271279D01*
X154310315Y-95138542D01*
X154135259Y-94715920D01*
X153883958Y-94635647D01*
X153019605Y-95500000D01*
X152660395Y-95500000D01*
X151796042Y-94635647D01*
X151544741Y-94715920D01*
X151343282Y-95271279D01*
X149236254Y-95271279D01*
X149230315Y-95138542D01*
X149055259Y-94715920D01*
X148803958Y-94635647D01*
X147939605Y-95500000D01*
X147580395Y-95500000D01*
X146716042Y-94635647D01*
X146464741Y-94715920D01*
X146263282Y-95271279D01*
X137710000Y-95271279D01*
X137710000Y-94456042D01*
X146895647Y-94456042D01*
X147760000Y-95320395D01*
X148624353Y-94456042D01*
X151975647Y-94456042D01*
X152840000Y-95320395D01*
X153704353Y-94456042D01*
X157055647Y-94456042D01*
X157920000Y-95320395D01*
X158784353Y-94456042D01*
X162135647Y-94456042D01*
X163000000Y-95320395D01*
X163864353Y-94456042D01*
X163784080Y-94204741D01*
X163228721Y-94003282D01*
X162638542Y-94029685D01*
X162215920Y-94204741D01*
X162135647Y-94456042D01*
X158784353Y-94456042D01*
X158704080Y-94204741D01*
X158148721Y-94003282D01*
X157558542Y-94029685D01*
X157135920Y-94204741D01*
X157055647Y-94456042D01*
X153704353Y-94456042D01*
X153624080Y-94204741D01*
X153068721Y-94003282D01*
X152478542Y-94029685D01*
X152055920Y-94204741D01*
X151975647Y-94456042D01*
X148624353Y-94456042D01*
X148544080Y-94204741D01*
X147988721Y-94003282D01*
X147398542Y-94029685D01*
X146975920Y-94204741D01*
X146895647Y-94456042D01*
X137710000Y-94456042D01*
X137710000Y-93710000D01*
X173290000Y-93710000D01*
X173290000Y-99465000D01*
X173290000Y-99465000D01*
G37*
X173290000Y-99465000D02*
X171785750Y-99465000D01*
X171627000Y-99623750D01*
X171627000Y-100723000D01*
X171647000Y-100723000D01*
X171647000Y-100977000D01*
X171627000Y-100977000D01*
X171627000Y-102076250D01*
X171785750Y-102235000D01*
X173290000Y-102235000D01*
X173290000Y-107965000D01*
X171785750Y-107965000D01*
X171627000Y-108123750D01*
X171627000Y-109223000D01*
X171647000Y-109223000D01*
X171647000Y-109477000D01*
X171627000Y-109477000D01*
X171627000Y-110576250D01*
X171785750Y-110735000D01*
X173290000Y-110735000D01*
X173290001Y-149790000D01*
X137710000Y-149790000D01*
X137710000Y-145175050D01*
X146665000Y-145175050D01*
X146665000Y-145924950D01*
X146951974Y-146617767D01*
X147482233Y-147148026D01*
X148175050Y-147435000D01*
X148924950Y-147435000D01*
X149617767Y-147148026D01*
X149690471Y-147075322D01*
X152365000Y-147075322D01*
X152365000Y-147924678D01*
X152690034Y-148709380D01*
X153290620Y-149309966D01*
X154075322Y-149635000D01*
X154924678Y-149635000D01*
X155709380Y-149309966D01*
X156309966Y-148709380D01*
X156635000Y-147924678D01*
X156635000Y-147075322D01*
X156309966Y-146290620D01*
X155709380Y-145690034D01*
X154924678Y-145365000D01*
X154075322Y-145365000D01*
X153290620Y-145690034D01*
X152690034Y-146290620D01*
X152365000Y-147075322D01*
X149690471Y-147075322D01*
X150148026Y-146617767D01*
X150435000Y-145924950D01*
X150435000Y-145175050D01*
X158665000Y-145175050D01*
X158665000Y-145924950D01*
X158951974Y-146617767D01*
X159482233Y-147148026D01*
X160175050Y-147435000D01*
X160924950Y-147435000D01*
X161617767Y-147148026D01*
X162148026Y-146617767D01*
X162435000Y-145924950D01*
X162435000Y-145175050D01*
X162148026Y-144482233D01*
X161617767Y-143951974D01*
X160924950Y-143665000D01*
X160175050Y-143665000D01*
X159482233Y-143951974D01*
X158951974Y-144482233D01*
X158665000Y-145175050D01*
X150435000Y-145175050D01*
X150148026Y-144482233D01*
X149617767Y-143951974D01*
X148924950Y-143665000D01*
X148175050Y-143665000D01*
X147482233Y-143951974D01*
X146951974Y-144482233D01*
X146665000Y-145175050D01*
X137710000Y-145175050D01*
X137710000Y-132875322D01*
X146365000Y-132875322D01*
X146365000Y-133724678D01*
X146690034Y-134509380D01*
X147290620Y-135109966D01*
X148075322Y-135435000D01*
X148924678Y-135435000D01*
X149709380Y-135109966D01*
X150309966Y-134509380D01*
X150635000Y-133724678D01*
X150635000Y-132925322D01*
X158415000Y-132925322D01*
X158415000Y-133774678D01*
X158740034Y-134559380D01*
X159340620Y-135159966D01*
X160125322Y-135485000D01*
X160974678Y-135485000D01*
X161759380Y-135159966D01*
X162359966Y-134559380D01*
X162685000Y-133774678D01*
X162685000Y-132925322D01*
X162359966Y-132140620D01*
X161759380Y-131540034D01*
X160974678Y-131215000D01*
X160125322Y-131215000D01*
X159340620Y-131540034D01*
X158740034Y-132140620D01*
X158415000Y-132925322D01*
X150635000Y-132925322D01*
X150635000Y-132875322D01*
X150309966Y-132090620D01*
X149709380Y-131490034D01*
X148924678Y-131165000D01*
X148075322Y-131165000D01*
X147290620Y-131490034D01*
X146690034Y-132090620D01*
X146365000Y-132875322D01*
X137710000Y-132875322D01*
X137710000Y-130040000D01*
X138985908Y-130040000D01*
X139101161Y-130619418D01*
X139429375Y-131110625D01*
X139920582Y-131438839D01*
X140353744Y-131525000D01*
X140646256Y-131525000D01*
X141079418Y-131438839D01*
X141570625Y-131110625D01*
X141898839Y-130619418D01*
X142014092Y-130040000D01*
X141898839Y-129460582D01*
X141570625Y-128969375D01*
X141552381Y-128957184D01*
X141597765Y-128948157D01*
X141807809Y-128807809D01*
X141948157Y-128597765D01*
X141997440Y-128350000D01*
X141997440Y-126650000D01*
X141948157Y-126402235D01*
X141807809Y-126192191D01*
X141597765Y-126051843D01*
X141350000Y-126002560D01*
X139650000Y-126002560D01*
X139402235Y-126051843D01*
X139192191Y-126192191D01*
X139051843Y-126402235D01*
X139002560Y-126650000D01*
X139002560Y-128350000D01*
X139051843Y-128597765D01*
X139192191Y-128807809D01*
X139402235Y-128948157D01*
X139447619Y-128957184D01*
X139429375Y-128969375D01*
X139101161Y-129460582D01*
X138985908Y-130040000D01*
X137710000Y-130040000D01*
X137710000Y-117043958D01*
X146895647Y-117043958D01*
X146975920Y-117295259D01*
X147531279Y-117496718D01*
X148121458Y-117470315D01*
X148544080Y-117295259D01*
X148624353Y-117043958D01*
X151975647Y-117043958D01*
X152055920Y-117295259D01*
X152611279Y-117496718D01*
X153201458Y-117470315D01*
X153624080Y-117295259D01*
X153704353Y-117043958D01*
X157055647Y-117043958D01*
X157135920Y-117295259D01*
X157691279Y-117496718D01*
X158281458Y-117470315D01*
X158704080Y-117295259D01*
X158784353Y-117043958D01*
X162135647Y-117043958D01*
X162215920Y-117295259D01*
X162771279Y-117496718D01*
X163361458Y-117470315D01*
X163784080Y-117295259D01*
X163864353Y-117043958D01*
X163000000Y-116179605D01*
X162135647Y-117043958D01*
X158784353Y-117043958D01*
X157920000Y-116179605D01*
X157055647Y-117043958D01*
X153704353Y-117043958D01*
X152840000Y-116179605D01*
X151975647Y-117043958D01*
X148624353Y-117043958D01*
X147760000Y-116179605D01*
X146895647Y-117043958D01*
X137710000Y-117043958D01*
X137710000Y-115771279D01*
X146263282Y-115771279D01*
X146289685Y-116361458D01*
X146464741Y-116784080D01*
X146716042Y-116864353D01*
X147580395Y-116000000D01*
X147939605Y-116000000D01*
X148803958Y-116864353D01*
X149055259Y-116784080D01*
X149256718Y-116228721D01*
X149236254Y-115771279D01*
X151343282Y-115771279D01*
X151369685Y-116361458D01*
X151544741Y-116784080D01*
X151796042Y-116864353D01*
X152660395Y-116000000D01*
X153019605Y-116000000D01*
X153883958Y-116864353D01*
X154135259Y-116784080D01*
X154336718Y-116228721D01*
X154316254Y-115771279D01*
X156423282Y-115771279D01*
X156449685Y-116361458D01*
X156624741Y-116784080D01*
X156876042Y-116864353D01*
X157740395Y-116000000D01*
X158099605Y-116000000D01*
X158963958Y-116864353D01*
X159215259Y-116784080D01*
X159416718Y-116228721D01*
X159396254Y-115771279D01*
X161503282Y-115771279D01*
X161529685Y-116361458D01*
X161704741Y-116784080D01*
X161956042Y-116864353D01*
X162820395Y-116000000D01*
X163179605Y-116000000D01*
X164043958Y-116864353D01*
X164295259Y-116784080D01*
X164496718Y-116228721D01*
X164470315Y-115638542D01*
X164295259Y-115215920D01*
X164043958Y-115135647D01*
X163179605Y-116000000D01*
X162820395Y-116000000D01*
X161956042Y-115135647D01*
X161704741Y-115215920D01*
X161503282Y-115771279D01*
X159396254Y-115771279D01*
X159390315Y-115638542D01*
X159215259Y-115215920D01*
X158963958Y-115135647D01*
X158099605Y-116000000D01*
X157740395Y-116000000D01*
X156876042Y-115135647D01*
X156624741Y-115215920D01*
X156423282Y-115771279D01*
X154316254Y-115771279D01*
X154310315Y-115638542D01*
X154135259Y-115215920D01*
X153883958Y-115135647D01*
X153019605Y-116000000D01*
X152660395Y-116000000D01*
X151796042Y-115135647D01*
X151544741Y-115215920D01*
X151343282Y-115771279D01*
X149236254Y-115771279D01*
X149230315Y-115638542D01*
X149055259Y-115215920D01*
X148803958Y-115135647D01*
X147939605Y-116000000D01*
X147580395Y-116000000D01*
X146716042Y-115135647D01*
X146464741Y-115215920D01*
X146263282Y-115771279D01*
X137710000Y-115771279D01*
X137710000Y-114956042D01*
X146895647Y-114956042D01*
X147760000Y-115820395D01*
X148624353Y-114956042D01*
X151975647Y-114956042D01*
X152840000Y-115820395D01*
X153704353Y-114956042D01*
X157055647Y-114956042D01*
X157920000Y-115820395D01*
X158784353Y-114956042D01*
X162135647Y-114956042D01*
X163000000Y-115820395D01*
X163864353Y-114956042D01*
X163784080Y-114704741D01*
X163228721Y-114503282D01*
X162638542Y-114529685D01*
X162215920Y-114704741D01*
X162135647Y-114956042D01*
X158784353Y-114956042D01*
X158704080Y-114704741D01*
X158148721Y-114503282D01*
X157558542Y-114529685D01*
X157135920Y-114704741D01*
X157055647Y-114956042D01*
X153704353Y-114956042D01*
X153624080Y-114704741D01*
X153068721Y-114503282D01*
X152478542Y-114529685D01*
X152055920Y-114704741D01*
X151975647Y-114956042D01*
X148624353Y-114956042D01*
X148544080Y-114704741D01*
X147988721Y-114503282D01*
X147398542Y-114529685D01*
X146975920Y-114704741D01*
X146895647Y-114956042D01*
X137710000Y-114956042D01*
X137710000Y-114413958D01*
X144265647Y-114413958D01*
X144345920Y-114665259D01*
X144901279Y-114866718D01*
X145491458Y-114840315D01*
X145914080Y-114665259D01*
X145994353Y-114413958D01*
X164765647Y-114413958D01*
X164845920Y-114665259D01*
X165401279Y-114866718D01*
X165991458Y-114840315D01*
X166414080Y-114665259D01*
X166494353Y-114413958D01*
X165630000Y-113549605D01*
X164765647Y-114413958D01*
X145994353Y-114413958D01*
X145130000Y-113549605D01*
X144265647Y-114413958D01*
X137710000Y-114413958D01*
X137710000Y-113141279D01*
X143633282Y-113141279D01*
X143659685Y-113731458D01*
X143834741Y-114154080D01*
X144086042Y-114234353D01*
X144950395Y-113370000D01*
X145309605Y-113370000D01*
X146173958Y-114234353D01*
X146425259Y-114154080D01*
X146626718Y-113598721D01*
X146606254Y-113141279D01*
X164133282Y-113141279D01*
X164159685Y-113731458D01*
X164334741Y-114154080D01*
X164586042Y-114234353D01*
X165450395Y-113370000D01*
X165809605Y-113370000D01*
X166673958Y-114234353D01*
X166925259Y-114154080D01*
X167126718Y-113598721D01*
X167100315Y-113008542D01*
X166925259Y-112585920D01*
X166673958Y-112505647D01*
X165809605Y-113370000D01*
X165450395Y-113370000D01*
X164586042Y-112505647D01*
X164334741Y-112585920D01*
X164133282Y-113141279D01*
X146606254Y-113141279D01*
X146600315Y-113008542D01*
X146425259Y-112585920D01*
X146173958Y-112505647D01*
X145309605Y-113370000D01*
X144950395Y-113370000D01*
X144086042Y-112505647D01*
X143834741Y-112585920D01*
X143633282Y-113141279D01*
X137710000Y-113141279D01*
X137710000Y-112326042D01*
X144265647Y-112326042D01*
X145130000Y-113190395D01*
X145994353Y-112326042D01*
X164765647Y-112326042D01*
X165630000Y-113190395D01*
X166494353Y-112326042D01*
X166414080Y-112074741D01*
X165858721Y-111873282D01*
X165268542Y-111899685D01*
X164845920Y-112074741D01*
X164765647Y-112326042D01*
X145994353Y-112326042D01*
X145914080Y-112074741D01*
X145358721Y-111873282D01*
X144768542Y-111899685D01*
X144345920Y-112074741D01*
X144265647Y-112326042D01*
X137710000Y-112326042D01*
X137710000Y-110735000D01*
X139414250Y-110735000D01*
X139573000Y-110576250D01*
X139573000Y-109477000D01*
X139827000Y-109477000D01*
X139827000Y-110576250D01*
X139985750Y-110735000D01*
X142366310Y-110735000D01*
X142599699Y-110638327D01*
X142778327Y-110459698D01*
X142875000Y-110226309D01*
X142875000Y-109635750D01*
X142716250Y-109477000D01*
X139827000Y-109477000D01*
X139573000Y-109477000D01*
X139553000Y-109477000D01*
X139553000Y-109333958D01*
X144265647Y-109333958D01*
X144345920Y-109585259D01*
X144901279Y-109786718D01*
X145491458Y-109760315D01*
X145914080Y-109585259D01*
X145994353Y-109333958D01*
X164765647Y-109333958D01*
X164845920Y-109585259D01*
X165401279Y-109786718D01*
X165991458Y-109760315D01*
X166292184Y-109635750D01*
X168325000Y-109635750D01*
X168325000Y-110226309D01*
X168421673Y-110459698D01*
X168600301Y-110638327D01*
X168833690Y-110735000D01*
X171214250Y-110735000D01*
X171373000Y-110576250D01*
X171373000Y-109477000D01*
X168483750Y-109477000D01*
X168325000Y-109635750D01*
X166292184Y-109635750D01*
X166414080Y-109585259D01*
X166494353Y-109333958D01*
X165630000Y-108469605D01*
X164765647Y-109333958D01*
X145994353Y-109333958D01*
X145130000Y-108469605D01*
X144265647Y-109333958D01*
X139553000Y-109333958D01*
X139553000Y-109223000D01*
X139573000Y-109223000D01*
X139573000Y-108123750D01*
X139827000Y-108123750D01*
X139827000Y-109223000D01*
X142716250Y-109223000D01*
X142875000Y-109064250D01*
X142875000Y-108473691D01*
X142778327Y-108240302D01*
X142599699Y-108061673D01*
X142598748Y-108061279D01*
X143633282Y-108061279D01*
X143659685Y-108651458D01*
X143834741Y-109074080D01*
X144086042Y-109154353D01*
X144950395Y-108290000D01*
X145309605Y-108290000D01*
X146173958Y-109154353D01*
X146425259Y-109074080D01*
X146626718Y-108518721D01*
X146606254Y-108061279D01*
X164133282Y-108061279D01*
X164159685Y-108651458D01*
X164334741Y-109074080D01*
X164586042Y-109154353D01*
X165450395Y-108290000D01*
X165809605Y-108290000D01*
X166673958Y-109154353D01*
X166925259Y-109074080D01*
X167126718Y-108518721D01*
X167124704Y-108473691D01*
X168325000Y-108473691D01*
X168325000Y-109064250D01*
X168483750Y-109223000D01*
X171373000Y-109223000D01*
X171373000Y-108123750D01*
X171214250Y-107965000D01*
X168833690Y-107965000D01*
X168600301Y-108061673D01*
X168421673Y-108240302D01*
X168325000Y-108473691D01*
X167124704Y-108473691D01*
X167100315Y-107928542D01*
X166925259Y-107505920D01*
X166673958Y-107425647D01*
X165809605Y-108290000D01*
X165450395Y-108290000D01*
X164586042Y-107425647D01*
X164334741Y-107505920D01*
X164133282Y-108061279D01*
X146606254Y-108061279D01*
X146600315Y-107928542D01*
X146425259Y-107505920D01*
X146173958Y-107425647D01*
X145309605Y-108290000D01*
X144950395Y-108290000D01*
X144086042Y-107425647D01*
X143834741Y-107505920D01*
X143633282Y-108061279D01*
X142598748Y-108061279D01*
X142366310Y-107965000D01*
X139985750Y-107965000D01*
X139827000Y-108123750D01*
X139573000Y-108123750D01*
X139414250Y-107965000D01*
X137710000Y-107965000D01*
X137710000Y-107246042D01*
X144265647Y-107246042D01*
X145130000Y-108110395D01*
X145994353Y-107246042D01*
X164765647Y-107246042D01*
X165630000Y-108110395D01*
X166494353Y-107246042D01*
X166414080Y-106994741D01*
X165858721Y-106793282D01*
X165268542Y-106819685D01*
X164845920Y-106994741D01*
X164765647Y-107246042D01*
X145994353Y-107246042D01*
X145914080Y-106994741D01*
X145358721Y-106793282D01*
X144768542Y-106819685D01*
X144345920Y-106994741D01*
X144265647Y-107246042D01*
X137710000Y-107246042D01*
X137710000Y-104253958D01*
X144265647Y-104253958D01*
X144345920Y-104505259D01*
X144901279Y-104706718D01*
X145491458Y-104680315D01*
X145914080Y-104505259D01*
X145994353Y-104253958D01*
X164765647Y-104253958D01*
X164845920Y-104505259D01*
X165401279Y-104706718D01*
X165991458Y-104680315D01*
X166414080Y-104505259D01*
X166494353Y-104253958D01*
X165630000Y-103389605D01*
X164765647Y-104253958D01*
X145994353Y-104253958D01*
X145130000Y-103389605D01*
X144265647Y-104253958D01*
X137710000Y-104253958D01*
X137710000Y-102981279D01*
X143633282Y-102981279D01*
X143659685Y-103571458D01*
X143834741Y-103994080D01*
X144086042Y-104074353D01*
X144950395Y-103210000D01*
X145309605Y-103210000D01*
X146173958Y-104074353D01*
X146425259Y-103994080D01*
X146626718Y-103438721D01*
X146606254Y-102981279D01*
X164133282Y-102981279D01*
X164159685Y-103571458D01*
X164334741Y-103994080D01*
X164586042Y-104074353D01*
X165450395Y-103210000D01*
X165809605Y-103210000D01*
X166673958Y-104074353D01*
X166925259Y-103994080D01*
X167126718Y-103438721D01*
X167100315Y-102848542D01*
X166925259Y-102425920D01*
X166673958Y-102345647D01*
X165809605Y-103210000D01*
X165450395Y-103210000D01*
X164586042Y-102345647D01*
X164334741Y-102425920D01*
X164133282Y-102981279D01*
X146606254Y-102981279D01*
X146600315Y-102848542D01*
X146425259Y-102425920D01*
X146173958Y-102345647D01*
X145309605Y-103210000D01*
X144950395Y-103210000D01*
X144086042Y-102345647D01*
X143834741Y-102425920D01*
X143633282Y-102981279D01*
X137710000Y-102981279D01*
X137710000Y-102235000D01*
X139414250Y-102235000D01*
X139573000Y-102076250D01*
X139573000Y-100977000D01*
X139827000Y-100977000D01*
X139827000Y-102076250D01*
X139985750Y-102235000D01*
X142366310Y-102235000D01*
X142532789Y-102166042D01*
X144265647Y-102166042D01*
X145130000Y-103030395D01*
X145994353Y-102166042D01*
X164765647Y-102166042D01*
X165630000Y-103030395D01*
X166494353Y-102166042D01*
X166414080Y-101914741D01*
X165858721Y-101713282D01*
X165268542Y-101739685D01*
X164845920Y-101914741D01*
X164765647Y-102166042D01*
X145994353Y-102166042D01*
X145914080Y-101914741D01*
X145358721Y-101713282D01*
X144768542Y-101739685D01*
X144345920Y-101914741D01*
X144265647Y-102166042D01*
X142532789Y-102166042D01*
X142599699Y-102138327D01*
X142778327Y-101959698D01*
X142875000Y-101726309D01*
X142875000Y-101135750D01*
X168325000Y-101135750D01*
X168325000Y-101726309D01*
X168421673Y-101959698D01*
X168600301Y-102138327D01*
X168833690Y-102235000D01*
X171214250Y-102235000D01*
X171373000Y-102076250D01*
X171373000Y-100977000D01*
X168483750Y-100977000D01*
X168325000Y-101135750D01*
X142875000Y-101135750D01*
X142716250Y-100977000D01*
X139827000Y-100977000D01*
X139573000Y-100977000D01*
X139553000Y-100977000D01*
X139553000Y-100723000D01*
X139573000Y-100723000D01*
X139573000Y-99623750D01*
X139827000Y-99623750D01*
X139827000Y-100723000D01*
X142716250Y-100723000D01*
X142875000Y-100564250D01*
X142875000Y-99973691D01*
X168325000Y-99973691D01*
X168325000Y-100564250D01*
X168483750Y-100723000D01*
X171373000Y-100723000D01*
X171373000Y-99623750D01*
X171214250Y-99465000D01*
X168833690Y-99465000D01*
X168600301Y-99561673D01*
X168421673Y-99740302D01*
X168325000Y-99973691D01*
X142875000Y-99973691D01*
X142778327Y-99740302D01*
X142599699Y-99561673D01*
X142366310Y-99465000D01*
X139985750Y-99465000D01*
X139827000Y-99623750D01*
X139573000Y-99623750D01*
X139414250Y-99465000D01*
X137710000Y-99465000D01*
X137710000Y-99173958D01*
X144265647Y-99173958D01*
X144345920Y-99425259D01*
X144901279Y-99626718D01*
X145491458Y-99600315D01*
X145914080Y-99425259D01*
X145994353Y-99173958D01*
X164765647Y-99173958D01*
X164845920Y-99425259D01*
X165401279Y-99626718D01*
X165991458Y-99600315D01*
X166414080Y-99425259D01*
X166494353Y-99173958D01*
X165630000Y-98309605D01*
X164765647Y-99173958D01*
X145994353Y-99173958D01*
X145130000Y-98309605D01*
X144265647Y-99173958D01*
X137710000Y-99173958D01*
X137710000Y-97901279D01*
X143633282Y-97901279D01*
X143659685Y-98491458D01*
X143834741Y-98914080D01*
X144086042Y-98994353D01*
X144950395Y-98130000D01*
X145309605Y-98130000D01*
X146173958Y-98994353D01*
X146425259Y-98914080D01*
X146626718Y-98358721D01*
X146606254Y-97901279D01*
X164133282Y-97901279D01*
X164159685Y-98491458D01*
X164334741Y-98914080D01*
X164586042Y-98994353D01*
X165450395Y-98130000D01*
X165809605Y-98130000D01*
X166673958Y-98994353D01*
X166925259Y-98914080D01*
X167126718Y-98358721D01*
X167100315Y-97768542D01*
X166925259Y-97345920D01*
X166673958Y-97265647D01*
X165809605Y-98130000D01*
X165450395Y-98130000D01*
X164586042Y-97265647D01*
X164334741Y-97345920D01*
X164133282Y-97901279D01*
X146606254Y-97901279D01*
X146600315Y-97768542D01*
X146425259Y-97345920D01*
X146173958Y-97265647D01*
X145309605Y-98130000D01*
X144950395Y-98130000D01*
X144086042Y-97265647D01*
X143834741Y-97345920D01*
X143633282Y-97901279D01*
X137710000Y-97901279D01*
X137710000Y-97086042D01*
X144265647Y-97086042D01*
X145130000Y-97950395D01*
X145994353Y-97086042D01*
X164765647Y-97086042D01*
X165630000Y-97950395D01*
X166494353Y-97086042D01*
X166414080Y-96834741D01*
X165858721Y-96633282D01*
X165268542Y-96659685D01*
X164845920Y-96834741D01*
X164765647Y-97086042D01*
X145994353Y-97086042D01*
X145914080Y-96834741D01*
X145358721Y-96633282D01*
X144768542Y-96659685D01*
X144345920Y-96834741D01*
X144265647Y-97086042D01*
X137710000Y-97086042D01*
X137710000Y-96543958D01*
X146895647Y-96543958D01*
X146975920Y-96795259D01*
X147531279Y-96996718D01*
X148121458Y-96970315D01*
X148544080Y-96795259D01*
X148624353Y-96543958D01*
X151975647Y-96543958D01*
X152055920Y-96795259D01*
X152611279Y-96996718D01*
X153201458Y-96970315D01*
X153624080Y-96795259D01*
X153704353Y-96543958D01*
X157055647Y-96543958D01*
X157135920Y-96795259D01*
X157691279Y-96996718D01*
X158281458Y-96970315D01*
X158704080Y-96795259D01*
X158784353Y-96543958D01*
X162135647Y-96543958D01*
X162215920Y-96795259D01*
X162771279Y-96996718D01*
X163361458Y-96970315D01*
X163784080Y-96795259D01*
X163864353Y-96543958D01*
X163000000Y-95679605D01*
X162135647Y-96543958D01*
X158784353Y-96543958D01*
X157920000Y-95679605D01*
X157055647Y-96543958D01*
X153704353Y-96543958D01*
X152840000Y-95679605D01*
X151975647Y-96543958D01*
X148624353Y-96543958D01*
X147760000Y-95679605D01*
X146895647Y-96543958D01*
X137710000Y-96543958D01*
X137710000Y-95271279D01*
X146263282Y-95271279D01*
X146289685Y-95861458D01*
X146464741Y-96284080D01*
X146716042Y-96364353D01*
X147580395Y-95500000D01*
X147939605Y-95500000D01*
X148803958Y-96364353D01*
X149055259Y-96284080D01*
X149256718Y-95728721D01*
X149236254Y-95271279D01*
X151343282Y-95271279D01*
X151369685Y-95861458D01*
X151544741Y-96284080D01*
X151796042Y-96364353D01*
X152660395Y-95500000D01*
X153019605Y-95500000D01*
X153883958Y-96364353D01*
X154135259Y-96284080D01*
X154336718Y-95728721D01*
X154316254Y-95271279D01*
X156423282Y-95271279D01*
X156449685Y-95861458D01*
X156624741Y-96284080D01*
X156876042Y-96364353D01*
X157740395Y-95500000D01*
X158099605Y-95500000D01*
X158963958Y-96364353D01*
X159215259Y-96284080D01*
X159416718Y-95728721D01*
X159396254Y-95271279D01*
X161503282Y-95271279D01*
X161529685Y-95861458D01*
X161704741Y-96284080D01*
X161956042Y-96364353D01*
X162820395Y-95500000D01*
X163179605Y-95500000D01*
X164043958Y-96364353D01*
X164295259Y-96284080D01*
X164496718Y-95728721D01*
X164470315Y-95138542D01*
X164295259Y-94715920D01*
X164043958Y-94635647D01*
X163179605Y-95500000D01*
X162820395Y-95500000D01*
X161956042Y-94635647D01*
X161704741Y-94715920D01*
X161503282Y-95271279D01*
X159396254Y-95271279D01*
X159390315Y-95138542D01*
X159215259Y-94715920D01*
X158963958Y-94635647D01*
X158099605Y-95500000D01*
X157740395Y-95500000D01*
X156876042Y-94635647D01*
X156624741Y-94715920D01*
X156423282Y-95271279D01*
X154316254Y-95271279D01*
X154310315Y-95138542D01*
X154135259Y-94715920D01*
X153883958Y-94635647D01*
X153019605Y-95500000D01*
X152660395Y-95500000D01*
X151796042Y-94635647D01*
X151544741Y-94715920D01*
X151343282Y-95271279D01*
X149236254Y-95271279D01*
X149230315Y-95138542D01*
X149055259Y-94715920D01*
X148803958Y-94635647D01*
X147939605Y-95500000D01*
X147580395Y-95500000D01*
X146716042Y-94635647D01*
X146464741Y-94715920D01*
X146263282Y-95271279D01*
X137710000Y-95271279D01*
X137710000Y-94456042D01*
X146895647Y-94456042D01*
X147760000Y-95320395D01*
X148624353Y-94456042D01*
X151975647Y-94456042D01*
X152840000Y-95320395D01*
X153704353Y-94456042D01*
X157055647Y-94456042D01*
X157920000Y-95320395D01*
X158784353Y-94456042D01*
X162135647Y-94456042D01*
X163000000Y-95320395D01*
X163864353Y-94456042D01*
X163784080Y-94204741D01*
X163228721Y-94003282D01*
X162638542Y-94029685D01*
X162215920Y-94204741D01*
X162135647Y-94456042D01*
X158784353Y-94456042D01*
X158704080Y-94204741D01*
X158148721Y-94003282D01*
X157558542Y-94029685D01*
X157135920Y-94204741D01*
X157055647Y-94456042D01*
X153704353Y-94456042D01*
X153624080Y-94204741D01*
X153068721Y-94003282D01*
X152478542Y-94029685D01*
X152055920Y-94204741D01*
X151975647Y-94456042D01*
X148624353Y-94456042D01*
X148544080Y-94204741D01*
X147988721Y-94003282D01*
X147398542Y-94029685D01*
X146975920Y-94204741D01*
X146895647Y-94456042D01*
X137710000Y-94456042D01*
X137710000Y-93710000D01*
X173290000Y-93710000D01*
X173290000Y-99465000D01*
G04 #@! TD*
M02*
