G04 #@! TF.GenerationSoftware,KiCad,Pcbnew,(5.0.1-3-g963ef8bb5)*
G04 #@! TF.CreationDate,2018-11-12T17:33:24-05:00*
G04 #@! TF.ProjectId,Noise Source,4E6F69736520536F757263652E6B6963,rev?*
G04 #@! TF.SameCoordinates,Original*
G04 #@! TF.FileFunction,Soldermask,Top*
G04 #@! TF.FilePolarity,Negative*
%FSLAX46Y46*%
G04 Gerber Fmt 4.6, Leading zero omitted, Abs format (unit mm)*
G04 Created by KiCad (PCBNEW (5.0.1-3-g963ef8bb5)) date Monday, November 12, 2018 at 05:33:24 PM*
%MOMM*%
%LPD*%
G01*
G04 APERTURE LIST*
%ADD10C,0.100000*%
G04 APERTURE END LIST*
D10*
G36*
X154852527Y-145988736D02*
X154952410Y-146008604D01*
X155234674Y-146125521D01*
X155488705Y-146295259D01*
X155704741Y-146511295D01*
X155874479Y-146765326D01*
X155991396Y-147047590D01*
X155991396Y-147047591D01*
X156051000Y-147347238D01*
X156051000Y-147652762D01*
X156011264Y-147852527D01*
X155991396Y-147952410D01*
X155874479Y-148234674D01*
X155704741Y-148488705D01*
X155488705Y-148704741D01*
X155234674Y-148874479D01*
X154952410Y-148991396D01*
X154852527Y-149011264D01*
X154652762Y-149051000D01*
X154347238Y-149051000D01*
X154147473Y-149011264D01*
X154047590Y-148991396D01*
X153765326Y-148874479D01*
X153511295Y-148704741D01*
X153295259Y-148488705D01*
X153125521Y-148234674D01*
X153008604Y-147952410D01*
X152988736Y-147852527D01*
X152949000Y-147652762D01*
X152949000Y-147347238D01*
X153008604Y-147047591D01*
X153008604Y-147047590D01*
X153125521Y-146765326D01*
X153295259Y-146511295D01*
X153511295Y-146295259D01*
X153765326Y-146125521D01*
X154047590Y-146008604D01*
X154147473Y-145988736D01*
X154347238Y-145949000D01*
X154652762Y-145949000D01*
X154852527Y-145988736D01*
X154852527Y-145988736D01*
G37*
G36*
X164276000Y-148401000D02*
X163724000Y-148401000D01*
X163724000Y-147699000D01*
X164276000Y-147699000D01*
X164276000Y-148401000D01*
X164276000Y-148401000D01*
G37*
G36*
X160929485Y-144298996D02*
X160929487Y-144298997D01*
X160929488Y-144298997D01*
X161166255Y-144397069D01*
X161379342Y-144539449D01*
X161560551Y-144720658D01*
X161702931Y-144933745D01*
X161801004Y-145170515D01*
X161851000Y-145421861D01*
X161851000Y-145678139D01*
X161801004Y-145929485D01*
X161702931Y-146166255D01*
X161560551Y-146379342D01*
X161379342Y-146560551D01*
X161379339Y-146560553D01*
X161166255Y-146702931D01*
X160929488Y-146801003D01*
X160929487Y-146801003D01*
X160929485Y-146801004D01*
X160678139Y-146851000D01*
X160421861Y-146851000D01*
X160170515Y-146801004D01*
X160170513Y-146801003D01*
X160170512Y-146801003D01*
X159933745Y-146702931D01*
X159720661Y-146560553D01*
X159720658Y-146560551D01*
X159539449Y-146379342D01*
X159397069Y-146166255D01*
X159298996Y-145929485D01*
X159249000Y-145678139D01*
X159249000Y-145421861D01*
X159298996Y-145170515D01*
X159397069Y-144933745D01*
X159539449Y-144720658D01*
X159720658Y-144539449D01*
X159933745Y-144397069D01*
X160170512Y-144298997D01*
X160170513Y-144298997D01*
X160170515Y-144298996D01*
X160421861Y-144249000D01*
X160678139Y-144249000D01*
X160929485Y-144298996D01*
X160929485Y-144298996D01*
G37*
G36*
X148929485Y-144298996D02*
X148929487Y-144298997D01*
X148929488Y-144298997D01*
X149166255Y-144397069D01*
X149379342Y-144539449D01*
X149560551Y-144720658D01*
X149702931Y-144933745D01*
X149801004Y-145170515D01*
X149851000Y-145421861D01*
X149851000Y-145678139D01*
X149801004Y-145929485D01*
X149702931Y-146166255D01*
X149560551Y-146379342D01*
X149379342Y-146560551D01*
X149379339Y-146560553D01*
X149166255Y-146702931D01*
X148929488Y-146801003D01*
X148929487Y-146801003D01*
X148929485Y-146801004D01*
X148678139Y-146851000D01*
X148421861Y-146851000D01*
X148170515Y-146801004D01*
X148170513Y-146801003D01*
X148170512Y-146801003D01*
X147933745Y-146702931D01*
X147720661Y-146560553D01*
X147720658Y-146560551D01*
X147539449Y-146379342D01*
X147397069Y-146166255D01*
X147298996Y-145929485D01*
X147249000Y-145678139D01*
X147249000Y-145421861D01*
X147298996Y-145170515D01*
X147397069Y-144933745D01*
X147539449Y-144720658D01*
X147720658Y-144539449D01*
X147933745Y-144397069D01*
X148170512Y-144298997D01*
X148170513Y-144298997D01*
X148170515Y-144298996D01*
X148421861Y-144249000D01*
X148678139Y-144249000D01*
X148929485Y-144298996D01*
X148929485Y-144298996D01*
G37*
G36*
X164276000Y-146301000D02*
X163724000Y-146301000D01*
X163724000Y-145599000D01*
X164276000Y-145599000D01*
X164276000Y-146301000D01*
X164276000Y-146301000D01*
G37*
G36*
X166451000Y-144101000D02*
X165549000Y-144101000D01*
X165549000Y-142199000D01*
X166451000Y-142199000D01*
X166451000Y-144101000D01*
X166451000Y-144101000D01*
G37*
G36*
X142922982Y-141832244D02*
X142960669Y-141843677D01*
X142995408Y-141862245D01*
X143025853Y-141887231D01*
X143050839Y-141917676D01*
X143069407Y-141952415D01*
X143080840Y-141990102D01*
X143085305Y-142035440D01*
X143085305Y-143122118D01*
X143080840Y-143167456D01*
X143069407Y-143205143D01*
X143050839Y-143239882D01*
X143025853Y-143270327D01*
X142995408Y-143295313D01*
X142960669Y-143313881D01*
X142922982Y-143325314D01*
X142877644Y-143329779D01*
X142040966Y-143329779D01*
X141995628Y-143325314D01*
X141957941Y-143313881D01*
X141923202Y-143295313D01*
X141892757Y-143270327D01*
X141867771Y-143239882D01*
X141849203Y-143205143D01*
X141837770Y-143167456D01*
X141833305Y-143122118D01*
X141833305Y-142035440D01*
X141837770Y-141990102D01*
X141849203Y-141952415D01*
X141867771Y-141917676D01*
X141892757Y-141887231D01*
X141923202Y-141862245D01*
X141957941Y-141843677D01*
X141995628Y-141832244D01*
X142040966Y-141827779D01*
X142877644Y-141827779D01*
X142922982Y-141832244D01*
X142922982Y-141832244D01*
G37*
G36*
X140872982Y-141832244D02*
X140910669Y-141843677D01*
X140945408Y-141862245D01*
X140975853Y-141887231D01*
X141000839Y-141917676D01*
X141019407Y-141952415D01*
X141030840Y-141990102D01*
X141035305Y-142035440D01*
X141035305Y-143122118D01*
X141030840Y-143167456D01*
X141019407Y-143205143D01*
X141000839Y-143239882D01*
X140975853Y-143270327D01*
X140945408Y-143295313D01*
X140910669Y-143313881D01*
X140872982Y-143325314D01*
X140827644Y-143329779D01*
X139990966Y-143329779D01*
X139945628Y-143325314D01*
X139907941Y-143313881D01*
X139873202Y-143295313D01*
X139842757Y-143270327D01*
X139817771Y-143239882D01*
X139799203Y-143205143D01*
X139787770Y-143167456D01*
X139783305Y-143122118D01*
X139783305Y-142035440D01*
X139787770Y-141990102D01*
X139799203Y-141952415D01*
X139817771Y-141917676D01*
X139842757Y-141887231D01*
X139873202Y-141862245D01*
X139907941Y-141843677D01*
X139945628Y-141832244D01*
X139990966Y-141827779D01*
X140827644Y-141827779D01*
X140872982Y-141832244D01*
X140872982Y-141832244D01*
G37*
G36*
X145405087Y-137332074D02*
X145441120Y-137343005D01*
X145474333Y-137360758D01*
X145503439Y-137384645D01*
X145527326Y-137413751D01*
X145545079Y-137446964D01*
X145556010Y-137482997D01*
X145560305Y-137526609D01*
X145560305Y-140630949D01*
X145556010Y-140674561D01*
X145545079Y-140710594D01*
X145527326Y-140743807D01*
X145503439Y-140772913D01*
X145474333Y-140796800D01*
X145441120Y-140814553D01*
X145405087Y-140825484D01*
X145361475Y-140829779D01*
X144357135Y-140829779D01*
X144313523Y-140825484D01*
X144277490Y-140814553D01*
X144244277Y-140796800D01*
X144215171Y-140772913D01*
X144191284Y-140743807D01*
X144173531Y-140710594D01*
X144162600Y-140674561D01*
X144158305Y-140630949D01*
X144158305Y-137526609D01*
X144162600Y-137482997D01*
X144173531Y-137446964D01*
X144191284Y-137413751D01*
X144215171Y-137384645D01*
X144244277Y-137360758D01*
X144277490Y-137343005D01*
X144313523Y-137332074D01*
X144357135Y-137327779D01*
X145361475Y-137327779D01*
X145405087Y-137332074D01*
X145405087Y-137332074D01*
G37*
G36*
X140955087Y-137332074D02*
X140991120Y-137343005D01*
X141024333Y-137360758D01*
X141053439Y-137384645D01*
X141077326Y-137413751D01*
X141095079Y-137446964D01*
X141106010Y-137482997D01*
X141110305Y-137526609D01*
X141110305Y-140630949D01*
X141106010Y-140674561D01*
X141095079Y-140710594D01*
X141077326Y-140743807D01*
X141053439Y-140772913D01*
X141024333Y-140796800D01*
X140991120Y-140814553D01*
X140955087Y-140825484D01*
X140911475Y-140829779D01*
X139907135Y-140829779D01*
X139863523Y-140825484D01*
X139827490Y-140814553D01*
X139794277Y-140796800D01*
X139765171Y-140772913D01*
X139741284Y-140743807D01*
X139723531Y-140710594D01*
X139712600Y-140674561D01*
X139708305Y-140630949D01*
X139708305Y-137526609D01*
X139712600Y-137482997D01*
X139723531Y-137446964D01*
X139741284Y-137413751D01*
X139765171Y-137384645D01*
X139794277Y-137360758D01*
X139827490Y-137343005D01*
X139863523Y-137332074D01*
X139907135Y-137327779D01*
X140911475Y-137327779D01*
X140955087Y-137332074D01*
X140955087Y-137332074D01*
G37*
G36*
X167401000Y-140801000D02*
X166499000Y-140801000D01*
X166499000Y-138899000D01*
X167401000Y-138899000D01*
X167401000Y-140801000D01*
X167401000Y-140801000D01*
G37*
G36*
X165501000Y-140801000D02*
X164599000Y-140801000D01*
X164599000Y-138899000D01*
X165501000Y-138899000D01*
X165501000Y-140801000D01*
X165501000Y-140801000D01*
G37*
G36*
X173810918Y-138252934D02*
X173843424Y-138262795D01*
X173873383Y-138278808D01*
X173899641Y-138300359D01*
X173921192Y-138326617D01*
X173937205Y-138356576D01*
X173947066Y-138389082D01*
X173951000Y-138429029D01*
X173951000Y-139970971D01*
X173947066Y-140010918D01*
X173937205Y-140043424D01*
X173921192Y-140073383D01*
X173899641Y-140099641D01*
X173873383Y-140121192D01*
X173843424Y-140137205D01*
X173810918Y-140147066D01*
X173770971Y-140151000D01*
X170229029Y-140151000D01*
X170189082Y-140147066D01*
X170156576Y-140137205D01*
X170126617Y-140121192D01*
X170100359Y-140099641D01*
X170078808Y-140073383D01*
X170062795Y-140043424D01*
X170052934Y-140010918D01*
X170049000Y-139970971D01*
X170049000Y-138429029D01*
X170052934Y-138389082D01*
X170062795Y-138356576D01*
X170078808Y-138326617D01*
X170100359Y-138300359D01*
X170126617Y-138278808D01*
X170156576Y-138262795D01*
X170189082Y-138252934D01*
X170229029Y-138249000D01*
X173770971Y-138249000D01*
X173810918Y-138252934D01*
X173810918Y-138252934D01*
G37*
G36*
X168669683Y-136152725D02*
X168700144Y-136161966D01*
X168728223Y-136176975D01*
X168752831Y-136197169D01*
X168773025Y-136221777D01*
X168788034Y-136249856D01*
X168797275Y-136280317D01*
X168801000Y-136318140D01*
X168801000Y-136881860D01*
X168797275Y-136919683D01*
X168788034Y-136950144D01*
X168773025Y-136978223D01*
X168752831Y-137002831D01*
X168728223Y-137023025D01*
X168700144Y-137038034D01*
X168669683Y-137047275D01*
X168631860Y-137051000D01*
X165968140Y-137051000D01*
X165930317Y-137047275D01*
X165899856Y-137038034D01*
X165871777Y-137023025D01*
X165847169Y-137002831D01*
X165826975Y-136978223D01*
X165811966Y-136950144D01*
X165802725Y-136919683D01*
X165799000Y-136881860D01*
X165799000Y-136318140D01*
X165802725Y-136280317D01*
X165811966Y-136249856D01*
X165826975Y-136221777D01*
X165847169Y-136197169D01*
X165871777Y-136176975D01*
X165899856Y-136161966D01*
X165930317Y-136152725D01*
X165968140Y-136149000D01*
X168631860Y-136149000D01*
X168669683Y-136152725D01*
X168669683Y-136152725D01*
G37*
G36*
X143372982Y-134832244D02*
X143410669Y-134843677D01*
X143445408Y-134862245D01*
X143475853Y-134887231D01*
X143500839Y-134917676D01*
X143519407Y-134952415D01*
X143530840Y-134990102D01*
X143535305Y-135035440D01*
X143535305Y-136122118D01*
X143530840Y-136167456D01*
X143519407Y-136205143D01*
X143500839Y-136239882D01*
X143475853Y-136270327D01*
X143445408Y-136295313D01*
X143410669Y-136313881D01*
X143372982Y-136325314D01*
X143327644Y-136329779D01*
X142490966Y-136329779D01*
X142445628Y-136325314D01*
X142407941Y-136313881D01*
X142373202Y-136295313D01*
X142342757Y-136270327D01*
X142317771Y-136239882D01*
X142299203Y-136205143D01*
X142287770Y-136167456D01*
X142283305Y-136122118D01*
X142283305Y-135035440D01*
X142287770Y-134990102D01*
X142299203Y-134952415D01*
X142317771Y-134917676D01*
X142342757Y-134887231D01*
X142373202Y-134862245D01*
X142407941Y-134843677D01*
X142445628Y-134832244D01*
X142490966Y-134827779D01*
X143327644Y-134827779D01*
X143372982Y-134832244D01*
X143372982Y-134832244D01*
G37*
G36*
X145422982Y-134832244D02*
X145460669Y-134843677D01*
X145495408Y-134862245D01*
X145525853Y-134887231D01*
X145550839Y-134917676D01*
X145569407Y-134952415D01*
X145580840Y-134990102D01*
X145585305Y-135035440D01*
X145585305Y-136122118D01*
X145580840Y-136167456D01*
X145569407Y-136205143D01*
X145550839Y-136239882D01*
X145525853Y-136270327D01*
X145495408Y-136295313D01*
X145460669Y-136313881D01*
X145422982Y-136325314D01*
X145377644Y-136329779D01*
X144540966Y-136329779D01*
X144495628Y-136325314D01*
X144457941Y-136313881D01*
X144423202Y-136295313D01*
X144392757Y-136270327D01*
X144367771Y-136239882D01*
X144349203Y-136205143D01*
X144337770Y-136167456D01*
X144333305Y-136122118D01*
X144333305Y-135035440D01*
X144337770Y-134990102D01*
X144349203Y-134952415D01*
X144367771Y-134917676D01*
X144392757Y-134887231D01*
X144423202Y-134862245D01*
X144457941Y-134843677D01*
X144495628Y-134832244D01*
X144540966Y-134827779D01*
X145377644Y-134827779D01*
X145422982Y-134832244D01*
X145422982Y-134832244D01*
G37*
G36*
X168669683Y-134652725D02*
X168700144Y-134661966D01*
X168728223Y-134676975D01*
X168752831Y-134697169D01*
X168773025Y-134721777D01*
X168788034Y-134749856D01*
X168797275Y-134780317D01*
X168801000Y-134818140D01*
X168801000Y-135381860D01*
X168797275Y-135419683D01*
X168788034Y-135450144D01*
X168773025Y-135478223D01*
X168752831Y-135502831D01*
X168728223Y-135523025D01*
X168700144Y-135538034D01*
X168669683Y-135547275D01*
X168631860Y-135551000D01*
X165968140Y-135551000D01*
X165930317Y-135547275D01*
X165899856Y-135538034D01*
X165871777Y-135523025D01*
X165847169Y-135502831D01*
X165826975Y-135478223D01*
X165811966Y-135450144D01*
X165802725Y-135419683D01*
X165799000Y-135381860D01*
X165799000Y-134818140D01*
X165802725Y-134780317D01*
X165811966Y-134749856D01*
X165826975Y-134721777D01*
X165847169Y-134697169D01*
X165871777Y-134676975D01*
X165899856Y-134661966D01*
X165930317Y-134652725D01*
X165968140Y-134649000D01*
X168631860Y-134649000D01*
X168669683Y-134652725D01*
X168669683Y-134652725D01*
G37*
G36*
X160876691Y-131833597D02*
X161002410Y-131858604D01*
X161284674Y-131975521D01*
X161538705Y-132145259D01*
X161754741Y-132361295D01*
X161924479Y-132615326D01*
X162041396Y-132897590D01*
X162041396Y-132897591D01*
X162092267Y-133153333D01*
X162101000Y-133197240D01*
X162101000Y-133502760D01*
X162041396Y-133802410D01*
X161924479Y-134084674D01*
X161754741Y-134338705D01*
X161538705Y-134554741D01*
X161284674Y-134724479D01*
X161002410Y-134841396D01*
X160954127Y-134851000D01*
X160702762Y-134901000D01*
X160397238Y-134901000D01*
X160145873Y-134851000D01*
X160097590Y-134841396D01*
X159815326Y-134724479D01*
X159561295Y-134554741D01*
X159345259Y-134338705D01*
X159175521Y-134084674D01*
X159058604Y-133802410D01*
X158999000Y-133502760D01*
X158999000Y-133197240D01*
X159007734Y-133153333D01*
X159058604Y-132897591D01*
X159058604Y-132897590D01*
X159175521Y-132615326D01*
X159345259Y-132361295D01*
X159561295Y-132145259D01*
X159815326Y-131975521D01*
X160097590Y-131858604D01*
X160223309Y-131833597D01*
X160397238Y-131799000D01*
X160702762Y-131799000D01*
X160876691Y-131833597D01*
X160876691Y-131833597D01*
G37*
G36*
X148848455Y-131787926D02*
X148952410Y-131808604D01*
X149234674Y-131925521D01*
X149488705Y-132095259D01*
X149704741Y-132311295D01*
X149874479Y-132565326D01*
X149895190Y-132615328D01*
X149991396Y-132847591D01*
X150051000Y-133147238D01*
X150051000Y-133452762D01*
X150041054Y-133502762D01*
X149991396Y-133752410D01*
X149874479Y-134034674D01*
X149704741Y-134288705D01*
X149488705Y-134504741D01*
X149234674Y-134674479D01*
X148952410Y-134791396D01*
X148852527Y-134811264D01*
X148652762Y-134851000D01*
X148347238Y-134851000D01*
X148147473Y-134811264D01*
X148047590Y-134791396D01*
X147765326Y-134674479D01*
X147511295Y-134504741D01*
X147295259Y-134288705D01*
X147125521Y-134034674D01*
X147008604Y-133752410D01*
X146958946Y-133502762D01*
X146949000Y-133452762D01*
X146949000Y-133147238D01*
X147008604Y-132847591D01*
X147104810Y-132615328D01*
X147125521Y-132565326D01*
X147295259Y-132311295D01*
X147511295Y-132095259D01*
X147765326Y-131925521D01*
X148047590Y-131808604D01*
X148151545Y-131787926D01*
X148347238Y-131749000D01*
X148652762Y-131749000D01*
X148848455Y-131787926D01*
X148848455Y-131787926D01*
G37*
G36*
X168669683Y-133152725D02*
X168700144Y-133161966D01*
X168728223Y-133176975D01*
X168752831Y-133197169D01*
X168773025Y-133221777D01*
X168788034Y-133249856D01*
X168797275Y-133280317D01*
X168801000Y-133318140D01*
X168801000Y-133881860D01*
X168797275Y-133919683D01*
X168788034Y-133950144D01*
X168773025Y-133978223D01*
X168752831Y-134002831D01*
X168728223Y-134023025D01*
X168700144Y-134038034D01*
X168669683Y-134047275D01*
X168631860Y-134051000D01*
X165968140Y-134051000D01*
X165930317Y-134047275D01*
X165899856Y-134038034D01*
X165871777Y-134023025D01*
X165847169Y-134002831D01*
X165826975Y-133978223D01*
X165811966Y-133950144D01*
X165802725Y-133919683D01*
X165799000Y-133881860D01*
X165799000Y-133318140D01*
X165802725Y-133280317D01*
X165811966Y-133249856D01*
X165826975Y-133221777D01*
X165847169Y-133197169D01*
X165871777Y-133176975D01*
X165899856Y-133161966D01*
X165930317Y-133152725D01*
X165968140Y-133149000D01*
X168631860Y-133149000D01*
X168669683Y-133152725D01*
X168669683Y-133152725D01*
G37*
G36*
X173810918Y-130052934D02*
X173843424Y-130062795D01*
X173873383Y-130078808D01*
X173899641Y-130100359D01*
X173921192Y-130126617D01*
X173937205Y-130156576D01*
X173947066Y-130189082D01*
X173951000Y-130229029D01*
X173951000Y-131770971D01*
X173947066Y-131810918D01*
X173937205Y-131843424D01*
X173921192Y-131873383D01*
X173899641Y-131899641D01*
X173873383Y-131921192D01*
X173843424Y-131937205D01*
X173810918Y-131947066D01*
X173770971Y-131951000D01*
X170229029Y-131951000D01*
X170189082Y-131947066D01*
X170156576Y-131937205D01*
X170126617Y-131921192D01*
X170100359Y-131899641D01*
X170078808Y-131873383D01*
X170062795Y-131843424D01*
X170052934Y-131810918D01*
X170049000Y-131770971D01*
X170049000Y-130229029D01*
X170052934Y-130189082D01*
X170062795Y-130156576D01*
X170078808Y-130126617D01*
X170100359Y-130100359D01*
X170126617Y-130078808D01*
X170156576Y-130062795D01*
X170189082Y-130052934D01*
X170229029Y-130049000D01*
X173770971Y-130049000D01*
X173810918Y-130052934D01*
X173810918Y-130052934D01*
G37*
G36*
X140610442Y-129145518D02*
X140676627Y-129152037D01*
X140789853Y-129186384D01*
X140846467Y-129203557D01*
X140985087Y-129277652D01*
X141002991Y-129287222D01*
X141038729Y-129316552D01*
X141140186Y-129399814D01*
X141223448Y-129501271D01*
X141252778Y-129537009D01*
X141252779Y-129537011D01*
X141336443Y-129693533D01*
X141336443Y-129693534D01*
X141387963Y-129863373D01*
X141405359Y-130040000D01*
X141387963Y-130216627D01*
X141358678Y-130313166D01*
X141336443Y-130386467D01*
X141262348Y-130525087D01*
X141252778Y-130542991D01*
X141223448Y-130578729D01*
X141140186Y-130680186D01*
X141038729Y-130763448D01*
X141002991Y-130792778D01*
X141002989Y-130792779D01*
X140846467Y-130876443D01*
X140789853Y-130893616D01*
X140676627Y-130927963D01*
X140610442Y-130934482D01*
X140544260Y-130941000D01*
X140455740Y-130941000D01*
X140389558Y-130934482D01*
X140323373Y-130927963D01*
X140210147Y-130893616D01*
X140153533Y-130876443D01*
X139997011Y-130792779D01*
X139997009Y-130792778D01*
X139961271Y-130763448D01*
X139859814Y-130680186D01*
X139776552Y-130578729D01*
X139747222Y-130542991D01*
X139737652Y-130525087D01*
X139663557Y-130386467D01*
X139641322Y-130313166D01*
X139612037Y-130216627D01*
X139594641Y-130040000D01*
X139612037Y-129863373D01*
X139663557Y-129693534D01*
X139663557Y-129693533D01*
X139747221Y-129537011D01*
X139747222Y-129537009D01*
X139776552Y-129501271D01*
X139859814Y-129399814D01*
X139961271Y-129316552D01*
X139997009Y-129287222D01*
X140014913Y-129277652D01*
X140153533Y-129203557D01*
X140210147Y-129186384D01*
X140323373Y-129152037D01*
X140389558Y-129145518D01*
X140455740Y-129139000D01*
X140544260Y-129139000D01*
X140610442Y-129145518D01*
X140610442Y-129145518D01*
G37*
G36*
X141401000Y-128401000D02*
X139599000Y-128401000D01*
X139599000Y-126599000D01*
X141401000Y-126599000D01*
X141401000Y-128401000D01*
X141401000Y-128401000D01*
G37*
G36*
X168517003Y-126212600D02*
X168553036Y-126223531D01*
X168586249Y-126241284D01*
X168615355Y-126265171D01*
X168639242Y-126294277D01*
X168656995Y-126327490D01*
X168667926Y-126363523D01*
X168672221Y-126407135D01*
X168672221Y-127411475D01*
X168667926Y-127455087D01*
X168656995Y-127491120D01*
X168639242Y-127524333D01*
X168615355Y-127553439D01*
X168586249Y-127577326D01*
X168553036Y-127595079D01*
X168517003Y-127606010D01*
X168473391Y-127610305D01*
X165369051Y-127610305D01*
X165325439Y-127606010D01*
X165289406Y-127595079D01*
X165256193Y-127577326D01*
X165227087Y-127553439D01*
X165203200Y-127524333D01*
X165185447Y-127491120D01*
X165174516Y-127455087D01*
X165170221Y-127411475D01*
X165170221Y-126407135D01*
X165174516Y-126363523D01*
X165185447Y-126327490D01*
X165203200Y-126294277D01*
X165227087Y-126265171D01*
X165256193Y-126241284D01*
X165289406Y-126223531D01*
X165325439Y-126212600D01*
X165369051Y-126208305D01*
X168473391Y-126208305D01*
X168517003Y-126212600D01*
X168517003Y-126212600D01*
G37*
G36*
X171009898Y-126337770D02*
X171047585Y-126349203D01*
X171082324Y-126367771D01*
X171112769Y-126392757D01*
X171137755Y-126423202D01*
X171156323Y-126457941D01*
X171167756Y-126495628D01*
X171172221Y-126540966D01*
X171172221Y-127377644D01*
X171167756Y-127422982D01*
X171156323Y-127460669D01*
X171137755Y-127495408D01*
X171112769Y-127525853D01*
X171082324Y-127550839D01*
X171047585Y-127569407D01*
X171009898Y-127580840D01*
X170964560Y-127585305D01*
X169877882Y-127585305D01*
X169832544Y-127580840D01*
X169794857Y-127569407D01*
X169760118Y-127550839D01*
X169729673Y-127525853D01*
X169704687Y-127495408D01*
X169686119Y-127460669D01*
X169674686Y-127422982D01*
X169670221Y-127377644D01*
X169670221Y-126540966D01*
X169674686Y-126495628D01*
X169686119Y-126457941D01*
X169704687Y-126423202D01*
X169729673Y-126392757D01*
X169760118Y-126367771D01*
X169794857Y-126349203D01*
X169832544Y-126337770D01*
X169877882Y-126333305D01*
X170964560Y-126333305D01*
X171009898Y-126337770D01*
X171009898Y-126337770D01*
G37*
G36*
X161509898Y-126337770D02*
X161547585Y-126349203D01*
X161582324Y-126367771D01*
X161612769Y-126392757D01*
X161637755Y-126423202D01*
X161656323Y-126457941D01*
X161667756Y-126495628D01*
X161672221Y-126540966D01*
X161672221Y-127377644D01*
X161667756Y-127422982D01*
X161656323Y-127460669D01*
X161637755Y-127495408D01*
X161612769Y-127525853D01*
X161582324Y-127550839D01*
X161547585Y-127569407D01*
X161509898Y-127580840D01*
X161464560Y-127585305D01*
X160377882Y-127585305D01*
X160332544Y-127580840D01*
X160294857Y-127569407D01*
X160260118Y-127550839D01*
X160229673Y-127525853D01*
X160204687Y-127495408D01*
X160186119Y-127460669D01*
X160174686Y-127422982D01*
X160170221Y-127377644D01*
X160170221Y-126540966D01*
X160174686Y-126495628D01*
X160186119Y-126457941D01*
X160204687Y-126423202D01*
X160229673Y-126392757D01*
X160260118Y-126367771D01*
X160294857Y-126349203D01*
X160332544Y-126337770D01*
X160377882Y-126333305D01*
X161464560Y-126333305D01*
X161509898Y-126337770D01*
X161509898Y-126337770D01*
G37*
G36*
X159017003Y-126162600D02*
X159053036Y-126173531D01*
X159086249Y-126191284D01*
X159115355Y-126215171D01*
X159139242Y-126244277D01*
X159156995Y-126277490D01*
X159167926Y-126313523D01*
X159172221Y-126357135D01*
X159172221Y-127361475D01*
X159167926Y-127405087D01*
X159156995Y-127441120D01*
X159139242Y-127474333D01*
X159115355Y-127503439D01*
X159086249Y-127527326D01*
X159053036Y-127545079D01*
X159017003Y-127556010D01*
X158973391Y-127560305D01*
X155869051Y-127560305D01*
X155825439Y-127556010D01*
X155789406Y-127545079D01*
X155756193Y-127527326D01*
X155727087Y-127503439D01*
X155703200Y-127474333D01*
X155685447Y-127441120D01*
X155674516Y-127405087D01*
X155670221Y-127361475D01*
X155670221Y-126357135D01*
X155674516Y-126313523D01*
X155685447Y-126277490D01*
X155703200Y-126244277D01*
X155727087Y-126215171D01*
X155756193Y-126191284D01*
X155789406Y-126173531D01*
X155825439Y-126162600D01*
X155869051Y-126158305D01*
X158973391Y-126158305D01*
X159017003Y-126162600D01*
X159017003Y-126162600D01*
G37*
G36*
X149573273Y-126106330D02*
X149609306Y-126117261D01*
X149642519Y-126135014D01*
X149671625Y-126158901D01*
X149695512Y-126188007D01*
X149713265Y-126221220D01*
X149724196Y-126257253D01*
X149728491Y-126300865D01*
X149728491Y-127305205D01*
X149724196Y-127348817D01*
X149713265Y-127384850D01*
X149695512Y-127418063D01*
X149671625Y-127447169D01*
X149642519Y-127471056D01*
X149609306Y-127488809D01*
X149573273Y-127499740D01*
X149529661Y-127504035D01*
X146425321Y-127504035D01*
X146381709Y-127499740D01*
X146345676Y-127488809D01*
X146312463Y-127471056D01*
X146283357Y-127447169D01*
X146259470Y-127418063D01*
X146241717Y-127384850D01*
X146230786Y-127348817D01*
X146226491Y-127305205D01*
X146226491Y-126300865D01*
X146230786Y-126257253D01*
X146241717Y-126221220D01*
X146259470Y-126188007D01*
X146283357Y-126158901D01*
X146312463Y-126135014D01*
X146345676Y-126117261D01*
X146381709Y-126106330D01*
X146425321Y-126102035D01*
X149529661Y-126102035D01*
X149573273Y-126106330D01*
X149573273Y-126106330D01*
G37*
G36*
X152066168Y-126231500D02*
X152103855Y-126242933D01*
X152138594Y-126261501D01*
X152169039Y-126286487D01*
X152194025Y-126316932D01*
X152212593Y-126351671D01*
X152224026Y-126389358D01*
X152228491Y-126434696D01*
X152228491Y-127271374D01*
X152224026Y-127316712D01*
X152212593Y-127354399D01*
X152194025Y-127389138D01*
X152169039Y-127419583D01*
X152138594Y-127444569D01*
X152103855Y-127463137D01*
X152066168Y-127474570D01*
X152020830Y-127479035D01*
X150934152Y-127479035D01*
X150888814Y-127474570D01*
X150851127Y-127463137D01*
X150816388Y-127444569D01*
X150785943Y-127419583D01*
X150760957Y-127389138D01*
X150742389Y-127354399D01*
X150730956Y-127316712D01*
X150726491Y-127271374D01*
X150726491Y-126434696D01*
X150730956Y-126389358D01*
X150742389Y-126351671D01*
X150760957Y-126316932D01*
X150785943Y-126286487D01*
X150816388Y-126261501D01*
X150851127Y-126242933D01*
X150888814Y-126231500D01*
X150934152Y-126227035D01*
X152020830Y-126227035D01*
X152066168Y-126231500D01*
X152066168Y-126231500D01*
G37*
G36*
X161509898Y-124287770D02*
X161547585Y-124299203D01*
X161582324Y-124317771D01*
X161612769Y-124342757D01*
X161637755Y-124373202D01*
X161656323Y-124407941D01*
X161667756Y-124445628D01*
X161672221Y-124490966D01*
X161672221Y-125327644D01*
X161667756Y-125372982D01*
X161656323Y-125410669D01*
X161637755Y-125445408D01*
X161612769Y-125475853D01*
X161582324Y-125500839D01*
X161547585Y-125519407D01*
X161509898Y-125530840D01*
X161464560Y-125535305D01*
X160377882Y-125535305D01*
X160332544Y-125530840D01*
X160294857Y-125519407D01*
X160260118Y-125500839D01*
X160229673Y-125475853D01*
X160204687Y-125445408D01*
X160186119Y-125410669D01*
X160174686Y-125372982D01*
X160170221Y-125327644D01*
X160170221Y-124490966D01*
X160174686Y-124445628D01*
X160186119Y-124407941D01*
X160204687Y-124373202D01*
X160229673Y-124342757D01*
X160260118Y-124317771D01*
X160294857Y-124299203D01*
X160332544Y-124287770D01*
X160377882Y-124283305D01*
X161464560Y-124283305D01*
X161509898Y-124287770D01*
X161509898Y-124287770D01*
G37*
G36*
X171009898Y-124287770D02*
X171047585Y-124299203D01*
X171082324Y-124317771D01*
X171112769Y-124342757D01*
X171137755Y-124373202D01*
X171156323Y-124407941D01*
X171167756Y-124445628D01*
X171172221Y-124490966D01*
X171172221Y-125327644D01*
X171167756Y-125372982D01*
X171156323Y-125410669D01*
X171137755Y-125445408D01*
X171112769Y-125475853D01*
X171082324Y-125500839D01*
X171047585Y-125519407D01*
X171009898Y-125530840D01*
X170964560Y-125535305D01*
X169877882Y-125535305D01*
X169832544Y-125530840D01*
X169794857Y-125519407D01*
X169760118Y-125500839D01*
X169729673Y-125475853D01*
X169704687Y-125445408D01*
X169686119Y-125410669D01*
X169674686Y-125372982D01*
X169670221Y-125327644D01*
X169670221Y-124490966D01*
X169674686Y-124445628D01*
X169686119Y-124407941D01*
X169704687Y-124373202D01*
X169729673Y-124342757D01*
X169760118Y-124317771D01*
X169794857Y-124299203D01*
X169832544Y-124287770D01*
X169877882Y-124283305D01*
X170964560Y-124283305D01*
X171009898Y-124287770D01*
X171009898Y-124287770D01*
G37*
G36*
X152066168Y-124181500D02*
X152103855Y-124192933D01*
X152138594Y-124211501D01*
X152169039Y-124236487D01*
X152194025Y-124266932D01*
X152212593Y-124301671D01*
X152224026Y-124339358D01*
X152228491Y-124384696D01*
X152228491Y-125221374D01*
X152224026Y-125266712D01*
X152212593Y-125304399D01*
X152194025Y-125339138D01*
X152169039Y-125369583D01*
X152138594Y-125394569D01*
X152103855Y-125413137D01*
X152066168Y-125424570D01*
X152020830Y-125429035D01*
X150934152Y-125429035D01*
X150888814Y-125424570D01*
X150851127Y-125413137D01*
X150816388Y-125394569D01*
X150785943Y-125369583D01*
X150760957Y-125339138D01*
X150742389Y-125304399D01*
X150730956Y-125266712D01*
X150726491Y-125221374D01*
X150726491Y-124384696D01*
X150730956Y-124339358D01*
X150742389Y-124301671D01*
X150760957Y-124266932D01*
X150785943Y-124236487D01*
X150816388Y-124211501D01*
X150851127Y-124192933D01*
X150888814Y-124181500D01*
X150934152Y-124177035D01*
X152020830Y-124177035D01*
X152066168Y-124181500D01*
X152066168Y-124181500D01*
G37*
G36*
X154509898Y-123837770D02*
X154547585Y-123849203D01*
X154582324Y-123867771D01*
X154612769Y-123892757D01*
X154637755Y-123923202D01*
X154656323Y-123957941D01*
X154667756Y-123995628D01*
X154672221Y-124040966D01*
X154672221Y-124877644D01*
X154667756Y-124922982D01*
X154656323Y-124960669D01*
X154637755Y-124995408D01*
X154612769Y-125025853D01*
X154582324Y-125050839D01*
X154547585Y-125069407D01*
X154509898Y-125080840D01*
X154464560Y-125085305D01*
X153377882Y-125085305D01*
X153332544Y-125080840D01*
X153294857Y-125069407D01*
X153260118Y-125050839D01*
X153229673Y-125025853D01*
X153204687Y-124995408D01*
X153186119Y-124960669D01*
X153174686Y-124922982D01*
X153170221Y-124877644D01*
X153170221Y-124040966D01*
X153174686Y-123995628D01*
X153186119Y-123957941D01*
X153204687Y-123923202D01*
X153229673Y-123892757D01*
X153260118Y-123867771D01*
X153294857Y-123849203D01*
X153332544Y-123837770D01*
X153377882Y-123833305D01*
X154464560Y-123833305D01*
X154509898Y-123837770D01*
X154509898Y-123837770D01*
G37*
G36*
X164009898Y-123787770D02*
X164047585Y-123799203D01*
X164082324Y-123817771D01*
X164112769Y-123842757D01*
X164137755Y-123873202D01*
X164156323Y-123907941D01*
X164167756Y-123945628D01*
X164172221Y-123990966D01*
X164172221Y-124827644D01*
X164167756Y-124872982D01*
X164156323Y-124910669D01*
X164137755Y-124945408D01*
X164112769Y-124975853D01*
X164082324Y-125000839D01*
X164047585Y-125019407D01*
X164009898Y-125030840D01*
X163964560Y-125035305D01*
X162877882Y-125035305D01*
X162832544Y-125030840D01*
X162794857Y-125019407D01*
X162760118Y-125000839D01*
X162729673Y-124975853D01*
X162704687Y-124945408D01*
X162686119Y-124910669D01*
X162674686Y-124872982D01*
X162670221Y-124827644D01*
X162670221Y-123990966D01*
X162674686Y-123945628D01*
X162686119Y-123907941D01*
X162704687Y-123873202D01*
X162729673Y-123842757D01*
X162760118Y-123817771D01*
X162794857Y-123799203D01*
X162832544Y-123787770D01*
X162877882Y-123783305D01*
X163964560Y-123783305D01*
X164009898Y-123787770D01*
X164009898Y-123787770D01*
G37*
G36*
X145066168Y-123731500D02*
X145103855Y-123742933D01*
X145138594Y-123761501D01*
X145169039Y-123786487D01*
X145194025Y-123816932D01*
X145212593Y-123851671D01*
X145224026Y-123889358D01*
X145228491Y-123934696D01*
X145228491Y-124771374D01*
X145224026Y-124816712D01*
X145212593Y-124854399D01*
X145194025Y-124889138D01*
X145169039Y-124919583D01*
X145138594Y-124944569D01*
X145103855Y-124963137D01*
X145066168Y-124974570D01*
X145020830Y-124979035D01*
X143934152Y-124979035D01*
X143888814Y-124974570D01*
X143851127Y-124963137D01*
X143816388Y-124944569D01*
X143785943Y-124919583D01*
X143760957Y-124889138D01*
X143742389Y-124854399D01*
X143730956Y-124816712D01*
X143726491Y-124771374D01*
X143726491Y-123934696D01*
X143730956Y-123889358D01*
X143742389Y-123851671D01*
X143760957Y-123816932D01*
X143785943Y-123786487D01*
X143816388Y-123761501D01*
X143851127Y-123742933D01*
X143888814Y-123731500D01*
X143934152Y-123727035D01*
X145020830Y-123727035D01*
X145066168Y-123731500D01*
X145066168Y-123731500D01*
G37*
G36*
X141088677Y-122428465D02*
X141126364Y-122439898D01*
X141161103Y-122458466D01*
X141191548Y-122483452D01*
X141216534Y-122513897D01*
X141235102Y-122548636D01*
X141246535Y-122586323D01*
X141251000Y-122631661D01*
X141251000Y-123468339D01*
X141246535Y-123513677D01*
X141235102Y-123551364D01*
X141216534Y-123586103D01*
X141191548Y-123616548D01*
X141161103Y-123641534D01*
X141126364Y-123660102D01*
X141088677Y-123671535D01*
X141043339Y-123676000D01*
X139956661Y-123676000D01*
X139911323Y-123671535D01*
X139873636Y-123660102D01*
X139838897Y-123641534D01*
X139808452Y-123616548D01*
X139783466Y-123586103D01*
X139764898Y-123551364D01*
X139753465Y-123513677D01*
X139749000Y-123468339D01*
X139749000Y-122631661D01*
X139753465Y-122586323D01*
X139764898Y-122548636D01*
X139783466Y-122513897D01*
X139808452Y-122483452D01*
X139838897Y-122458466D01*
X139873636Y-122439898D01*
X139911323Y-122428465D01*
X139956661Y-122424000D01*
X141043339Y-122424000D01*
X141088677Y-122428465D01*
X141088677Y-122428465D01*
G37*
G36*
X168517003Y-121762600D02*
X168553036Y-121773531D01*
X168586249Y-121791284D01*
X168615355Y-121815171D01*
X168639242Y-121844277D01*
X168656995Y-121877490D01*
X168667926Y-121913523D01*
X168672221Y-121957135D01*
X168672221Y-122961475D01*
X168667926Y-123005087D01*
X168656995Y-123041120D01*
X168639242Y-123074333D01*
X168615355Y-123103439D01*
X168586249Y-123127326D01*
X168553036Y-123145079D01*
X168517003Y-123156010D01*
X168473391Y-123160305D01*
X165369051Y-123160305D01*
X165325439Y-123156010D01*
X165289406Y-123145079D01*
X165256193Y-123127326D01*
X165227087Y-123103439D01*
X165203200Y-123074333D01*
X165185447Y-123041120D01*
X165174516Y-123005087D01*
X165170221Y-122961475D01*
X165170221Y-121957135D01*
X165174516Y-121913523D01*
X165185447Y-121877490D01*
X165203200Y-121844277D01*
X165227087Y-121815171D01*
X165256193Y-121791284D01*
X165289406Y-121773531D01*
X165325439Y-121762600D01*
X165369051Y-121758305D01*
X168473391Y-121758305D01*
X168517003Y-121762600D01*
X168517003Y-121762600D01*
G37*
G36*
X159017003Y-121712600D02*
X159053036Y-121723531D01*
X159086249Y-121741284D01*
X159115355Y-121765171D01*
X159139242Y-121794277D01*
X159156995Y-121827490D01*
X159167926Y-121863523D01*
X159172221Y-121907135D01*
X159172221Y-122911475D01*
X159167926Y-122955087D01*
X159156995Y-122991120D01*
X159139242Y-123024333D01*
X159115355Y-123053439D01*
X159086249Y-123077326D01*
X159053036Y-123095079D01*
X159017003Y-123106010D01*
X158973391Y-123110305D01*
X155869051Y-123110305D01*
X155825439Y-123106010D01*
X155789406Y-123095079D01*
X155756193Y-123077326D01*
X155727087Y-123053439D01*
X155703200Y-123024333D01*
X155685447Y-122991120D01*
X155674516Y-122955087D01*
X155670221Y-122911475D01*
X155670221Y-121907135D01*
X155674516Y-121863523D01*
X155685447Y-121827490D01*
X155703200Y-121794277D01*
X155727087Y-121765171D01*
X155756193Y-121741284D01*
X155789406Y-121723531D01*
X155825439Y-121712600D01*
X155869051Y-121708305D01*
X158973391Y-121708305D01*
X159017003Y-121712600D01*
X159017003Y-121712600D01*
G37*
G36*
X149573273Y-121656330D02*
X149609306Y-121667261D01*
X149642519Y-121685014D01*
X149671625Y-121708901D01*
X149695512Y-121738007D01*
X149713265Y-121771220D01*
X149724196Y-121807253D01*
X149728491Y-121850865D01*
X149728491Y-122855205D01*
X149724196Y-122898817D01*
X149713265Y-122934850D01*
X149695512Y-122968063D01*
X149671625Y-122997169D01*
X149642519Y-123021056D01*
X149609306Y-123038809D01*
X149573273Y-123049740D01*
X149529661Y-123054035D01*
X146425321Y-123054035D01*
X146381709Y-123049740D01*
X146345676Y-123038809D01*
X146312463Y-123021056D01*
X146283357Y-122997169D01*
X146259470Y-122968063D01*
X146241717Y-122934850D01*
X146230786Y-122898817D01*
X146226491Y-122855205D01*
X146226491Y-121850865D01*
X146230786Y-121807253D01*
X146241717Y-121771220D01*
X146259470Y-121738007D01*
X146283357Y-121708901D01*
X146312463Y-121685014D01*
X146345676Y-121667261D01*
X146381709Y-121656330D01*
X146425321Y-121652035D01*
X149529661Y-121652035D01*
X149573273Y-121656330D01*
X149573273Y-121656330D01*
G37*
G36*
X154509898Y-121787770D02*
X154547585Y-121799203D01*
X154582324Y-121817771D01*
X154612769Y-121842757D01*
X154637755Y-121873202D01*
X154656323Y-121907941D01*
X154667756Y-121945628D01*
X154672221Y-121990966D01*
X154672221Y-122827644D01*
X154667756Y-122872982D01*
X154656323Y-122910669D01*
X154637755Y-122945408D01*
X154612769Y-122975853D01*
X154582324Y-123000839D01*
X154547585Y-123019407D01*
X154509898Y-123030840D01*
X154464560Y-123035305D01*
X153377882Y-123035305D01*
X153332544Y-123030840D01*
X153294857Y-123019407D01*
X153260118Y-123000839D01*
X153229673Y-122975853D01*
X153204687Y-122945408D01*
X153186119Y-122910669D01*
X153174686Y-122872982D01*
X153170221Y-122827644D01*
X153170221Y-121990966D01*
X153174686Y-121945628D01*
X153186119Y-121907941D01*
X153204687Y-121873202D01*
X153229673Y-121842757D01*
X153260118Y-121817771D01*
X153294857Y-121799203D01*
X153332544Y-121787770D01*
X153377882Y-121783305D01*
X154464560Y-121783305D01*
X154509898Y-121787770D01*
X154509898Y-121787770D01*
G37*
G36*
X164009898Y-121737770D02*
X164047585Y-121749203D01*
X164082324Y-121767771D01*
X164112769Y-121792757D01*
X164137755Y-121823202D01*
X164156323Y-121857941D01*
X164167756Y-121895628D01*
X164172221Y-121940966D01*
X164172221Y-122777644D01*
X164167756Y-122822982D01*
X164156323Y-122860669D01*
X164137755Y-122895408D01*
X164112769Y-122925853D01*
X164082324Y-122950839D01*
X164047585Y-122969407D01*
X164009898Y-122980840D01*
X163964560Y-122985305D01*
X162877882Y-122985305D01*
X162832544Y-122980840D01*
X162794857Y-122969407D01*
X162760118Y-122950839D01*
X162729673Y-122925853D01*
X162704687Y-122895408D01*
X162686119Y-122860669D01*
X162674686Y-122822982D01*
X162670221Y-122777644D01*
X162670221Y-121940966D01*
X162674686Y-121895628D01*
X162686119Y-121857941D01*
X162704687Y-121823202D01*
X162729673Y-121792757D01*
X162760118Y-121767771D01*
X162794857Y-121749203D01*
X162832544Y-121737770D01*
X162877882Y-121733305D01*
X163964560Y-121733305D01*
X164009898Y-121737770D01*
X164009898Y-121737770D01*
G37*
G36*
X145066168Y-121681500D02*
X145103855Y-121692933D01*
X145138594Y-121711501D01*
X145169039Y-121736487D01*
X145194025Y-121766932D01*
X145212593Y-121801671D01*
X145224026Y-121839358D01*
X145228491Y-121884696D01*
X145228491Y-122721374D01*
X145224026Y-122766712D01*
X145212593Y-122804399D01*
X145194025Y-122839138D01*
X145169039Y-122869583D01*
X145138594Y-122894569D01*
X145103855Y-122913137D01*
X145066168Y-122924570D01*
X145020830Y-122929035D01*
X143934152Y-122929035D01*
X143888814Y-122924570D01*
X143851127Y-122913137D01*
X143816388Y-122894569D01*
X143785943Y-122869583D01*
X143760957Y-122839138D01*
X143742389Y-122804399D01*
X143730956Y-122766712D01*
X143726491Y-122721374D01*
X143726491Y-121884696D01*
X143730956Y-121839358D01*
X143742389Y-121801671D01*
X143760957Y-121766932D01*
X143785943Y-121736487D01*
X143816388Y-121711501D01*
X143851127Y-121692933D01*
X143888814Y-121681500D01*
X143934152Y-121677035D01*
X145020830Y-121677035D01*
X145066168Y-121681500D01*
X145066168Y-121681500D01*
G37*
G36*
X141088677Y-120378465D02*
X141126364Y-120389898D01*
X141161103Y-120408466D01*
X141191548Y-120433452D01*
X141216534Y-120463897D01*
X141235102Y-120498636D01*
X141246535Y-120536323D01*
X141251000Y-120581661D01*
X141251000Y-121418339D01*
X141246535Y-121463677D01*
X141235102Y-121501364D01*
X141216534Y-121536103D01*
X141191548Y-121566548D01*
X141161103Y-121591534D01*
X141126364Y-121610102D01*
X141088677Y-121621535D01*
X141043339Y-121626000D01*
X139956661Y-121626000D01*
X139911323Y-121621535D01*
X139873636Y-121610102D01*
X139838897Y-121591534D01*
X139808452Y-121566548D01*
X139783466Y-121536103D01*
X139764898Y-121501364D01*
X139753465Y-121463677D01*
X139749000Y-121418339D01*
X139749000Y-120581661D01*
X139753465Y-120536323D01*
X139764898Y-120498636D01*
X139783466Y-120463897D01*
X139808452Y-120433452D01*
X139838897Y-120408466D01*
X139873636Y-120389898D01*
X139911323Y-120378465D01*
X139956661Y-120374000D01*
X141043339Y-120374000D01*
X141088677Y-120378465D01*
X141088677Y-120378465D01*
G37*
G36*
X158182812Y-115133624D02*
X158346784Y-115201544D01*
X158494354Y-115300147D01*
X158619853Y-115425646D01*
X158718456Y-115573216D01*
X158786376Y-115737188D01*
X158821000Y-115911259D01*
X158821000Y-116088741D01*
X158786376Y-116262812D01*
X158718456Y-116426784D01*
X158619853Y-116574354D01*
X158494354Y-116699853D01*
X158346784Y-116798456D01*
X158182812Y-116866376D01*
X158008741Y-116901000D01*
X157831259Y-116901000D01*
X157657188Y-116866376D01*
X157493216Y-116798456D01*
X157345646Y-116699853D01*
X157220147Y-116574354D01*
X157121544Y-116426784D01*
X157053624Y-116262812D01*
X157019000Y-116088741D01*
X157019000Y-115911259D01*
X157053624Y-115737188D01*
X157121544Y-115573216D01*
X157220147Y-115425646D01*
X157345646Y-115300147D01*
X157493216Y-115201544D01*
X157657188Y-115133624D01*
X157831259Y-115099000D01*
X158008741Y-115099000D01*
X158182812Y-115133624D01*
X158182812Y-115133624D01*
G37*
G36*
X148022812Y-115133624D02*
X148186784Y-115201544D01*
X148334354Y-115300147D01*
X148459853Y-115425646D01*
X148558456Y-115573216D01*
X148626376Y-115737188D01*
X148661000Y-115911259D01*
X148661000Y-116088741D01*
X148626376Y-116262812D01*
X148558456Y-116426784D01*
X148459853Y-116574354D01*
X148334354Y-116699853D01*
X148186784Y-116798456D01*
X148022812Y-116866376D01*
X147848741Y-116901000D01*
X147671259Y-116901000D01*
X147497188Y-116866376D01*
X147333216Y-116798456D01*
X147185646Y-116699853D01*
X147060147Y-116574354D01*
X146961544Y-116426784D01*
X146893624Y-116262812D01*
X146859000Y-116088741D01*
X146859000Y-115911259D01*
X146893624Y-115737188D01*
X146961544Y-115573216D01*
X147060147Y-115425646D01*
X147185646Y-115300147D01*
X147333216Y-115201544D01*
X147497188Y-115133624D01*
X147671259Y-115099000D01*
X147848741Y-115099000D01*
X148022812Y-115133624D01*
X148022812Y-115133624D01*
G37*
G36*
X163262812Y-115133624D02*
X163426784Y-115201544D01*
X163574354Y-115300147D01*
X163699853Y-115425646D01*
X163798456Y-115573216D01*
X163866376Y-115737188D01*
X163901000Y-115911259D01*
X163901000Y-116088741D01*
X163866376Y-116262812D01*
X163798456Y-116426784D01*
X163699853Y-116574354D01*
X163574354Y-116699853D01*
X163426784Y-116798456D01*
X163262812Y-116866376D01*
X163088741Y-116901000D01*
X162911259Y-116901000D01*
X162737188Y-116866376D01*
X162573216Y-116798456D01*
X162425646Y-116699853D01*
X162300147Y-116574354D01*
X162201544Y-116426784D01*
X162133624Y-116262812D01*
X162099000Y-116088741D01*
X162099000Y-115911259D01*
X162133624Y-115737188D01*
X162201544Y-115573216D01*
X162300147Y-115425646D01*
X162425646Y-115300147D01*
X162573216Y-115201544D01*
X162737188Y-115133624D01*
X162911259Y-115099000D01*
X163088741Y-115099000D01*
X163262812Y-115133624D01*
X163262812Y-115133624D01*
G37*
G36*
X153102812Y-115133624D02*
X153266784Y-115201544D01*
X153414354Y-115300147D01*
X153539853Y-115425646D01*
X153638456Y-115573216D01*
X153706376Y-115737188D01*
X153741000Y-115911259D01*
X153741000Y-116088741D01*
X153706376Y-116262812D01*
X153638456Y-116426784D01*
X153539853Y-116574354D01*
X153414354Y-116699853D01*
X153266784Y-116798456D01*
X153102812Y-116866376D01*
X152928741Y-116901000D01*
X152751259Y-116901000D01*
X152577188Y-116866376D01*
X152413216Y-116798456D01*
X152265646Y-116699853D01*
X152140147Y-116574354D01*
X152041544Y-116426784D01*
X151973624Y-116262812D01*
X151939000Y-116088741D01*
X151939000Y-115911259D01*
X151973624Y-115737188D01*
X152041544Y-115573216D01*
X152140147Y-115425646D01*
X152265646Y-115300147D01*
X152413216Y-115201544D01*
X152577188Y-115133624D01*
X152751259Y-115099000D01*
X152928741Y-115099000D01*
X153102812Y-115133624D01*
X153102812Y-115133624D01*
G37*
G36*
X156723677Y-113303465D02*
X156761364Y-113314898D01*
X156796103Y-113333466D01*
X156826548Y-113358452D01*
X156851534Y-113388897D01*
X156870102Y-113423636D01*
X156881535Y-113461323D01*
X156886000Y-113506661D01*
X156886000Y-114593339D01*
X156881535Y-114638677D01*
X156870102Y-114676364D01*
X156851534Y-114711103D01*
X156826548Y-114741548D01*
X156796103Y-114766534D01*
X156761364Y-114785102D01*
X156723677Y-114796535D01*
X156678339Y-114801000D01*
X155841661Y-114801000D01*
X155796323Y-114796535D01*
X155758636Y-114785102D01*
X155723897Y-114766534D01*
X155693452Y-114741548D01*
X155668466Y-114711103D01*
X155649898Y-114676364D01*
X155638465Y-114638677D01*
X155634000Y-114593339D01*
X155634000Y-113506661D01*
X155638465Y-113461323D01*
X155649898Y-113423636D01*
X155668466Y-113388897D01*
X155693452Y-113358452D01*
X155723897Y-113333466D01*
X155758636Y-113314898D01*
X155796323Y-113303465D01*
X155841661Y-113299000D01*
X156678339Y-113299000D01*
X156723677Y-113303465D01*
X156723677Y-113303465D01*
G37*
G36*
X154673677Y-113303465D02*
X154711364Y-113314898D01*
X154746103Y-113333466D01*
X154776548Y-113358452D01*
X154801534Y-113388897D01*
X154820102Y-113423636D01*
X154831535Y-113461323D01*
X154836000Y-113506661D01*
X154836000Y-114593339D01*
X154831535Y-114638677D01*
X154820102Y-114676364D01*
X154801534Y-114711103D01*
X154776548Y-114741548D01*
X154746103Y-114766534D01*
X154711364Y-114785102D01*
X154673677Y-114796535D01*
X154628339Y-114801000D01*
X153791661Y-114801000D01*
X153746323Y-114796535D01*
X153708636Y-114785102D01*
X153673897Y-114766534D01*
X153643452Y-114741548D01*
X153618466Y-114711103D01*
X153599898Y-114676364D01*
X153588465Y-114638677D01*
X153584000Y-114593339D01*
X153584000Y-113506661D01*
X153588465Y-113461323D01*
X153599898Y-113423636D01*
X153618466Y-113388897D01*
X153643452Y-113358452D01*
X153673897Y-113333466D01*
X153708636Y-113314898D01*
X153746323Y-113303465D01*
X153791661Y-113299000D01*
X154628339Y-113299000D01*
X154673677Y-113303465D01*
X154673677Y-113303465D01*
G37*
G36*
X145392812Y-112503624D02*
X145556784Y-112571544D01*
X145704354Y-112670147D01*
X145829853Y-112795646D01*
X145928456Y-112943216D01*
X145996376Y-113107188D01*
X146031000Y-113281259D01*
X146031000Y-113458741D01*
X145996376Y-113632812D01*
X145928456Y-113796784D01*
X145829853Y-113944354D01*
X145704354Y-114069853D01*
X145556784Y-114168456D01*
X145392812Y-114236376D01*
X145218741Y-114271000D01*
X145041259Y-114271000D01*
X144867188Y-114236376D01*
X144703216Y-114168456D01*
X144555646Y-114069853D01*
X144430147Y-113944354D01*
X144331544Y-113796784D01*
X144263624Y-113632812D01*
X144229000Y-113458741D01*
X144229000Y-113281259D01*
X144263624Y-113107188D01*
X144331544Y-112943216D01*
X144430147Y-112795646D01*
X144555646Y-112670147D01*
X144703216Y-112571544D01*
X144867188Y-112503624D01*
X145041259Y-112469000D01*
X145218741Y-112469000D01*
X145392812Y-112503624D01*
X145392812Y-112503624D01*
G37*
G36*
X165892812Y-112503624D02*
X166056784Y-112571544D01*
X166204354Y-112670147D01*
X166329853Y-112795646D01*
X166428456Y-112943216D01*
X166496376Y-113107188D01*
X166531000Y-113281259D01*
X166531000Y-113458741D01*
X166496376Y-113632812D01*
X166428456Y-113796784D01*
X166329853Y-113944354D01*
X166204354Y-114069853D01*
X166056784Y-114168456D01*
X165892812Y-114236376D01*
X165718741Y-114271000D01*
X165541259Y-114271000D01*
X165367188Y-114236376D01*
X165203216Y-114168456D01*
X165055646Y-114069853D01*
X164930147Y-113944354D01*
X164831544Y-113796784D01*
X164763624Y-113632812D01*
X164729000Y-113458741D01*
X164729000Y-113281259D01*
X164763624Y-113107188D01*
X164831544Y-112943216D01*
X164930147Y-112795646D01*
X165055646Y-112670147D01*
X165203216Y-112571544D01*
X165367188Y-112503624D01*
X165541259Y-112469000D01*
X165718741Y-112469000D01*
X165892812Y-112503624D01*
X165892812Y-112503624D01*
G37*
G36*
X153501000Y-112921000D02*
X152599000Y-112921000D01*
X152599000Y-111019000D01*
X153501000Y-111019000D01*
X153501000Y-112921000D01*
X153501000Y-112921000D01*
G37*
G36*
X156163677Y-111253465D02*
X156201364Y-111264898D01*
X156236103Y-111283466D01*
X156266548Y-111308452D01*
X156291534Y-111338897D01*
X156310102Y-111373636D01*
X156321535Y-111411323D01*
X156326000Y-111456661D01*
X156326000Y-112543339D01*
X156321535Y-112588677D01*
X156310102Y-112626364D01*
X156291534Y-112661103D01*
X156266548Y-112691548D01*
X156236103Y-112716534D01*
X156201364Y-112735102D01*
X156163677Y-112746535D01*
X156118339Y-112751000D01*
X155281661Y-112751000D01*
X155236323Y-112746535D01*
X155198636Y-112735102D01*
X155163897Y-112716534D01*
X155133452Y-112691548D01*
X155108466Y-112661103D01*
X155089898Y-112626364D01*
X155078465Y-112588677D01*
X155074000Y-112543339D01*
X155074000Y-111456661D01*
X155078465Y-111411323D01*
X155089898Y-111373636D01*
X155108466Y-111338897D01*
X155133452Y-111308452D01*
X155163897Y-111283466D01*
X155198636Y-111264898D01*
X155236323Y-111253465D01*
X155281661Y-111249000D01*
X156118339Y-111249000D01*
X156163677Y-111253465D01*
X156163677Y-111253465D01*
G37*
G36*
X158213677Y-111253465D02*
X158251364Y-111264898D01*
X158286103Y-111283466D01*
X158316548Y-111308452D01*
X158341534Y-111338897D01*
X158360102Y-111373636D01*
X158371535Y-111411323D01*
X158376000Y-111456661D01*
X158376000Y-112543339D01*
X158371535Y-112588677D01*
X158360102Y-112626364D01*
X158341534Y-112661103D01*
X158316548Y-112691548D01*
X158286103Y-112716534D01*
X158251364Y-112735102D01*
X158213677Y-112746535D01*
X158168339Y-112751000D01*
X157331661Y-112751000D01*
X157286323Y-112746535D01*
X157248636Y-112735102D01*
X157213897Y-112716534D01*
X157183452Y-112691548D01*
X157158466Y-112661103D01*
X157139898Y-112626364D01*
X157128465Y-112588677D01*
X157124000Y-112543339D01*
X157124000Y-111456661D01*
X157128465Y-111411323D01*
X157139898Y-111373636D01*
X157158466Y-111338897D01*
X157183452Y-111308452D01*
X157213897Y-111283466D01*
X157248636Y-111264898D01*
X157286323Y-111253465D01*
X157331661Y-111249000D01*
X158168339Y-111249000D01*
X158213677Y-111253465D01*
X158213677Y-111253465D01*
G37*
G36*
X149331000Y-112461000D02*
X148029000Y-112461000D01*
X148029000Y-111459000D01*
X149331000Y-111459000D01*
X149331000Y-112461000D01*
X149331000Y-112461000D01*
G37*
G36*
X174091000Y-110151000D02*
X168909000Y-110151000D01*
X168909000Y-108549000D01*
X174091000Y-108549000D01*
X174091000Y-110151000D01*
X174091000Y-110151000D01*
G37*
G36*
X142291000Y-110151000D02*
X137109000Y-110151000D01*
X137109000Y-108549000D01*
X142291000Y-108549000D01*
X142291000Y-110151000D01*
X142291000Y-110151000D01*
G37*
G36*
X152551000Y-109621000D02*
X151649000Y-109621000D01*
X151649000Y-107719000D01*
X152551000Y-107719000D01*
X152551000Y-109621000D01*
X152551000Y-109621000D01*
G37*
G36*
X154451000Y-109621000D02*
X153549000Y-109621000D01*
X153549000Y-107719000D01*
X154451000Y-107719000D01*
X154451000Y-109621000D01*
X154451000Y-109621000D01*
G37*
G36*
X157901000Y-109326000D02*
X156099000Y-109326000D01*
X156099000Y-108574000D01*
X157901000Y-108574000D01*
X157901000Y-109326000D01*
X157901000Y-109326000D01*
G37*
G36*
X165892812Y-107423624D02*
X166056784Y-107491544D01*
X166204354Y-107590147D01*
X166329853Y-107715646D01*
X166428456Y-107863216D01*
X166496376Y-108027188D01*
X166531000Y-108201259D01*
X166531000Y-108378741D01*
X166496376Y-108552812D01*
X166428456Y-108716784D01*
X166329853Y-108864354D01*
X166204354Y-108989853D01*
X166056784Y-109088456D01*
X165892812Y-109156376D01*
X165718741Y-109191000D01*
X165541259Y-109191000D01*
X165367188Y-109156376D01*
X165203216Y-109088456D01*
X165055646Y-108989853D01*
X164930147Y-108864354D01*
X164831544Y-108716784D01*
X164763624Y-108552812D01*
X164729000Y-108378741D01*
X164729000Y-108201259D01*
X164763624Y-108027188D01*
X164831544Y-107863216D01*
X164930147Y-107715646D01*
X165055646Y-107590147D01*
X165203216Y-107491544D01*
X165367188Y-107423624D01*
X165541259Y-107389000D01*
X165718741Y-107389000D01*
X165892812Y-107423624D01*
X165892812Y-107423624D01*
G37*
G36*
X145392812Y-107423624D02*
X145556784Y-107491544D01*
X145704354Y-107590147D01*
X145829853Y-107715646D01*
X145928456Y-107863216D01*
X145996376Y-108027188D01*
X146031000Y-108201259D01*
X146031000Y-108378741D01*
X145996376Y-108552812D01*
X145928456Y-108716784D01*
X145829853Y-108864354D01*
X145704354Y-108989853D01*
X145556784Y-109088456D01*
X145392812Y-109156376D01*
X145218741Y-109191000D01*
X145041259Y-109191000D01*
X144867188Y-109156376D01*
X144703216Y-109088456D01*
X144555646Y-108989853D01*
X144430147Y-108864354D01*
X144331544Y-108716784D01*
X144263624Y-108552812D01*
X144229000Y-108378741D01*
X144229000Y-108201259D01*
X144263624Y-108027188D01*
X144331544Y-107863216D01*
X144430147Y-107715646D01*
X144555646Y-107590147D01*
X144703216Y-107491544D01*
X144867188Y-107423624D01*
X145041259Y-107389000D01*
X145218741Y-107389000D01*
X145392812Y-107423624D01*
X145392812Y-107423624D01*
G37*
G36*
X149331000Y-109161000D02*
X148029000Y-109161000D01*
X148029000Y-108159000D01*
X149331000Y-108159000D01*
X149331000Y-109161000D01*
X149331000Y-109161000D01*
G37*
G36*
X157901000Y-107426000D02*
X156099000Y-107426000D01*
X156099000Y-106674000D01*
X157901000Y-106674000D01*
X157901000Y-107426000D01*
X157901000Y-107426000D01*
G37*
G36*
X174091000Y-105901000D02*
X168909000Y-105901000D01*
X168909000Y-104299000D01*
X174091000Y-104299000D01*
X174091000Y-105901000D01*
X174091000Y-105901000D01*
G37*
G36*
X142291000Y-105901000D02*
X137109000Y-105901000D01*
X137109000Y-104299000D01*
X142291000Y-104299000D01*
X142291000Y-105901000D01*
X142291000Y-105901000D01*
G37*
G36*
X163671000Y-105451000D02*
X162329000Y-105451000D01*
X162329000Y-104549000D01*
X163671000Y-104549000D01*
X163671000Y-105451000D01*
X163671000Y-105451000D01*
G37*
G36*
X156476000Y-105051000D02*
X155724000Y-105051000D01*
X155724000Y-103249000D01*
X156476000Y-103249000D01*
X156476000Y-105051000D01*
X156476000Y-105051000D01*
G37*
G36*
X158376000Y-105051000D02*
X157624000Y-105051000D01*
X157624000Y-103249000D01*
X158376000Y-103249000D01*
X158376000Y-105051000D01*
X158376000Y-105051000D01*
G37*
G36*
X165892812Y-102343624D02*
X166056784Y-102411544D01*
X166204354Y-102510147D01*
X166329853Y-102635646D01*
X166428456Y-102783216D01*
X166496376Y-102947188D01*
X166531000Y-103121259D01*
X166531000Y-103298741D01*
X166496376Y-103472812D01*
X166428456Y-103636784D01*
X166329853Y-103784354D01*
X166204354Y-103909853D01*
X166056784Y-104008456D01*
X165892812Y-104076376D01*
X165718741Y-104111000D01*
X165541259Y-104111000D01*
X165367188Y-104076376D01*
X165203216Y-104008456D01*
X165055646Y-103909853D01*
X164930147Y-103784354D01*
X164831544Y-103636784D01*
X164763624Y-103472812D01*
X164729000Y-103298741D01*
X164729000Y-103121259D01*
X164763624Y-102947188D01*
X164831544Y-102783216D01*
X164930147Y-102635646D01*
X165055646Y-102510147D01*
X165203216Y-102411544D01*
X165367188Y-102343624D01*
X165541259Y-102309000D01*
X165718741Y-102309000D01*
X165892812Y-102343624D01*
X165892812Y-102343624D01*
G37*
G36*
X145392812Y-102343624D02*
X145556784Y-102411544D01*
X145704354Y-102510147D01*
X145829853Y-102635646D01*
X145928456Y-102783216D01*
X145996376Y-102947188D01*
X146031000Y-103121259D01*
X146031000Y-103298741D01*
X145996376Y-103472812D01*
X145928456Y-103636784D01*
X145829853Y-103784354D01*
X145704354Y-103909853D01*
X145556784Y-104008456D01*
X145392812Y-104076376D01*
X145218741Y-104111000D01*
X145041259Y-104111000D01*
X144867188Y-104076376D01*
X144703216Y-104008456D01*
X144555646Y-103909853D01*
X144430147Y-103784354D01*
X144331544Y-103636784D01*
X144263624Y-103472812D01*
X144229000Y-103298741D01*
X144229000Y-103121259D01*
X144263624Y-102947188D01*
X144331544Y-102783216D01*
X144430147Y-102635646D01*
X144555646Y-102510147D01*
X144703216Y-102411544D01*
X144867188Y-102343624D01*
X145041259Y-102309000D01*
X145218741Y-102309000D01*
X145392812Y-102343624D01*
X145392812Y-102343624D01*
G37*
G36*
X164051000Y-104000000D02*
X161949000Y-104000000D01*
X161949000Y-102698000D01*
X164051000Y-102698000D01*
X164051000Y-104000000D01*
X164051000Y-104000000D01*
G37*
G36*
X163671000Y-102149000D02*
X162329000Y-102149000D01*
X162329000Y-101247000D01*
X163671000Y-101247000D01*
X163671000Y-102149000D01*
X163671000Y-102149000D01*
G37*
G36*
X174091000Y-101651000D02*
X168909000Y-101651000D01*
X168909000Y-100049000D01*
X174091000Y-100049000D01*
X174091000Y-101651000D01*
X174091000Y-101651000D01*
G37*
G36*
X142291000Y-101651000D02*
X137109000Y-101651000D01*
X137109000Y-100049000D01*
X142291000Y-100049000D01*
X142291000Y-101651000D01*
X142291000Y-101651000D01*
G37*
G36*
X158671000Y-101202000D02*
X157329000Y-101202000D01*
X157329000Y-100300000D01*
X158671000Y-100300000D01*
X158671000Y-101202000D01*
X158671000Y-101202000D01*
G37*
G36*
X159051000Y-99751000D02*
X156949000Y-99751000D01*
X156949000Y-98449000D01*
X159051000Y-98449000D01*
X159051000Y-99751000D01*
X159051000Y-99751000D01*
G37*
G36*
X163076000Y-99726000D02*
X161274000Y-99726000D01*
X161274000Y-98974000D01*
X163076000Y-98974000D01*
X163076000Y-99726000D01*
X163076000Y-99726000D01*
G37*
G36*
X165892812Y-97263624D02*
X166056784Y-97331544D01*
X166204354Y-97430147D01*
X166329853Y-97555646D01*
X166428456Y-97703216D01*
X166496376Y-97867188D01*
X166531000Y-98041259D01*
X166531000Y-98218741D01*
X166496376Y-98392812D01*
X166428456Y-98556784D01*
X166329853Y-98704354D01*
X166204354Y-98829853D01*
X166056784Y-98928456D01*
X165892812Y-98996376D01*
X165718741Y-99031000D01*
X165541259Y-99031000D01*
X165367188Y-98996376D01*
X165203216Y-98928456D01*
X165055646Y-98829853D01*
X164930147Y-98704354D01*
X164831544Y-98556784D01*
X164763624Y-98392812D01*
X164729000Y-98218741D01*
X164729000Y-98041259D01*
X164763624Y-97867188D01*
X164831544Y-97703216D01*
X164930147Y-97555646D01*
X165055646Y-97430147D01*
X165203216Y-97331544D01*
X165367188Y-97263624D01*
X165541259Y-97229000D01*
X165718741Y-97229000D01*
X165892812Y-97263624D01*
X165892812Y-97263624D01*
G37*
G36*
X145392812Y-97263624D02*
X145556784Y-97331544D01*
X145704354Y-97430147D01*
X145829853Y-97555646D01*
X145928456Y-97703216D01*
X145996376Y-97867188D01*
X146031000Y-98041259D01*
X146031000Y-98218741D01*
X145996376Y-98392812D01*
X145928456Y-98556784D01*
X145829853Y-98704354D01*
X145704354Y-98829853D01*
X145556784Y-98928456D01*
X145392812Y-98996376D01*
X145218741Y-99031000D01*
X145041259Y-99031000D01*
X144867188Y-98996376D01*
X144703216Y-98928456D01*
X144555646Y-98829853D01*
X144430147Y-98704354D01*
X144331544Y-98556784D01*
X144263624Y-98392812D01*
X144229000Y-98218741D01*
X144229000Y-98041259D01*
X144263624Y-97867188D01*
X144331544Y-97703216D01*
X144430147Y-97555646D01*
X144555646Y-97430147D01*
X144703216Y-97331544D01*
X144867188Y-97263624D01*
X145041259Y-97229000D01*
X145218741Y-97229000D01*
X145392812Y-97263624D01*
X145392812Y-97263624D01*
G37*
G36*
X158671000Y-97900000D02*
X157329000Y-97900000D01*
X157329000Y-96998000D01*
X158671000Y-96998000D01*
X158671000Y-97900000D01*
X158671000Y-97900000D01*
G37*
G36*
X163076000Y-97826000D02*
X161274000Y-97826000D01*
X161274000Y-97074000D01*
X163076000Y-97074000D01*
X163076000Y-97826000D01*
X163076000Y-97826000D01*
G37*
G36*
X163262812Y-94633624D02*
X163426784Y-94701544D01*
X163574354Y-94800147D01*
X163699853Y-94925646D01*
X163798456Y-95073216D01*
X163866376Y-95237188D01*
X163901000Y-95411259D01*
X163901000Y-95588741D01*
X163866376Y-95762812D01*
X163798456Y-95926784D01*
X163699853Y-96074354D01*
X163574354Y-96199853D01*
X163426784Y-96298456D01*
X163262812Y-96366376D01*
X163088741Y-96401000D01*
X162911259Y-96401000D01*
X162737188Y-96366376D01*
X162573216Y-96298456D01*
X162425646Y-96199853D01*
X162300147Y-96074354D01*
X162201544Y-95926784D01*
X162133624Y-95762812D01*
X162099000Y-95588741D01*
X162099000Y-95411259D01*
X162133624Y-95237188D01*
X162201544Y-95073216D01*
X162300147Y-94925646D01*
X162425646Y-94800147D01*
X162573216Y-94701544D01*
X162737188Y-94633624D01*
X162911259Y-94599000D01*
X163088741Y-94599000D01*
X163262812Y-94633624D01*
X163262812Y-94633624D01*
G37*
G36*
X158182812Y-94633624D02*
X158346784Y-94701544D01*
X158494354Y-94800147D01*
X158619853Y-94925646D01*
X158718456Y-95073216D01*
X158786376Y-95237188D01*
X158821000Y-95411259D01*
X158821000Y-95588741D01*
X158786376Y-95762812D01*
X158718456Y-95926784D01*
X158619853Y-96074354D01*
X158494354Y-96199853D01*
X158346784Y-96298456D01*
X158182812Y-96366376D01*
X158008741Y-96401000D01*
X157831259Y-96401000D01*
X157657188Y-96366376D01*
X157493216Y-96298456D01*
X157345646Y-96199853D01*
X157220147Y-96074354D01*
X157121544Y-95926784D01*
X157053624Y-95762812D01*
X157019000Y-95588741D01*
X157019000Y-95411259D01*
X157053624Y-95237188D01*
X157121544Y-95073216D01*
X157220147Y-94925646D01*
X157345646Y-94800147D01*
X157493216Y-94701544D01*
X157657188Y-94633624D01*
X157831259Y-94599000D01*
X158008741Y-94599000D01*
X158182812Y-94633624D01*
X158182812Y-94633624D01*
G37*
G36*
X153102812Y-94633624D02*
X153266784Y-94701544D01*
X153414354Y-94800147D01*
X153539853Y-94925646D01*
X153638456Y-95073216D01*
X153706376Y-95237188D01*
X153741000Y-95411259D01*
X153741000Y-95588741D01*
X153706376Y-95762812D01*
X153638456Y-95926784D01*
X153539853Y-96074354D01*
X153414354Y-96199853D01*
X153266784Y-96298456D01*
X153102812Y-96366376D01*
X152928741Y-96401000D01*
X152751259Y-96401000D01*
X152577188Y-96366376D01*
X152413216Y-96298456D01*
X152265646Y-96199853D01*
X152140147Y-96074354D01*
X152041544Y-95926784D01*
X151973624Y-95762812D01*
X151939000Y-95588741D01*
X151939000Y-95411259D01*
X151973624Y-95237188D01*
X152041544Y-95073216D01*
X152140147Y-94925646D01*
X152265646Y-94800147D01*
X152413216Y-94701544D01*
X152577188Y-94633624D01*
X152751259Y-94599000D01*
X152928741Y-94599000D01*
X153102812Y-94633624D01*
X153102812Y-94633624D01*
G37*
G36*
X148022812Y-94633624D02*
X148186784Y-94701544D01*
X148334354Y-94800147D01*
X148459853Y-94925646D01*
X148558456Y-95073216D01*
X148626376Y-95237188D01*
X148661000Y-95411259D01*
X148661000Y-95588741D01*
X148626376Y-95762812D01*
X148558456Y-95926784D01*
X148459853Y-96074354D01*
X148334354Y-96199853D01*
X148186784Y-96298456D01*
X148022812Y-96366376D01*
X147848741Y-96401000D01*
X147671259Y-96401000D01*
X147497188Y-96366376D01*
X147333216Y-96298456D01*
X147185646Y-96199853D01*
X147060147Y-96074354D01*
X146961544Y-95926784D01*
X146893624Y-95762812D01*
X146859000Y-95588741D01*
X146859000Y-95411259D01*
X146893624Y-95237188D01*
X146961544Y-95073216D01*
X147060147Y-94925646D01*
X147185646Y-94800147D01*
X147333216Y-94701544D01*
X147497188Y-94633624D01*
X147671259Y-94599000D01*
X147848741Y-94599000D01*
X148022812Y-94633624D01*
X148022812Y-94633624D01*
G37*
M02*
